<svg xmlns="http://www.w3.org/2000/svg" width="457" height="227"><g transform="translate(0, 0)"><g transform="scale(1)"><style>:where(.plot-d6a7b5) {
  --plot-background: white;
  display: block;
  height: auto;
  height: intrinsic;
  max-width: 100%;
}
:where(.plot-d6a7b5 text),
:where(.plot-d6a7b5 tspan) {
  white-space: pre;
}</style><g aria-label="y-grid" aria-hidden="true" stroke="currentColor" stroke-opacity="0.1"><line x1="40" x2="208.5" y1="197" y2="197"></line><line x1="40" x2="208.5" y1="161.60000000000002" y2="161.60000000000002"></line><line x1="40" x2="208.5" y1="126.19999999999999" y2="126.19999999999999"></line><line x1="40" x2="208.5" y1="90.80000000000001" y2="90.80000000000001"></line><line x1="40" x2="208.5" y1="55.39999999999999" y2="55.39999999999999"></line><line x1="40" x2="208.5" y1="20" y2="20"></line></g><g aria-label="rule" stroke="currentColor"><line x1="40" x2="208.5" y1="197" y2="197"></line></g><g aria-label="line" fill="none" stroke="currentColor" stroke-width="1.5" stroke-linejoin="round" stroke-linecap="round"><path d="M40,196.91L41.702,196.636L43.404,196.175L45.106,195.524L46.808,194.68L48.51,193.642L50.212,192.411L51.914,190.987L53.616,189.374L55.318,187.573L57.02,185.591L58.722,183.433L60.424,181.105L62.126,178.617L63.828,175.976L65.53,173.192L67.232,170.276L68.934,167.239L70.636,164.093L72.338,160.849L74.04,157.52L75.742,154.118L77.444,150.656L79.146,147.145L80.848,143.599L82.551,140.028L84.253,136.444L85.955,132.858L87.657,129.281L89.359,125.721L91.061,122.189L92.763,118.692L94.465,115.238L96.167,111.834L97.869,108.487L99.571,105.201L101.273,101.982L102.975,98.834L104.677,95.761L106.379,92.765L108.081,89.849L109.783,87.015L111.485,84.263L113.187,81.596L114.889,79.013L116.591,76.514L118.293,74.1L119.995,71.77L121.697,69.522L123.399,67.356L125.101,65.271L126.803,63.264L128.505,61.336L130.207,59.482L131.909,57.703L133.611,55.995L135.313,54.358L137.015,52.788L138.717,51.284L140.419,49.844L142.121,48.465L143.823,47.145L145.525,45.883L147.227,44.677L148.929,43.523L150.631,42.421L152.333,41.368L154.035,40.362L155.737,39.402L157.439,38.485L159.141,37.61L160.843,36.775L162.545,35.979L164.247,35.219L165.949,34.494L167.652,33.803L169.354,33.145L171.056,32.517L172.758,31.918L174.46,31.348L176.162,30.804L177.864,30.286L179.566,29.792L181.268,29.322L182.97,28.874L184.672,28.448L186.374,28.041L188.076,27.654L189.778,27.286L191.48,26.935L193.182,26.6L194.884,26.282L196.586,25.979L198.288,25.691L199.99,25.416L201.692,25.155L203.394,24.906L205.096,24.669L206.798,24.443L208.5,24.228"></path></g><g aria-label="y-axis tick" aria-hidden="true" fill="none" stroke="currentColor"><path transform="translate(40,197)" d="M0,0L-6,0"></path><path transform="translate(40,161.60000000000002)" d="M0,0L-6,0"></path><path transform="translate(40,126.19999999999999)" d="M0,0L-6,0"></path><path transform="translate(40,90.80000000000001)" d="M0,0L-6,0"></path><path transform="translate(40,55.39999999999999)" d="M0,0L-6,0"></path><path transform="translate(40,20)" d="M0,0L-6,0"></path></g><g aria-label="y-axis tick label" text-anchor="end" font-family="HelveticaNeue-Light" font-size="8" font-variant="tabular-nums" transform="translate(-9,0)"><text y="0.32em" transform="translate(40,197)">0.0</text><text y="0.32em" transform="translate(40,161.60000000000002)">0.2</text><text y="0.32em" transform="translate(40,126.19999999999999)">0.4</text><text y="0.32em" transform="translate(40,90.80000000000001)">0.6</text><text y="0.32em" transform="translate(40,55.39999999999999)">0.8</text><text y="0.32em" transform="translate(40,20)">1.0</text></g><g aria-label="y-axis label" text-anchor="start" font-family="HelveticaNeue-Light" font-size="8" transform="translate(-10,-17)"><text y="0.71em" transform="translate(40,20)">↑ Probability of latency</text></g><g aria-label="x-axis tick" aria-hidden="true" fill="none" stroke="currentColor"><path transform="translate(72.33838383838383,197)" d="M0,0L0,6"></path><path transform="translate(106.37878787878788,197)" d="M0,0L0,6"></path><path transform="translate(140.41919191919192,197)" d="M0,0L0,6"></path><path transform="translate(174.45959595959596,197)" d="M0,0L0,6"></path><path transform="translate(208.5,197)" d="M0,0L0,6"></path></g><g aria-label="x-axis tick label" font-family="HelveticaNeue-Light" font-size="8" font-variant="tabular-nums" transform="translate(0,9)"><text y="0.71em" transform="translate(72.33838383838383,197)">20</text><text y="0.71em" transform="translate(106.37878787878788,197)">40</text><text y="0.71em" transform="translate(140.41919191919192,197)">60</text><text y="0.71em" transform="translate(174.45959595959596,197)">80</text><text y="0.71em" transform="translate(208.5,197)">100</text></g><g aria-label="x-axis label" text-anchor="end" font-family="HelveticaNeue-Light" font-size="8" transform="translate(17,27)"><text transform="translate(208.5,197)">Branch length (years)</text></g></g><text x="10" y="14" font-size="18" font-family="HelveticaNeue-Light">A</text></g><g transform="translate(228.5, 0)"><g transform="scale(1)"><style>:where(.plot-d6a7b5) {
  --plot-background: white;
  display: block;
  height: auto;
  height: intrinsic;
  max-width: 100%;
}
:where(.plot-d6a7b5 text),
:where(.plot-d6a7b5 tspan) {
  white-space: pre;
}</style><g aria-label="y-grid" aria-hidden="true" stroke="currentColor" stroke-opacity="0.1"><line x1="40" x2="208.5" y1="197" y2="197"></line><line x1="40" x2="208.5" y1="174.69260128126805" y2="174.69260128126805"></line><line x1="40" x2="208.5" y1="152.3852025625361" y2="152.3852025625361"></line><line x1="40" x2="208.5" y1="130.0778038438042" y2="130.0778038438042"></line><line x1="40" x2="208.5" y1="107.77040512507227" y2="107.77040512507227"></line><line x1="40" x2="208.5" y1="85.46300640634034" y2="85.46300640634034"></line><line x1="40" x2="208.5" y1="63.155607687608416" y2="63.155607687608416"></line><line x1="40" x2="208.5" y1="40.84820896887648" y2="40.84820896887648"></line></g><g aria-label="rule" stroke="currentColor"><line x1="40" x2="208.5" y1="197" y2="197"></line></g><g aria-label="line" fill="none" stroke-width="1.5" stroke-linejoin="round" stroke-linecap="round"><path stroke="#805882" d="M41.685,194.247L43.37,194.27L45.055,194.294L46.74,194.318L48.425,194.341L50.11,194.365L51.795,194.389L53.48,194.413L55.165,194.437L56.85,194.461L58.535,194.486L60.22,194.51L61.905,194.534L63.59,194.559L65.275,194.584L66.96,194.608L68.645,194.633L70.33,194.658L72.015,194.683L73.7,194.708L75.385,194.733L77.07,194.758L78.755,194.784L80.44,194.809L82.125,194.835L83.81,194.86L85.495,194.886L87.18,194.912L88.865,194.938L90.55,194.964L92.235,194.99L93.92,195.016L95.605,195.042L97.29,195.068L98.975,195.095L100.66,195.121L102.345,195.148L104.03,195.174L105.715,195.201L107.4,195.228L109.085,195.255L110.77,195.282L112.455,195.309L114.14,195.336L115.825,195.363L117.51,195.391L119.195,195.418L120.88,195.446L122.565,195.473L124.25,195.501L125.935,195.529L127.62,195.557L129.305,195.585L130.99,195.613L132.675,195.641L134.36,195.669L136.045,195.698L137.73,195.726L139.415,195.755L141.1,195.783L142.785,195.812L144.47,195.841L146.155,195.87L147.84,195.899L149.525,195.928L151.21,195.957L152.895,195.986L154.58,196.015L156.265,196.045L157.95,196.074L159.635,196.104L161.32,196.134L163.005,196.163L164.69,196.193L166.375,196.223L168.06,196.253L169.745,196.283L171.43,196.314L173.115,196.344L174.8,196.374L176.485,196.405L178.17,196.435L179.855,196.466L181.54,196.497L183.225,196.527L184.91,196.558L186.595,196.589L188.28,196.62L189.965,196.651L191.65,196.683L193.335,196.714L195.02,196.745L196.705,196.777L198.39,196.809L200.075,196.84L201.76,196.872L203.445,196.904L205.13,196.936L206.815,196.968L208.5,197"></path><path stroke=" #936310" d="M41.685,186.416L43.37,186.487L45.055,186.559L46.74,186.631L48.425,186.704L50.11,186.778L51.795,186.853L53.48,186.928L55.165,187.004L56.85,187.081L58.535,187.158L60.22,187.236L61.905,187.315L63.59,187.395L65.275,187.475L66.96,187.556L68.645,187.638L70.33,187.72L72.015,187.804L73.7,187.888L75.385,187.972L77.07,188.058L78.755,188.144L80.44,188.231L82.125,188.319L83.81,188.407L85.495,188.496L87.18,188.586L88.865,188.677L90.55,188.768L92.235,188.86L93.92,188.953L95.605,189.047L97.29,189.141L98.975,189.236L100.66,189.332L102.345,189.428L104.03,189.526L105.715,189.624L107.4,189.723L109.085,189.822L110.77,189.922L112.455,190.023L114.14,190.125L115.825,190.228L117.51,190.331L119.195,190.435L120.88,190.54L122.565,190.645L124.25,190.751L125.935,190.858L127.62,190.966L129.305,191.075L130.99,191.184L132.675,191.294L134.36,191.404L136.045,191.516L137.73,191.628L139.415,191.741L141.1,191.855L142.785,191.969L144.47,192.084L146.155,192.2L147.84,192.317L149.525,192.434L151.21,192.552L152.895,192.671L154.58,192.79L156.265,192.911L157.95,193.032L159.635,193.154L161.32,193.276L163.005,193.399L164.69,193.523L166.375,193.648L168.06,193.773L169.745,193.9L171.43,194.026L173.115,194.154L174.8,194.282L176.485,194.412L178.17,194.541L179.855,194.672L181.54,194.803L183.225,194.935L184.91,195.068L186.595,195.201L188.28,195.335L189.965,195.47L191.65,195.606L193.335,195.742L195.02,195.879L196.705,196.017L198.39,196.155L200.075,196.294L201.76,196.434L203.445,196.574L205.13,196.715L206.815,196.857L208.5,197"></path><path stroke="	#d43511" d="M41.685,147.867L43.37,147.855L45.055,147.851L46.74,147.855L48.425,147.868L50.11,147.89L51.795,147.92L53.48,147.959L55.165,148.008L56.85,148.065L58.535,148.131L60.22,148.207L61.905,148.292L63.59,148.386L65.275,148.49L66.96,148.603L68.645,148.726L70.33,148.859L72.015,149.001L73.7,149.154L75.385,149.316L77.07,149.488L78.755,149.671L80.44,149.864L82.125,150.067L83.81,150.28L85.495,150.504L87.18,150.738L88.865,150.983L90.55,151.239L92.235,151.505L93.92,151.782L95.605,152.07L97.29,152.369L98.975,152.679L100.66,152.999L102.345,153.331L104.03,153.674L105.715,154.028L107.4,154.393L109.085,154.769L110.77,155.157L112.455,155.556L114.14,155.966L115.825,156.388L117.51,156.821L119.195,157.266L120.88,157.722L122.565,158.189L124.25,158.668L125.935,159.159L127.62,159.661L129.305,160.175L130.99,160.701L132.675,161.238L134.36,161.786L136.045,162.347L137.73,162.918L139.415,163.502L141.1,164.097L142.785,164.704L144.47,165.322L146.155,165.952L147.84,166.594L149.525,167.247L151.21,167.912L152.895,168.588L154.58,169.275L156.265,169.975L157.95,170.685L159.635,171.407L161.32,172.14L163.005,172.885L164.69,173.641L166.375,174.408L168.06,175.186L169.745,175.975L171.43,176.775L173.115,177.586L174.8,178.409L176.485,179.241L178.17,180.085L179.855,180.939L181.54,181.804L183.225,182.68L184.91,183.566L186.595,184.462L188.28,185.368L189.965,186.284L191.65,187.211L193.335,188.147L195.02,189.093L196.705,190.049L198.39,191.015L200.075,191.989L201.76,192.973L203.445,193.967L205.13,194.969L206.815,195.98L208.5,197"></path><path stroke="	#73878c" d="M41.685,120.432L43.37,119.142L45.055,117.863L46.74,116.594L48.425,115.338L50.11,114.095L51.795,112.867L53.48,111.654L55.165,110.459L56.85,109.281L58.535,108.123L60.22,106.985L61.905,105.869L63.59,104.776L65.275,103.707L66.96,102.663L68.645,101.646L70.33,100.657L72.015,99.697L73.7,98.767L75.385,97.869L77.07,97.004L78.755,96.173L80.44,95.378L82.125,94.619L83.81,93.898L85.495,93.217L87.18,92.576L88.865,91.976L90.55,91.42L92.235,90.907L93.92,90.44L95.605,90.019L97.29,89.646L98.975,89.321L100.66,89.047L102.345,88.824L104.03,88.652L105.715,88.534L107.4,88.471L109.085,88.462L110.77,88.51L112.455,88.615L114.14,88.778L115.825,89.001L117.51,89.283L119.195,89.626L120.88,90.03L122.565,90.497L124.25,91.027L125.935,91.621L127.62,92.279L129.305,93.002L130.99,93.79L132.675,94.644L134.36,95.565L136.045,96.552L137.73,97.607L139.415,98.729L141.1,99.918L142.785,101.175L144.47,102.5L146.155,103.893L147.84,105.354L149.525,106.883L151.21,108.479L152.895,110.143L154.58,111.873L156.265,113.671L157.95,115.535L159.635,117.464L161.32,119.459L163.005,121.519L164.69,123.642L166.375,125.829L168.06,128.078L169.745,130.388L171.43,132.758L173.115,135.187L174.8,137.674L176.485,140.218L178.17,142.817L179.855,145.47L181.54,148.175L183.225,150.931L184.91,153.735L186.595,156.587L188.28,159.485L189.965,162.426L191.65,165.408L193.335,168.429L195.02,171.488L196.705,174.581L198.39,177.707L200.075,180.862L201.76,184.046L203.445,187.254L205.13,190.484L206.815,193.734L208.5,197"></path><path stroke="	#f6d292" d="M41.685,168.201L43.37,166.205L45.055,164.13L46.74,161.975L48.425,159.74L50.11,157.427L51.795,155.034L53.48,152.564L55.165,150.016L56.85,147.392L58.535,144.693L60.22,141.921L61.905,139.077L63.59,136.165L65.275,133.186L66.96,130.143L68.645,127.039L70.33,123.878L72.015,120.662L73.7,117.396L75.385,114.084L77.07,110.73L78.755,107.34L80.44,103.918L82.125,100.469L83.81,97L85.495,93.516L87.18,90.023L88.865,86.528L90.55,83.038L92.235,79.559L93.92,76.1L95.605,72.666L97.29,69.267L98.975,65.91L100.66,62.604L102.345,59.356L104.03,56.174L105.715,53.069L107.4,50.047L109.085,47.119L110.77,44.293L112.455,41.577L114.14,38.981L115.825,36.514L117.51,34.185L119.195,32.002L120.88,29.974L122.565,28.11L124.25,26.417L125.935,24.905L127.62,23.582L129.305,22.454L130.99,21.529L132.675,20.815L134.36,20.318L136.045,20.045L137.73,20L139.415,20.19L141.1,20.619L142.785,21.292L144.47,22.212L146.155,23.382L147.84,24.805L149.525,26.482L151.21,28.414L152.895,30.602L154.58,33.044L156.265,35.74L157.95,38.688L159.635,41.883L161.32,45.323L163.005,49.002L164.69,52.915L166.375,57.055L168.06,61.414L169.745,65.985L171.43,70.757L173.115,75.72L174.8,80.863L176.485,86.174L178.17,91.639L179.855,97.246L181.54,102.978L183.225,108.821L184.91,114.757L186.595,120.771L188.28,126.842L189.965,132.954L191.65,139.087L193.335,145.221L195.02,151.336L196.705,157.411L198.39,163.424L200.075,169.354L201.76,175.18L203.445,180.88L205.13,186.431L206.815,191.812L208.5,197"></path></g><g aria-label="text" font-family="HelveticaNeue-Light" font-size="8" font-weight="400" transform="translate(7,-3)"><text y="0.32em" transform="translate(41.685,194.2469800877196)" fill="#805882">5 years</text><text y="0.32em" transform="translate(41.685,186.41644211049905)" fill=" #936310">10 years</text><text y="0.32em" transform="translate(45.055,147.85062987154157)" fill="	#d43511">25 years</text><text y="0.32em" transform="translate(109.085,88.46223859542836)" fill="	#73878c">50 years</text><text y="0.32em" transform="translate(137.73,20)" fill="	#f6d292">100 years</text></g><g aria-label="y-axis tick" aria-hidden="true" fill="none" stroke="currentColor"><path transform="translate(40,197)" d="M0,0L-6,0"></path><path transform="translate(40,141.23150320317018)" d="M0,0L-6,0"></path><path transform="translate(40,85.46300640634034)" d="M0,0L-6,0"></path><path transform="translate(40,29.69450960951051)" d="M0,0L-6,0"></path></g><g aria-label="y-axis tick label" text-anchor="end" font-family="HelveticaNeue-Light" font-size="8" font-variant="tabular-nums" transform="translate(-9,0)"><text y="0.32em" transform="translate(40,197)">0.0</text><text y="0.32em" transform="translate(40,141.23150320317018)">0.5</text><text y="0.32em" transform="translate(40,85.46300640634034)">1.0</text><text y="0.32em" transform="translate(40,29.69450960951051)">1.5</text></g><g aria-label="y-axis label" text-anchor="start" font-family="HelveticaNeue-Light" font-size="8" transform="translate(-10,-17)"><text y="0.71em" transform="translate(40,20)">↑ Density</text></g><g aria-label="x-axis tick" aria-hidden="true" fill="none" stroke="currentColor"><path transform="translate(40,197)" d="M0,0L0,6"></path><path transform="translate(73.7,197)" d="M0,0L0,6"></path><path transform="translate(107.4,197)" d="M0,0L0,6"></path><path transform="translate(141.1,197)" d="M0,0L0,6"></path><path transform="translate(174.8,197)" d="M0,0L0,6"></path><path transform="translate(208.5,197)" d="M0,0L0,6"></path></g><g aria-label="x-axis tick label" font-family="HelveticaNeue-Light" font-size="8" font-variant="tabular-nums" transform="translate(0,9)"><text y="0.71em" transform="translate(40,197)">0.0</text><text y="0.71em" transform="translate(73.7,197)">0.2</text><text y="0.71em" transform="translate(107.4,197)">0.4</text><text y="0.71em" transform="translate(141.1,197)">0.6</text><text y="0.71em" transform="translate(174.8,197)">0.8</text><text y="0.71em" transform="translate(208.5,197)">1.0</text></g><g aria-label="x-axis label" text-anchor="end" font-family="HelveticaNeue-Light" font-size="8" transform="translate(17,27)"><text transform="translate(208.5,197)">Proportion of branch in latency</text></g></g><text x="10" y="14" font-size="18" font-family="HelveticaNeue-Light">B</text></g></svg>