<svg xmlns="http://www.w3.org/2000/svg" width="457" height="227"><g transform="translate(0, 0)"><g transform="scale(1)"><style>:where(.plot-d6a7b5) {
  --plot-background: white;
  display: block;
  height: auto;
  height: intrinsic;
  max-width: 100%;
}
:where(.plot-d6a7b5 text),
:where(.plot-d6a7b5 tspan) {
  white-space: pre;
}</style><g aria-label="y-grid" aria-hidden="true" stroke="currentColor" stroke-opacity="0.1"><line x1="40" x2="208.5" y1="197" y2="197"></line><line x1="40" x2="208.5" y1="161.60000000000002" y2="161.60000000000002"></line><line x1="40" x2="208.5" y1="126.19999999999999" y2="126.19999999999999"></line><line x1="40" x2="208.5" y1="90.80000000000001" y2="90.80000000000001"></line><line x1="40" x2="208.5" y1="55.39999999999999" y2="55.39999999999999"></line><line x1="40" x2="208.5" y1="20" y2="20"></line></g><g aria-label="rule" stroke="currentColor"><line x1="40" x2="208.5" y1="197" y2="197"></line></g><g aria-label="line" fill="none" stroke="currentColor" stroke-width="1.5" stroke-linejoin="round" stroke-linecap="round"><path d="M40,196.928L41.702,196.711L43.404,196.346L45.106,195.833L46.808,195.17L48.51,194.358L50.212,193.397L51.914,192.289L53.616,191.035L55.318,189.638L57.02,188.101L58.722,186.428L60.424,184.624L62.126,182.693L63.828,180.642L65.53,178.476L67.232,176.201L68.934,173.825L70.636,171.354L72.338,168.797L74.04,166.16L75.742,163.452L77.444,160.68L79.146,157.852L80.848,154.976L82.551,152.059L84.253,149.11L85.955,146.136L87.657,143.144L89.359,140.141L91.061,137.133L92.763,134.128L94.465,131.131L96.167,128.147L97.869,125.182L99.571,122.242L101.273,119.331L102.975,116.452L104.677,113.61L106.379,110.809L108.081,108.051L109.783,105.339L111.485,102.676L113.187,100.064L114.889,97.505L116.591,94.999L118.293,92.55L119.995,90.157L121.697,87.821L123.399,85.543L125.101,83.323L126.803,81.162L128.505,79.058L130.207,77.013L131.909,75.026L133.611,73.096L135.313,71.223L137.015,69.406L138.717,67.645L140.419,65.937L142.121,64.284L143.823,62.683L145.525,61.133L147.227,59.634L148.929,58.184L150.631,56.783L152.333,55.428L154.035,54.119L155.737,52.855L157.439,51.635L159.141,50.457L160.843,49.32L162.545,48.223L164.247,47.165L165.949,46.144L167.652,45.16L169.354,44.211L171.056,43.297L172.758,42.415L174.46,41.566L176.162,40.748L177.864,39.959L179.566,39.2L181.268,38.469L182.97,37.764L184.672,37.086L186.374,36.433L188.076,35.805L189.778,35.2L191.48,34.618L193.182,34.057L194.884,33.518L196.586,32.999L198.288,32.499L199.99,32.019L201.692,31.557L203.394,31.112L205.096,30.684L206.798,30.272L208.5,29.877"></path></g><g aria-label="y-axis tick" aria-hidden="true" fill="none" stroke="currentColor"><path transform="translate(40,197)" d="M0,0L-6,0"></path><path transform="translate(40,161.60000000000002)" d="M0,0L-6,0"></path><path transform="translate(40,126.19999999999999)" d="M0,0L-6,0"></path><path transform="translate(40,90.80000000000001)" d="M0,0L-6,0"></path><path transform="translate(40,55.39999999999999)" d="M0,0L-6,0"></path><path transform="translate(40,20)" d="M0,0L-6,0"></path></g><g aria-label="y-axis tick label" text-anchor="end" font-family="HelveticaNeue-Light" font-size="8" font-variant="tabular-nums" transform="translate(-9,0)"><text y="0.32em" transform="translate(40,197)">0.0</text><text y="0.32em" transform="translate(40,161.60000000000002)">0.2</text><text y="0.32em" transform="translate(40,126.19999999999999)">0.4</text><text y="0.32em" transform="translate(40,90.80000000000001)">0.6</text><text y="0.32em" transform="translate(40,55.39999999999999)">0.8</text><text y="0.32em" transform="translate(40,20)">1.0</text></g><g aria-label="y-axis label" text-anchor="start" font-family="HelveticaNeue-Light" font-size="8" transform="translate(-10,-17)"><text y="0.71em" transform="translate(40,20)">↑ Probability of latency</text></g><g aria-label="x-axis tick" aria-hidden="true" fill="none" stroke="currentColor"><path transform="translate(72.33838383838383,197)" d="M0,0L0,6"></path><path transform="translate(106.37878787878788,197)" d="M0,0L0,6"></path><path transform="translate(140.41919191919192,197)" d="M0,0L0,6"></path><path transform="translate(174.45959595959596,197)" d="M0,0L0,6"></path><path transform="translate(208.5,197)" d="M0,0L0,6"></path></g><g aria-label="x-axis tick label" font-family="HelveticaNeue-Light" font-size="8" font-variant="tabular-nums" transform="translate(0,9)"><text y="0.71em" transform="translate(72.33838383838383,197)">20</text><text y="0.71em" transform="translate(106.37878787878788,197)">40</text><text y="0.71em" transform="translate(140.41919191919192,197)">60</text><text y="0.71em" transform="translate(174.45959595959596,197)">80</text><text y="0.71em" transform="translate(208.5,197)">100</text></g><g aria-label="x-axis label" text-anchor="end" font-family="HelveticaNeue-Light" font-size="8" transform="translate(17,27)"><text transform="translate(208.5,197)">Branch length (years)</text></g></g><text x="10" y="14" font-size="18" font-family="HelveticaNeue-Light">A</text></g><g transform="translate(228.5, 0)"><g transform="scale(1)"><style>:where(.plot-d6a7b5) {
  --plot-background: white;
  display: block;
  height: auto;
  height: intrinsic;
  max-width: 100%;
}
:where(.plot-d6a7b5 text),
:where(.plot-d6a7b5 tspan) {
  white-space: pre;
}</style><g aria-label="y-grid" aria-hidden="true" stroke="currentColor" stroke-opacity="0.1"><line x1="40" x2="208.5" y1="196.99999999999997" y2="196.99999999999997"></line><line x1="40" x2="208.5" y1="172.08529240821818" y2="172.08529240821818"></line><line x1="40" x2="208.5" y1="147.1705848164364" y2="147.1705848164364"></line><line x1="40" x2="208.5" y1="122.2558772246546" y2="122.2558772246546"></line><line x1="40" x2="208.5" y1="97.3411696328728" y2="97.3411696328728"></line><line x1="40" x2="208.5" y1="72.42646204109104" y2="72.42646204109104"></line><line x1="40" x2="208.5" y1="47.51175444930925" y2="47.51175444930925"></line><line x1="40" x2="208.5" y1="22.59704685752746" y2="22.59704685752746"></line></g><g aria-label="rule" stroke="currentColor"><line x1="40" x2="208.5" y1="196.99999999999997" y2="196.99999999999997"></line></g><g aria-label="line" fill="none" stroke-width="1.5" stroke-linejoin="round" stroke-linecap="round"><path stroke="#805882" d="M41.685,194.532L43.37,194.555L45.055,194.577L46.74,194.6L48.425,194.622L50.11,194.645L51.795,194.667L53.48,194.69L55.165,194.713L56.85,194.735L58.535,194.758L60.22,194.781L61.905,194.804L63.59,194.827L65.275,194.85L66.96,194.873L68.645,194.896L70.33,194.92L72.015,194.943L73.7,194.966L75.385,194.99L77.07,195.013L78.755,195.036L80.44,195.06L82.125,195.084L83.81,195.107L85.495,195.131L87.18,195.155L88.865,195.178L90.55,195.202L92.235,195.226L93.92,195.25L95.605,195.274L97.29,195.298L98.975,195.322L100.66,195.347L102.345,195.371L104.03,195.395L105.715,195.419L107.4,195.444L109.085,195.468L110.77,195.493L112.455,195.517L114.14,195.542L115.825,195.567L117.51,195.591L119.195,195.616L120.88,195.641L122.565,195.666L124.25,195.691L125.935,195.716L127.62,195.741L129.305,195.766L130.99,195.791L132.675,195.816L134.36,195.841L136.045,195.866L137.73,195.892L139.415,195.917L141.1,195.942L142.785,195.968L144.47,195.993L146.155,196.019L147.84,196.045L149.525,196.07L151.21,196.096L152.895,196.122L154.58,196.148L156.265,196.173L157.95,196.199L159.635,196.225L161.32,196.251L163.005,196.277L164.69,196.304L166.375,196.33L168.06,196.356L169.745,196.382L171.43,196.409L173.115,196.435L174.8,196.461L176.485,196.488L178.17,196.514L179.855,196.541L181.54,196.568L183.225,196.594L184.91,196.621L186.595,196.648L188.28,196.675L189.965,196.701L191.65,196.728L193.335,196.755L195.02,196.782L196.705,196.809L198.39,196.836L200.075,196.864L201.76,196.891L203.445,196.918L205.13,196.945L206.815,196.973L208.5,197"></path><path stroke=" #936310" d="M41.685,187.429L43.37,187.504L45.055,187.579L46.74,187.655L48.425,187.731L50.11,187.808L51.795,187.885L53.48,187.962L55.165,188.041L56.85,188.119L58.535,188.198L60.22,188.278L61.905,188.357L63.59,188.438L65.275,188.519L66.96,188.6L68.645,188.682L70.33,188.764L72.015,188.847L73.7,188.93L75.385,189.014L77.07,189.098L78.755,189.182L80.44,189.267L82.125,189.353L83.81,189.439L85.495,189.525L87.18,189.612L88.865,189.7L90.55,189.787L92.235,189.876L93.92,189.964L95.605,190.054L97.29,190.143L98.975,190.233L100.66,190.324L102.345,190.415L104.03,190.506L105.715,190.598L107.4,190.69L109.085,190.783L110.77,190.876L112.455,190.97L114.14,191.064L115.825,191.159L117.51,191.254L119.195,191.349L120.88,191.445L122.565,191.541L124.25,191.638L125.935,191.735L127.62,191.833L129.305,191.931L130.99,192.029L132.675,192.128L134.36,192.227L136.045,192.327L137.73,192.427L139.415,192.528L141.1,192.629L142.785,192.73L144.47,192.832L146.155,192.934L147.84,193.037L149.525,193.14L151.21,193.244L152.895,193.348L154.58,193.452L156.265,193.557L157.95,193.662L159.635,193.768L161.32,193.874L163.005,193.98L164.69,194.087L166.375,194.194L168.06,194.302L169.745,194.41L171.43,194.518L173.115,194.627L174.8,194.736L176.485,194.846L178.17,194.956L179.855,195.066L181.54,195.177L183.225,195.288L184.91,195.4L186.595,195.511L188.28,195.624L189.965,195.736L191.65,195.849L193.335,195.963L195.02,196.077L196.705,196.191L198.39,196.305L200.075,196.42L201.76,196.535L203.445,196.651L205.13,196.767L206.815,196.883L208.5,197"></path><path stroke="	#d43511" d="M41.685,149.168L43.37,149.307L45.055,149.453L46.74,149.606L48.425,149.766L50.11,149.933L51.795,150.107L53.48,150.289L55.165,150.477L56.85,150.673L58.535,150.876L60.22,151.087L61.905,151.304L63.59,151.529L65.275,151.762L66.96,152.001L68.645,152.248L70.33,152.503L72.015,152.764L73.7,153.034L75.385,153.31L77.07,153.594L78.755,153.885L80.44,154.184L82.125,154.49L83.81,154.804L85.495,155.125L87.18,155.454L88.865,155.789L90.55,156.133L92.235,156.484L93.92,156.842L95.605,157.208L97.29,157.581L98.975,157.961L100.66,158.349L102.345,158.744L104.03,159.147L105.715,159.557L107.4,159.974L109.085,160.399L110.77,160.831L112.455,161.27L114.14,161.717L115.825,162.171L117.51,162.632L119.195,163.1L120.88,163.576L122.565,164.058L124.25,164.548L125.935,165.045L127.62,165.549L129.305,166.06L130.99,166.577L132.675,167.102L134.36,167.634L136.045,168.173L137.73,168.718L139.415,169.27L141.1,169.829L142.785,170.395L144.47,170.967L146.155,171.546L147.84,172.131L149.525,172.723L151.21,173.322L152.895,173.926L154.58,174.537L156.265,175.155L157.95,175.778L159.635,176.408L161.32,177.044L163.005,177.685L164.69,178.333L166.375,178.987L168.06,179.646L169.745,180.311L171.43,180.982L173.115,181.658L174.8,182.34L176.485,183.027L178.17,183.72L179.855,184.418L181.54,185.121L183.225,185.829L184.91,186.542L186.595,187.26L188.28,187.983L189.965,188.711L191.65,189.443L193.335,190.18L195.02,190.921L196.705,191.667L198.39,192.417L200.075,193.171L201.76,193.929L203.445,194.691L205.13,195.457L206.815,196.227L208.5,197"></path><path stroke="	#73878c" d="M41.685,102.945L43.37,102.076L45.055,101.232L46.74,100.412L48.425,99.618L50.11,98.85L51.795,98.11L53.48,97.397L55.165,96.713L56.85,96.059L58.535,95.435L60.22,94.842L61.905,94.281L63.59,93.752L65.275,93.256L66.96,92.793L68.645,92.366L70.33,91.973L72.015,91.616L73.7,91.296L75.385,91.013L77.07,90.767L78.755,90.559L80.44,90.391L82.125,90.262L83.81,90.172L85.495,90.124L87.18,90.116L88.865,90.149L90.55,90.225L92.235,90.343L93.92,90.503L95.605,90.707L97.29,90.955L98.975,91.246L100.66,91.581L102.345,91.962L104.03,92.387L105.715,92.857L107.4,93.372L109.085,93.933L110.77,94.539L112.455,95.192L114.14,95.89L115.825,96.635L117.51,97.425L119.195,98.262L120.88,99.145L122.565,100.074L124.25,101.049L125.935,102.069L127.62,103.136L129.305,104.248L130.99,105.406L132.675,106.609L134.36,107.857L136.045,109.149L137.73,110.486L139.415,111.867L141.1,113.291L142.785,114.759L144.47,116.269L146.155,117.821L147.84,119.415L149.525,121.05L151.21,122.725L152.895,124.44L154.58,126.194L156.265,127.986L157.95,129.816L159.635,131.683L161.32,133.586L163.005,135.524L164.69,137.496L166.375,139.501L168.06,141.538L169.745,143.607L171.43,145.706L173.115,147.834L174.8,149.991L176.485,152.174L178.17,154.382L179.855,156.616L181.54,158.872L183.225,161.151L184.91,163.45L186.595,165.768L188.28,168.104L189.965,170.457L191.65,172.825L193.335,175.207L195.02,177.601L196.705,180.005L198.39,182.418L200.075,184.839L201.76,187.266L203.445,189.697L205.13,192.131L206.815,194.566L208.5,197"></path><path stroke="	#f6d292" d="M41.685,138.033L43.37,135.166L45.055,132.248L46.74,129.281L48.425,126.268L50.11,123.213L51.795,120.118L53.48,116.988L55.165,113.826L56.85,110.636L58.535,107.422L60.22,104.188L61.905,100.94L63.59,97.681L65.275,94.416L66.96,91.15L68.645,87.889L70.33,84.637L72.015,81.4L73.7,78.184L75.385,74.993L77.07,71.834L78.755,68.713L80.44,65.634L82.125,62.605L83.81,59.631L85.495,56.718L87.18,53.873L88.865,51.101L90.55,48.408L92.235,45.801L93.92,43.286L95.605,40.868L97.29,38.554L98.975,36.35L100.66,34.261L102.345,32.293L104.03,30.452L105.715,28.743L107.4,27.172L109.085,25.743L110.77,24.462L112.455,23.334L114.14,22.362L115.825,21.552L117.51,20.907L119.195,20.431L120.88,20.127L122.565,20L124.25,20.051L125.935,20.284L127.62,20.7L129.305,21.302L130.99,22.09L132.675,23.066L134.36,24.231L136.045,25.585L137.73,27.128L139.415,28.86L141.1,30.778L142.785,32.883L144.47,35.172L146.155,37.642L147.84,40.292L149.525,43.117L151.21,46.115L152.895,49.28L154.58,52.609L156.265,56.096L157.95,59.736L159.635,63.523L161.32,67.449L163.005,71.509L164.69,75.696L166.375,80L168.06,84.415L169.745,88.932L171.43,93.541L173.115,98.234L174.8,103.001L176.485,107.832L178.17,112.717L179.855,117.644L181.54,122.605L183.225,127.586L184.91,132.578L186.595,137.569L188.28,142.547L189.965,147.5L191.65,152.417L193.335,157.286L195.02,162.095L196.705,166.832L198.39,171.485L200.075,176.043L201.76,180.494L203.445,184.826L205.13,189.029L206.815,193.09L208.5,197"></path></g><g aria-label="text" font-family="HelveticaNeue-Light" font-size="8" font-weight="400" transform="translate(7,-3)"><text y="0.32em" transform="translate(41.685,194.532408438908)" fill="#805882">5 years</text><text y="0.32em" transform="translate(41.685,187.42932190535723)" fill=" #936310">10 years</text><text y="0.32em" transform="translate(41.685,149.16801800916605)" fill="	#d43511">25 years</text><text y="0.32em" transform="translate(87.18,90.11564633677088)" fill="	#73878c">50 years</text><text y="0.32em" transform="translate(122.565,20)" fill="	#f6d292">100 years</text></g><g aria-label="y-axis tick" aria-hidden="true" fill="none" stroke="currentColor"><path transform="translate(40,196.99999999999997)" d="M0,0L-6,0"></path><path transform="translate(40,134.7132310205455)" d="M0,0L-6,0"></path><path transform="translate(40,72.42646204109104)" d="M0,0L-6,0"></path></g><g aria-label="y-axis tick label" text-anchor="end" font-family="HelveticaNeue-Light" font-size="8" font-variant="tabular-nums" transform="translate(-9,0)"><text y="0.32em" transform="translate(40,196.99999999999997)">0.0</text><text y="0.32em" transform="translate(40,134.7132310205455)">0.5</text><text y="0.32em" transform="translate(40,72.42646204109104)">1.0</text></g><g aria-label="y-axis label" text-anchor="start" font-family="HelveticaNeue-Light" font-size="8" transform="translate(-10,-17)"><text y="0.71em" transform="translate(40,20)">↑ Density</text></g><g aria-label="x-axis tick" aria-hidden="true" fill="none" stroke="currentColor"><path transform="translate(40,197)" d="M0,0L0,6"></path><path transform="translate(73.7,197)" d="M0,0L0,6"></path><path transform="translate(107.4,197)" d="M0,0L0,6"></path><path transform="translate(141.1,197)" d="M0,0L0,6"></path><path transform="translate(174.8,197)" d="M0,0L0,6"></path><path transform="translate(208.5,197)" d="M0,0L0,6"></path></g><g aria-label="x-axis tick label" font-family="HelveticaNeue-Light" font-size="8" font-variant="tabular-nums" transform="translate(0,9)"><text y="0.71em" transform="translate(40,197)">0.0</text><text y="0.71em" transform="translate(73.7,197)">0.2</text><text y="0.71em" transform="translate(107.4,197)">0.4</text><text y="0.71em" transform="translate(141.1,197)">0.6</text><text y="0.71em" transform="translate(174.8,197)">0.8</text><text y="0.71em" transform="translate(208.5,197)">1.0</text></g><g aria-label="x-axis label" text-anchor="end" font-family="HelveticaNeue-Light" font-size="8" transform="translate(17,27)"><text transform="translate(208.5,197)">Proportion of branch in latency</text></g></g><text x="10" y="14" font-size="18" font-family="HelveticaNeue-Light">B</text></g></svg>