<svg xmlns="http://www.w3.org/2000/svg" width="457" height="227"><g transform="translate(0, 0)"><g transform="scale(0.9978165938864629)"><style>:where(.plot-d6a7b5) {
  --plot-background: white;
  display: block;
  height: auto;
  height: intrinsic;
  max-width: 100%;
}
:where(.plot-d6a7b5 text),
:where(.plot-d6a7b5 tspan) {
  white-space: pre;
}</style><g aria-label="geo" fill="none" stroke="currentColor" stroke-opacity="0.1" stroke-linejoin="round" stroke-linecap="round"><path d="M69.3,226.5L69.3,226.5L69.3,113.5L69.3,0.5M0.5,113.5L6.522,113.5L19.078,113.5L31.633,113.5L44.189,113.5L56.744,113.5L69.3,113.5L81.856,113.5L94.411,113.5L106.967,113.5L119.522,113.5L132.078,113.5L144.633,113.5L157.189,113.5L169.744,113.5L182.3,113.5L194.856,113.5L207.411,113.5L219.967,113.5L228.5,113.5M19.078,226.5L19.078,176.278L19.078,63.278L19.078,0.5M119.522,226.5L119.522,176.278L119.522,63.278L119.522,0.5M169.744,226.5L169.744,176.278L169.744,63.278L169.744,0.5M219.967,226.5L219.967,176.278L219.967,63.278L219.967,0.5M0.5,213.944L6.522,213.944L19.078,213.944L31.633,213.944L44.189,213.944L56.744,213.944L69.3,213.944L81.856,213.944L94.411,213.944L106.967,213.944L119.522,213.944L132.078,213.944L144.633,213.944L157.189,213.944L169.744,213.944L182.3,213.944L194.856,213.944L207.411,213.944L219.967,213.944L228.5,213.944M0.5,163.722L6.522,163.722L19.078,163.722L31.633,163.722L44.189,163.722L56.744,163.722L69.3,163.722L81.856,163.722L94.411,163.722L106.967,163.722L119.522,163.722L132.078,163.722L144.633,163.722L157.189,163.722L169.744,163.722L182.3,163.722L194.856,163.722L207.411,163.722L219.967,163.722L228.5,163.722M0.5,63.278L6.522,63.278L19.078,63.278L31.633,63.278L44.189,63.278L56.744,63.278L69.3,63.278L81.856,63.278L94.411,63.278L106.967,63.278L119.522,63.278L132.078,63.278L144.633,63.278L157.189,63.278L169.744,63.278L182.3,63.278L194.856,63.278L207.411,63.278L219.967,63.278L228.5,63.278M0.5,13.056L6.522,13.056L19.078,13.056L31.633,13.056L44.189,13.056L56.744,13.056L69.3,13.056L81.856,13.056L94.411,13.056L106.967,13.056L119.522,13.056L132.078,13.056L144.633,13.056L157.189,13.056L169.744,13.056L182.3,13.056L194.856,13.056L207.411,13.056L219.967,13.056L228.5,13.056"></path></g><g aria-label="geo" fill="lightgrey" stroke="black" stroke-linejoin="round" stroke-linecap="round"><path d="M188.855,69.975L192.688,72.168L189.271,70.213ZM217.06,143.334L218.055,146.249L220.966,149.054L218.055,146.241ZM141.358,226.5L140.907,224.546L138.954,222.481L136.35,218.324L133.711,212.306L132.626,209.152L128.54,204.247L128.232,200.397L127.762,197.235L128.449,192.823L130.185,188.224L130.456,186.065L132.083,181.543L133.277,179.477L136.151,176.196L137.779,173.96L138.303,170.237L138.032,167.39L136.531,165.596L135.193,162.553L133.964,159.535L134.235,158.498L135.772,156.501L134.253,151.655L133.222,148.289L130.709,145.11L131.179,144.133L130.474,142.577L129.136,138.803L125.014,133.482L119.861,128.415L116.534,124.267L113.479,119.082L113.642,117.416L114.745,115.809L115.956,112.154L116.968,108.431L116.028,107.666L117.764,102.03L118.487,98.069L116.534,94.745L114.238,93.895L113.226,91.643L111.924,90.92L111.996,89.534L106.771,91.345L104.873,91.082L102.938,92.204L98.924,92.093L96.23,88.948L94.585,85.318L91.023,82.012L87.245,82.071L82.815,82.063L78.675,82.649L74.625,83.72L66.742,86.661L63.957,88.387L59.437,89.84L54.953,88.412L52.675,88.472L49.168,87.486L45.949,87.545L40.001,88.421L36.512,89.866L31.54,91.711L30.563,91.583L29.243,91.626L24.072,89.228L19.516,85.412L15.231,82.658L11.85,79.419L10.494,79.045L6.878,77.022L4.275,74.336L3.389,72.5L2.774,68.785L0.568,65.818L0.5,65.749L0.5,0.5L228.5,0.5L228.5,226.5Z"></path></g><g aria-label="geo" fill="none" stroke="currentColor" stroke-opacity="0.5" stroke-linejoin="round" stroke-linecap="round"><path d="M131.179,144.133L133.259,143.461L134.705,143.555L136.477,142.951L151.303,143.019L152.532,146.759L153.979,149.768L155.136,151.392L157.052,154.019L160.379,153.619L162.024,152.913L164.809,153.619L165.568,152.361L166.815,149.437L169.925,149.241L170.196,148.366L172.764,148.349L172.33,150.159L178.423,150.117L178.513,153.279L179.526,155.217L178.785,158.243L179.164,161.329L180.846,163.19L180.574,169.166L181.804,168.707L183.992,168.835L187.101,168.078L189.398,168.376L189.922,169.94L189.343,172.371L190.229,174.726L189.488,176.613L189.922,178.338L179.454,178.279L179.218,194.259L182.618,198.365L185.89,201.502L176.669,203.55L164.501,202.845L161.03,200.431L140.672,200.652L139.912,201L136.911,198.731L133.656,198.586L130.655,199.436L128.232,200.397M129.136,138.803L131.161,136.635L132.68,135.785L134.56,137.511L132.734,138.565L131.921,139.857L131.758,142.05L130.474,142.577M78.675,82.649L77.427,79.189L77.662,67.654L76.65,66.617L76.451,64.152L74.715,62.393L73.178,60.914L73.811,58.27L75.547,57.7L76.559,55.507L79.018,55.031L80.121,53.535L81.802,52.065L83.61,52.048L87.443,54.938L87.245,56.612L88.366,59.588L87.389,61.611L87.914,62.962L85.473,66.073L83.918,67.612L82.978,70.774L83.104,73.97L82.815,82.063M73.811,58.27L69.418,58.159L67.103,57.76L65.476,58.576L63.252,58.21L54.538,58.44L54.411,61.296L55.098,65.07L51.663,63.778L49.312,63.965L47.559,65.232L45.299,64.169L44.413,62.512L42.153,61.415L41.827,58.499L43.201,56.374L43.075,54.674L47.07,50.509L47.812,47.066L49.186,45.842L51.609,46.514L53.706,45.494L54.393,44.202L58.298,41.949L59.256,40.385L63.939,38.294L66.705,37.58L67.971,38.549L71.189,38.524L70.792,40.955L71.461,43.241L74.281,46.522L74.444,48.954L80.229,50.093L80.121,53.535M192.688,72.168L195.436,74.2L195.473,75.832L198.854,78.45L200.951,80.618L202.216,83.635L205.977,85.624L206.773,87.214L205.127,87.749L201.909,87.63L198.13,87.103L196.25,87.537L195.509,88.752L193.881,88.905L191.893,87.843L186.306,90.351L184.01,89.84L183.323,90.231L181.822,93.266L178.079,92.289L174.409,91.787L171.209,89.934L167.069,88.234L164.375,89.849L162.422,92.399L161.97,95.901L158.752,95.621L155.353,94.779L152.351,97.44L149.712,102.115L149.187,100.653L148.97,98.366L146.674,96.751L144.812,94.159L144.396,92.357L142.009,89.73L142.425,88.234L141.919,86.117L142.299,82.224L143.51,81.315L146.041,76.223L150.182,75.849L151.122,74.557L151.954,74.65L153.201,75.789L159.529,73.868L161.663,71.913L164.284,70.154L163.778,68.385L165.188,67.926L170.052,68.232L174.771,65.912L178.405,60.429L180.954,58.397L184.136,57.539L184.697,59.69L187.59,62.826L187.608,64.875L186.794,66.966L187.119,68.53L188.855,69.975M30.563,91.583L30.961,87.443L31.431,86.814L31.286,84.834L29.153,82.734L27.562,82.394L26.097,81.017L27.182,78.79L26.676,76.359L26.911,74.897L27.707,74.897L28.014,72.704L27.616,71.735L28.104,71.038L29.967,70.434L28.719,66.413L27.562,64.331L27.978,62.631L28.972,62.24L29.623,61.781L31.015,62.537L34.902,62.58L35.825,61.118L36.692,61.211L38.139,60.642L38.916,62.792L40.091,62.163L42.153,61.415M55.098,65.07L56.436,72.219L54.321,76.435L53.001,82.105L55.188,86.432L54.953,88.412M149.712,102.115L149.35,104.827L145.372,103.637L141.304,102.311L134.976,102.115L134.343,101.843L131.378,102.489L128.323,101.818L125.936,102.141L117.764,102.03M111.996,89.534L113.28,85.981L115.667,81.136L117.131,81.085L120.114,78.152L122.013,78.067L124.833,80.133L128.287,78.441L128.757,76.35L129.896,74.327L130.673,71.786L133.349,69.72L134.362,66.201L135.428,65.079L136.133,62.469L137.471,59.265L141.702,55.38L141.955,53.714L142.516,52.804L140.527,50.807L140.69,49.209L142.1,48.92L144.107,52.133L144.432,55.465L144.251,58.805L146.981,63.37L144.179,63.319L142.769,63.676L140.473,63.166L139.388,65.538L142.353,68.47L144.541,69.32L145.246,71.403L146.819,74.863L146.041,76.223M206.773,87.214L209.828,91.362L212.07,91.966L213.426,91.124L215.74,91.456L218.543,90.393L219.736,92.535L224.148,95.876L223.858,101.75L225.865,102.43L224.256,104.215L222.322,105.549L220.405,108.167L219.338,110.496L219.067,114.534L217.892,116.447L217.856,120.238L216.409,121.64L216.229,124.624L215.542,125.015L215.071,127.761M216.644,136.1L216.337,130.039L215.071,127.761L218.127,128.152L219.664,125.296L222.322,125.619L222.611,127.599L223.696,128.738L223.75,130.37L222.502,131.424L220.55,134.043L218.724,135.862L216.644,136.1L217.548,140.724L217.06,143.334M220.966,149.054L223.678,155.387L221.707,154.877L214.963,155.719L213.607,156.322L212.179,159.527L213.3,161.745L212.414,167.687L211.799,172.728L213.155,173.62L216.663,175.576L218.037,174.666L218.452,180.081L214.619,180.038L212.558,177.276L210.696,175.134L206.845,174.437L205.724,171.801L202.65,173.391L198.637,172.685L196.955,170.407L193.773,169.94L191.405,170.067L191.133,168.503L189.398,168.376M134.56,137.511L135.88,138.021L137.598,136.1L140.346,136.151L140.653,137.57L142.534,138.463L145.499,135.318L148.41,132.861L149.694,131.254L149.513,127.123L151.7,122.244L153.997,119.66L157.305,117.237L157.884,115.631L158.01,113.795L158.824,112.052L158.571,109.204L159.186,104.75L160.18,101.622L161.681,98.936L161.97,95.901M125.014,133.482L128.847,130.71L126.949,127.387L128.666,126.129L132.047,125.508L132.463,123.29L135.139,125.695L139.569,125.908L141.105,123.536L141.756,120.195L141.196,116.277L138.827,113.302L140.997,107.487L139.749,106.493L136.007,106.901L134.597,104.308L134.976,102.115M120.798,0.5L112.358,5.193L97.821,15.062L90.734,17.298L85.165,17.791L85.111,14.595L82.779,13.779L79.651,12.342L78.458,9.988L63.788,0.5M228.5,3.009L215.053,3.009L194.858,3.009L194.858,0.5M116.968,108.431L118.668,108.133L125.972,108.184L125.936,102.141M69.418,58.159L69.056,59.724L71.153,62.316L71.135,65.963L71.623,69.924L72.871,71.752L71.768,76.274L72.166,78.773L73.504,81.961L74.625,83.72M26.911,74.897L25.501,74.769L24.47,76.792L23.06,76.767L22.066,75.696L22.409,73.681L20.312,70.604L18.992,71.174L17.925,71.284L16.533,71.573L16.587,69.729L15.792,68.411L15.954,66.957L14.87,64.841L13.459,63.047L9.446,63.039L8.27,63.991L6.896,64.101L6.028,65.189L5.45,66.575L2.774,68.785M0.5,50.288L2.919,50.339L6.535,51.563L7.638,51.453L8.017,50.892L10.747,51.291L11.471,51.011L11.76,52.847L12.555,52.838L13.875,52.175L14.707,52.337L16.099,53.612L18.251,54.02L19.625,52.932L21.252,52.26L22.463,51.555L23.458,51.682L24.579,52.787L25.175,54.173L27.236,56.281L26.206,57.573L26.007,59.205L27.074,58.712L27.707,59.299L27.435,60.795L28.972,62.24M11.85,79.419L13.044,77.812L13.315,76.35L15.593,73.63L17.925,71.284M194.858,3.009L194.858,13.039L189.072,13.056L189.018,15.164L168.985,5.55L158.471,0.5M140.411,0.5L140.328,0.544L140.283,0.5M11.471,51.011L11.706,49.447L11.272,47.5L9.391,46.089L8.415,43.216L8.18,40.088L9.861,39.178L10.711,36.22L12.302,36.101L15.81,37.503L18.648,36.509L20.583,36.84L21.342,35.727L41.484,35.65L42.605,32.131L41.737,31.511L39.314,9.835L38.271,0.5M90.734,17.298L90.752,28.867L88.004,32.216L87.57,35.31L83.104,36.109L76.252,36.543L74.408,38.328L71.189,38.524M226.38,226.5L225.956,225.252L228.5,222.503M228.5,194.584L228.18,194.217L225.865,193.154L221.671,193.256L221.345,191.386L220.875,187.808L228.5,185.737M8.18,40.088L4.853,36.645L1.816,32.947L0.5,32.419M0.5,6.385L4.365,6.392L3.586,0.5M185.89,201.502L190.012,200.363L193.267,200.652L195.237,201.782L195.274,202.199M144.177,0.5L145.119,6.486L147,7.786L147.072,9.384L149.169,11.11L148.084,13.269L146.15,23.461L145.879,29.998L139.478,34.732L137.309,41.346L139.388,43.207L139.388,46.437L142.606,46.548L142.1,48.92M140.527,50.807L139.587,50.917L136.188,45.417L135.012,45.213L131.089,48.027L127.202,46.556L124.49,46.267L123.043,46.973L120.096,46.82L117.131,48.962L114.582,49.081L108.489,46.488L106.12,47.721L103.553,47.636L101.673,45.74L96.628,43.862L91.24,44.457L89.939,45.545L89.233,48.435L87.787,50.458L87.443,54.938M217.856,120.238L219.067,120.748L222.068,119.201L224.057,122.032L223.768,124.99L222.322,125.619M228.5,61.717L226.769,64.229L224.166,64.747L219.953,61.815L218.055,62.852L217.53,64.314L214.945,65.266L214.782,66.303L209.774,66.303L209.087,65.266L205.471,65.096L203.663,65.954L202.271,65.521L199.685,62.597L198.817,61.211L195.201,61.9L193.827,64.229L192.525,68.717L190.808,69.661L189.271,70.213M184.136,57.539L184.191,56.323L182.346,54.844L182.292,51.929L181.243,49.991L179.472,50.28L179.978,48.435L181.28,46.344L180.701,44.261L182.364,42.723L181.316,41.55L182.636,38.447L184.932,34.749L189.271,35.098L189.018,15.164M228.5,95.309L226.227,94.507L224.148,95.876M228.5,157.694L227.782,157.504L225.775,156.662L223.678,155.387M222.068,119.201L223.84,118.597L228.5,118.648M217.115,224.444L213.164,226.5M169.22,226.5L169.22,223.229L174.174,223.059L174.319,205.165L178.061,205.004L185.8,203.244L187.716,205.31L190.916,203.346L192.453,203.329L195.274,202.199L196.178,202.573L198.112,206.594L199.125,207.486L200.698,210.393L206.393,215.91L208.545,216.454L208.545,218.222L210.027,221.41L213.914,222.175L217.115,224.444L219.158,224.504L221.58,225.354L223.28,224.75L225.956,225.252M221.345,191.386L217.548,192.075L214.674,194.072L214.077,195.815L212.269,196.206L207.912,200.337L205.127,203.593L203.428,203.703L201.801,203.125L196.178,202.573"></path></g><g aria-label="dot" fill="black"><circle cx="180.921284488889" cy="99.31127302222217" r="4"></circle><circle cx="166.47815182222223" cy="98.5674768888889" r="4"></circle><circle cx="130.57111111111124" cy="114.4190666666666" r="4"></circle><circle cx="163.79971031111108" cy="138.81271315555557" r="4"></circle><circle cx="135.14535111111115" cy="109.7343377777778" r="4"></circle><circle cx="129.31155284444446" cy="113.9707278666666" r="4"></circle><circle cx="140.38925422222235" cy="109.9826314222222" r="4"></circle><circle cx="143.107306" cy="111.34794764444439" r="4"></circle><circle cx="176.82743511111119" cy="139.8212205777778" r="4"></circle><circle cx="176.82743511111119" cy="139.8212205777778" r="4"></circle><circle cx="18.769664444444516" cy="70.22010102222214" r="4"></circle><circle cx="174.18679084444454" cy="114.92723519999993" r="4"></circle><circle cx="189.26741426666672" cy="96.60842351111114" r="4"></circle><circle cx="160.40361835555564" cy="117.17361493333328" r="4"></circle><circle cx="216.49993213333335" cy="110.46107844444441" r="4"></circle><circle cx="161.04154604444454" cy="113.3173618666666" r="4"></circle><circle cx="161.04154604444454" cy="113.3173618666666" r="4"></circle><circle cx="161.04154604444454" cy="113.3173618666666" r="4"></circle><circle cx="178.1697806512202" cy="136.36399587210667" r="4"></circle></g><g aria-label="dot"><circle cx="180.921284488889" cy="99.31127302222217" r="3" fill="#f4dc2a"></circle><circle cx="166.47815182222223" cy="98.5674768888889" r="3" fill="#f4dc2a"></circle><circle cx="130.57111111111124" cy="114.4190666666666" r="3" fill="	#6b7a1f"></circle><circle cx="163.79971031111108" cy="138.81271315555557" r="3" fill=" #071455"></circle><circle cx="135.14535111111115" cy="109.7343377777778" r="3" fill="	#6b7a1f"></circle><circle cx="129.31155284444446" cy="113.9707278666666" r="3" fill="	#6b7a1f"></circle><circle cx="140.38925422222235" cy="109.9826314222222" r="3" fill="#6cabb4"></circle><circle cx="143.107306" cy="111.34794764444439" r="3" fill="#6cabb4"></circle><circle cx="176.82743511111119" cy="139.8212205777778" r="3" fill="	#f6d292"></circle><circle cx="176.82743511111119" cy="139.8212205777778" r="3" fill="	#f6d292"></circle><circle cx="18.769664444444516" cy="70.22010102222214" r="3" fill="	#73878c"></circle><circle cx="174.18679084444454" cy="114.92723519999993" r="3" fill=" #936310"></circle><circle cx="189.26741426666672" cy="96.60842351111114" r="3" fill="	#d43511"></circle><circle cx="160.40361835555564" cy="117.17361493333328" r="3" fill=" #936310"></circle><circle cx="216.49993213333335" cy="110.46107844444441" r="3" fill="	#d43511"></circle><circle cx="161.04154604444454" cy="113.3173618666666" r="3" fill=" #936310"></circle><circle cx="161.04154604444454" cy="113.3173618666666" r="3" fill=" #936310"></circle><circle cx="161.04154604444454" cy="113.3173618666666" r="3" fill=" #936310"></circle><circle cx="178.1697806512202" cy="136.36399587210667" r="3" fill="#805882"></circle></g><g aria-label="text" text-anchor="end" font-family="HelveticaNeue-Light" font-size="6" font-weight="800" transform="translate(-4,0)"><text y="0.32em" transform="translate(166.47815182222223,98.5674768888889)">Sud-Ubangi/1977</text></g><g aria-label="text" text-anchor="end" font-family="HelveticaNeue-Light" font-size="6" font-weight="800" transform="translate(-4,0)"><text y="0.32em" transform="translate(216.49993213333335,110.46107844444441)">Kivu/2018</text></g><g aria-label="text" text-anchor="start" font-family="HelveticaNeue-Light" font-size="6" font-weight="800" transform="translate(0,6)"><text y="0.32em" transform="translate(174.18679084444454,114.92723519999993)">Tshuapa/2014</text></g></g><text x="10" y="30" font-size="18" font-family="HelveticaNeue-Light">A</text></g><g transform="translate(228.5, 0)"><g transform="scale(0.9978165938864629)"><g><g transform="translate(45,45)"><g class="node-layer"><circle class="node-shape" r="20" fill="lightgrey" cx="75.1762898923301" cy="81.24774824300631"></circle></g><g class="branch-layer"><path d="M 49.06750880374124 97.2354794019525 C49.06750880374124,97.2354794019525 38.096661057101535,94.6710287782428 38.096661057101535,94.6710287782428 C38.096661057101535,94.6710287782428 32.61123718378168,93.38880346638794 29.868525247121752,92.74769081046051 C29.868525247121752,92.74769081046051 28.497169278791787,92.4271344824968 27.811491294626805,92.26685631851494 C27.811491294626805,92.26685631851494 27.468652302544314,92.186717236524 27.297232806503068,92.14664769552854 C27.297232806503068,92.14664769552854 27.21152305848245,92.12661292503081 27.16866818447214,92.11659553978194 C27.16866818447214,92.11659553978194 27.125813310461826,92.10657815453308 27.125813310461826,92.10657815453308 " fill="none" stroke="black" stroke-width="1"></path><path d="M 27.125813310461826 92.10657815453308 C27.125813310461826,92.10657815453308 14.062906655230913,92.184309617222 14.062906655230913,92.184309617222 C14.062906655230913,92.184309617222 7.5314533276154565,92.22317534856646 4.265726663807728,92.24260821423869 C4.265726663807728,92.24260821423869 2.632863331903864,92.2523246470748 1.816431665951932,92.25718286349286 C1.816431665951932,92.25718286349286 1.408215832975966,92.2596119717019 1.2041079164879829,92.26082652580641 C1.2041079164879829,92.26082652580641 1.1020539582439914,92.26143380285868 1.0510269791219957,92.26173744138481 C1.0510269791219957,92.26173744138481 1,92.26204107991093 1,92.26204107991093 " fill="none" stroke="black" stroke-width="1"></path><path d="M 50.14963064639491 97.82150105431113 C50.14963064639491,97.82150105431113 49.60856972506808,97.52849022813182 49.60856972506808,97.52849022813182 C49.60856972506808,97.52849022813182 49.33803926440466,97.38198481504216 49.202774034072945,97.30873210849734 C49.202774034072945,97.30873210849734 49.1351414189071,97.27210575522491 49.10132511132417,97.2537925785887 C49.10132511132417,97.2537925785887 49.08441695753271,97.24463599027061 49.07596288063698,97.24005769611156 C49.07596288063698,97.24005769611156 49.07173584218911,97.23776854903204 49.069622322965174,97.23662397549228 C49.069622322965174,97.23662397549228 49.06750880374124,97.2354794019525 49.06750880374124,97.2354794019525 " fill="none" stroke="black" stroke-width="1"></path><path d="M 65.95781423895453 87.35262765478373 C65.95781423895453,87.35262765478373 58.05372244267472,92.58706435454744 58.05372244267472,92.58706435454744 C58.05372244267472,92.58706435454744 54.10167654453481,95.20428270442929 52.12565359546486,96.51289187937022 C52.12565359546486,96.51289187937022 51.13764212092988,97.16719646684066 50.6436363836624,97.49434876057589 C50.6436363836624,97.49434876057589 50.396633515028654,97.65792490744352 50.27313208071178,97.73971298087733 C50.27313208071178,97.73971298087733 50.21138136355334,97.78060701759424 50.18050600497413,97.80105403595269 C50.18050600497413,97.80105403595269 50.14963064639491,97.82150105431113 50.14963064639491,97.82150105431113 " fill="none" stroke="black" stroke-width="1"></path><path d="M 50.14963064639491 97.82150105431113 C50.14963064639491,97.82150105431113 51.630739352941774,105.38965672437814 51.630739352941774,105.38965672437814 C51.630739352941774,105.38965672437814 52.3712937062152,109.17373455941166 52.74157088285192,111.06577347692841 C52.74157088285192,111.06577347692841 52.92670947117027,112.0117929356868 53.019278765329446,112.48480266506598 C53.019278765329446,112.48480266506598 53.065563412409034,112.72130752975558 53.088705735948835,112.83955996210037 C53.088705735948835,112.83955996210037 53.10027689771873,112.89868617827277 53.106062478603675,112.92824928635898 C53.106062478603675,112.92824928635898 53.11184805948863,112.95781239444517 53.11184805948863,112.95781239444517 " fill="none" stroke="black" stroke-width="1"></path><path d="M 53.11184805948863 112.95781239444517 C53.11184805948863,112.95781239444517 53.6793809372254,114.08092600812304 53.6793809372254,114.08092600812304 C53.6793809372254,114.08092600812304 53.963147376093794,114.642482814962 54.10503059552799,114.92326121838147 C54.10503059552799,114.92326121838147 54.17597220524509,115.0636504200912 54.211443010103636,115.13384502094607 C54.211443010103636,115.13384502094607 54.22917841253291,115.16894232137349 54.238046113747544,115.1864909715872 C54.238046113747544,115.1864909715872 54.242479964354864,115.19526529669406 54.24469688965853,115.19965245924749 C54.24469688965853,115.19965245924749 54.246913814962184,115.20403962180093 54.246913814962184,115.20403962180093 " fill="none" stroke="black" stroke-width="1"></path><path d="M 54.246913814962184 115.20403962180093 C54.246913814962184,115.20403962180093 53.92692801825469,115.92283479928005 53.92692801825469,115.92283479928005 C53.92692801825469,115.92283479928005 53.76693511990095,116.28223238801962 53.686938670724075,116.4619311823894 C53.686938670724075,116.4619311823894 53.64694044613564,116.55178057957428 53.626941333841415,116.59670527816672 C53.626941333841415,116.59670527816672 53.61694177769431,116.61916762746296 53.611941999620754,116.63039880211107 C53.611941999620754,116.63039880211107 53.60944211058398,116.63601438943513 53.60819216606559,116.63882218309715 C53.60819216606559,116.63882218309715 53.6069422215472,116.64162997675918 53.6069422215472,116.64162997675918 " fill="none" stroke="black" stroke-width="1"></path><path d="M 53.6069422215472 116.64162997675918 C53.6069422215472,116.64162997675918 50.98454495122837,118.71303506347267 50.98454495122837,118.71303506347267 C50.98454495122837,118.71303506347267 49.67334631606896,119.74873760682942 49.01774699848926,120.2665888785078 C49.01774699848926,120.2665888785078 48.6899473396994,120.52551451434698 48.52604751030448,120.65497733226658 C48.52604751030448,120.65497733226658 48.44409759560702,120.71970874122638 48.40312263825828,120.75207444570628 C48.40312263825828,120.75207444570628 48.38263515958391,120.76825729794623 48.37239142024673,120.7763487240662 C48.37239142024673,120.7763487240662 48.36214768090955,120.78444015018617 48.36214768090955,120.78444015018617 " fill="none" stroke="black" stroke-width="1"></path><path d="M 48.36214768090955 120.78444015018617 C48.36214768090955,120.78444015018617 40.84406450272837,124.71420815213673 40.84406450272837,124.71420815213673 C40.84406450272837,124.71420815213673 37.08502291363778,126.67909215311201 35.205502119092486,127.66153415359965 C35.205502119092486,127.66153415359965 34.265741721819836,128.15275515384346 33.79586152318351,128.39836565396536 C33.79586152318351,128.39836565396536 33.56092142386535,128.52117090402632 33.44345137420627,128.5825735290568 C33.44345137420627,128.5825735290568 33.38471634937673,128.61327484157204 33.35534883696196,128.62862549782966 C33.35534883696196,128.62862549782966 33.325981324547186,128.64397615408728 33.325981324547186,128.64397615408728 " fill="none" stroke="black" stroke-width="1"></path><path d="M 33.325981324547186 128.64397615408728 C33.325981324547186,128.64397615408728 30.97460697383024,129.41806938709442 30.97460697383024,129.41806938709442 C30.97460697383024,129.41806938709442 29.798919798471772,129.80511600359802 29.211076210792534,129.9986393118498 C29.211076210792534,129.9986393118498 28.91715441695292,130.09540096597567 28.77019352003311,130.1437817930386 C28.77019352003311,130.1437817930386 28.696713071573207,130.16797220657008 28.659972847343255,130.18006741333585 C28.659972847343255,130.18006741333585 28.641602735228275,130.1861150167187 28.632417679170786,130.18913881841013 C28.632417679170786,130.18913881841013 28.6232326231133,130.19216262010158 28.6232326231133,130.19216262010158 " fill="none" stroke="black" stroke-width="1"></path><path d="M 33.325981324547186 128.64397615408728 C33.325981324547186,128.64397615408728 33.21438945322259,128.73376831300297 33.21438945322259,128.73376831300297 C33.21438945322259,128.73376831300297 33.15859351756029,128.77866439246083 33.13069554972914,128.80111243218974 C33.13069554972914,128.80111243218974 33.116746565813564,128.81233645205418 33.10977207385578,128.81794846198642 C33.10977207385578,128.81794846198642 33.106284827876884,128.82075446695254 33.10454120488744,128.82215746943558 C33.10454120488744,128.82215746943558 33.103669393392714,128.82285897067712 33.103233487645355,128.82320972129787 C33.103233487645355,128.82320972129787 33.10279758189799,128.82356047191865 33.10279758189799,128.82356047191865 " fill="none" stroke="black" stroke-width="1"></path><path d="M 48.36214768090955 120.78444015018617 C48.36214768090955,120.78444015018617 46.76299065741263,124.63634270835286 46.76299065741263,124.63634270835286 C46.76299065741263,124.63634270835286 45.963412145664165,126.56229398743619 45.56362288978993,127.52526962697786 C45.56362288978993,127.52526962697786 45.36372826185281,128.00675744674868 45.26378094788426,128.2475013566341 C45.26378094788426,128.2475013566341 45.21380729089998,128.36787331157683 45.18882046240784,128.42805928904818 C45.18882046240784,128.42805928904818 45.17632704816177,128.45815227778385 45.170080341038734,128.4731987721517 C45.170080341038734,128.4731987721517 45.1638336339157,128.48824526651953 45.1638336339157,128.48824526651953 " fill="none" stroke="black" stroke-width="1"></path><path d="M 53.6069422215472 116.64162997675918 C53.6069422215472,116.64162997675918 56.12273756691517,121.21702459104173 56.12273756691517,121.21702459104173 C56.12273756691517,121.21702459104173 57.38063523959916,123.504721898183 58.00958407594115,124.64857055175364 C58.00958407594115,124.64857055175364 58.324058494112144,125.22049487853896 58.481295703197645,125.50645704193161 C58.481295703197645,125.50645704193161 58.55991430774039,125.64943812362795 58.59922361001176,125.7209286644761 C58.59922361001176,125.7209286644761 58.61887826114745,125.75667393490019 58.6287055867153,125.77454657011224 C58.6287055867153,125.77454657011224 58.63853291228314,125.79241920532428 58.63853291228314,125.79241920532428 " fill="none" stroke="black" stroke-width="1"></path><path d="M 58.63853291228314 125.79241920532428 C58.63853291228314,125.79241920532428 59.73507050384856,131.39620960266214 59.73507050384856,131.39620960266214 C59.73507050384856,131.39620960266214 60.28333929963127,134.19810480133106 60.557473697522624,135.59905240066553 C60.557473697522624,135.59905240066553 60.694540896468304,136.29952620033276 60.76307449594114,136.64976310016638 C60.76307449594114,136.64976310016638 60.79734129567756,136.8248815500832 60.81447469554577,136.9124407750416 C60.81447469554577,136.9124407750416 60.823041395479876,136.9562203875208 60.82732474544693,136.97811019376041 C60.82732474544693,136.97811019376041 60.83160809541398,137 60.83160809541398,137 " fill="none" stroke="black" stroke-width="1"></path><path d="M 58.63853291228314 125.79241920532428 C58.63853291228314,125.79241920532428 62.35221473366652,129.6729070671486 62.35221473366652,129.6729070671486 C62.35221473366652,129.6729070671486 64.20905564435822,131.61315099806075 65.13747609970406,132.58327296351683 C65.13747609970406,132.58327296351683 65.60168632737698,133.06833394624488 65.83379144121344,133.3108644376089 C65.83379144121344,133.3108644376089 65.94984399813167,133.4321296832909 66.00787027659078,133.4927623061319 C66.00787027659078,133.4927623061319 66.03688341582034,133.52307861755241 66.05138998543512,133.53823677326267 C66.05138998543512,133.53823677326267 66.0658965550499,133.55339492897292 66.0658965550499,133.55339492897292 " fill="none" stroke="black" stroke-width="1"></path><path d="M 54.246913814962184 115.20403962180093 C54.246913814962184,115.20403962180093 67.38757514301163,117.96785504721325 67.38757514301163,117.96785504721325 C67.38757514301163,117.96785504721325 73.95790580703635,119.3497627599194 77.24307113904871,120.04071661627248 C77.24307113904871,120.04071661627248 78.88565380505489,120.38619354444901 79.70694513805799,120.55893200853728 C79.70694513805799,120.55893200853728 80.11759080455954,120.64530124058143 80.3229136378103,120.6884858566035 C80.3229136378103,120.6884858566035 80.42557505443568,120.71007816461454 80.47690576274837,120.72087431862005 C80.47690576274837,120.72087431862005 80.52823647106108,120.73167047262557 80.52823647106108,120.73167047262557 " fill="none" stroke="black" stroke-width="1"></path><path d="M 80.52823647106108 120.73167047262557 C80.52823647106108,120.73167047262557 82.55505207117011,121.4529305265246 82.55505207117011,121.4529305265246 C82.55505207117011,121.4529305265246 83.56845987122463,121.81356055347412 84.0751637712519,121.99387556694887 C84.0751637712519,121.99387556694887 84.32851572126552,122.08403307368626 84.45519169627234,122.12911182705494 C84.45519169627234,122.12911182705494 84.51852968377574,122.15165120373929 84.55019867752745,122.16292089208147 C84.55019867752745,122.16292089208147 84.5660331744033,122.16855573625256 84.57395042284122,122.1713731583381 C84.57395042284122,122.1713731583381 84.58186767127916,122.17419058042364 84.58186767127916,122.17419058042364 " fill="none" stroke="black" stroke-width="1"></path><path d="M 84.58186767127916 122.17419058042364 C84.58186767127916,122.17419058042364 87.06951764917761,123.53980648225871 87.06951764917761,123.53980648225871 C87.06951764917761,123.53980648225871 88.31334263812684,124.22261443317623 88.93525513260145,124.56401840863501 C88.93525513260145,124.56401840863501 89.24621137983877,124.7347203963644 89.40168950345742,124.82007139022909 C89.40168950345742,124.82007139022909 89.47942856526674,124.86274688716142 89.5182980961714,124.8840846356276 C89.5182980961714,124.8840846356276 89.53773286162374,124.89475350986069 89.5474502443499,124.90008794697724 C89.5474502443499,124.90008794697724 89.55716762707607,124.90542238409377 89.55716762707607,124.90542238409377 " fill="none" stroke="black" stroke-width="1"></path><path d="M 84.58186767127916 122.17419058042364 C84.58186767127916,122.17419058042364 87.19463156659945,122.70851065713416 87.19463156659945,122.70851065713416 C87.19463156659945,122.70851065713416 88.5010135142596,122.97567069548941 89.15420448808968,123.10925071466704 C89.15420448808968,123.10925071466704 89.48079997500471,123.17604072425586 89.64409771846223,123.20943572905026 C89.64409771846223,123.20943572905026 89.725746590191,123.22613323144746 89.76657102605537,123.23448198264606 C89.76657102605537,123.23448198264606 89.78698324398756,123.23865635824536 89.79718935295367,123.24074354604502 C89.79718935295367,123.24074354604502 89.80739546191975,123.24283073384467 89.80739546191975,123.24283073384467 " fill="none" stroke="black" stroke-width="1"></path><path d="M 80.52823647106108 120.73167047262557 C80.52823647106108,120.73167047262557 87.83508578177126,120.46369352585775 87.83508578177126,120.46369352585775 C87.83508578177126,120.46369352585775 91.48851043712635,120.32970505247384 93.3152227648039,120.26271081578189 C93.3152227648039,120.26271081578189 94.22857892864268,120.22921369743591 94.68525701056205,120.21246513826293 C94.68525701056205,120.21246513826293 94.91359605152175,120.20409085867644 95.0277655720016,120.19990371888318 C95.0277655720016,120.19990371888318 95.08485033224153,120.19781014898655 95.11339271236149,120.19676336403825 C95.11339271236149,120.19676336403825 95.14193509248145,120.19571657908993 95.14193509248145,120.19571657908993 " fill="none" stroke="black" stroke-width="1"></path><path d="M 53.11184805948863 112.95781239444517 C53.11184805948863,112.95781239444517 42.13697193245542,114.65778551068334 42.13697193245542,114.65778551068334 C42.13697193245542,114.65778551068334 36.64953386893881,115.50777206880242 33.90581483718051,115.93276534786196 C33.90581483718051,115.93276534786196 32.533955321301356,116.14526198739173 31.84802556336178,116.25151030715662 C31.84802556336178,116.25151030715662 31.505060684391992,116.30463446703907 31.333578244907095,116.3311965469803 C31.333578244907095,116.3311965469803 31.24783702516465,116.3444775869509 31.204966415293427,116.35111810693621 C31.204966415293427,116.35111810693621 31.1620958054222,116.35775862692151 31.1620958054222,116.35775862692151 " fill="none" stroke="black" stroke-width="1"></path><path d="M 65.95781423895453 87.35262765478373 C65.95781423895453,87.35262765478373 70.56705206564232,84.30018794889503 70.56705206564232,84.30018794889503 C70.56705206564232,84.30018794889503 72.8716709789862,82.77396809595066 74.02398043565816,82.0108581694785 C74.02398043565816,82.0108581694785 74.60013516399414,81.62930320624241 74.88821252816211,81.43852572462436 C74.88821252816211,81.43852572462436 75.0322512102461,81.34313698381533 75.1042705512881,81.29544261341081 C75.1042705512881,81.29544261341081 75.14028022180909,81.27159542820857 75.1582850570696,81.25967183560743 C75.1582850570696,81.25967183560743 75.1762898923301,81.24774824300631 75.1762898923301,81.24774824300631 " fill="none" stroke="black" stroke-width="1"></path><path d="M 75.1762898923301 81.24774824300631 C75.1762898923301,81.24774824300631 105.02505269898884,75.4378165800361 105.02505269898884,75.4378165800361 C105.02505269898884,75.4378165800361 119.94943410231821,72.53285074855098 127.41162480398289,71.08036783280843 C127.41162480398289,71.08036783280843 131.14272015481524,70.35412637493715 133.0082678302314,69.99100564600151 C133.0082678302314,69.99100564600151 133.9410416679395,69.8094452815337 134.40742858679351,69.71866509929978 C134.40742858679351,69.71866509929978 134.64062204622053,69.67327500818283 134.75721877593406,69.65057996262435 C134.75721877593406,69.65057996262435 134.87381550564757,69.62788491706587 134.87381550564757,69.62788491706587 " fill="none" stroke="black" stroke-width="1"></path><path d="M 134.87381550564757 69.62788491706587 C134.87381550564757,69.62788491706587 136.4369077528238,69.50431130191598 136.4369077528238,69.50431130191598 C136.4369077528238,69.50431130191598 137.2184538764119,69.44252449434103 137.60922693820595,69.41163109055356 C137.60922693820595,69.41163109055356 137.80461346910297,69.39618438865982 137.90230673455147,69.38846103771294 C137.90230673455147,69.38846103771294 137.95115336727574,69.38459936223951 137.97557668363788,69.3826685245028 C137.97557668363788,69.3826685245028 137.98778834181894,69.38170310563444 137.99389417090947,69.38122039620026 C137.99389417090947,69.38122039620026 138,69.38073768676608 138,69.38073768676608 " fill="none" stroke="black" stroke-width="1"></path><path d="M 134.87381550564757 69.62788491706587 C134.87381550564757,69.62788491706587 135.04668243677267,69.57178930961905 135.04668243677267,69.57178930961905 C135.04668243677267,69.57178930961905 135.13311590233522,69.54374150589564 135.1763326351165,69.52971760403392 C135.1763326351165,69.52971760403392 135.19794100150713,69.52270565310306 135.20874518470245,69.51919967763763 C135.20874518470245,69.51919967763763 135.2141472763001,69.51744668990492 135.21684832209894,69.51657019603857 C135.21684832209894,69.51657019603857 135.21819884499837,69.51613194910539 135.21887410644808,69.5159128256388 C135.21887410644808,69.5159128256388 135.21954936789777,69.51569370217221 135.21954936789777,69.51569370217221 " fill="none" stroke="black" stroke-width="1"></path><path d="M 75.1762898923301 81.24774824300631 C75.1762898923301,81.24774824300631 75.58990073069174,80.64958016885686 75.58990073069174,80.64958016885686 C75.58990073069174,80.64958016885686 75.79670614987255,80.35049613178212 75.90010885946296,80.20095411324476 C75.90010885946296,80.20095411324476 75.95181021425816,80.12618310397608 75.97766089165576,80.08879759934173 C75.97766089165576,80.08879759934173 75.99058623035455,80.07010484702457 75.99704889970396,80.06075847086598 C75.99704889970396,80.06075847086598 76.00028023437866,80.05608528278668 76.00189590171601,80.05374868874704 C76.00189590171601,80.05374868874704 76.00351156905336,80.05141209470739 76.00351156905336,80.05141209470739 " fill="none" stroke="black" stroke-width="1"></path><path d="M 76.00351156905336 80.05141209470739 C76.00351156905336,80.05141209470739 96.58952359127497,60.85536898565964 96.58952359127497,60.85536898565964 C96.58952359127497,60.85536898565964 106.88252960238577,51.257347431135756 112.02903260794118,46.458336653873815 C112.02903260794118,46.458336653873815 114.60228411071887,44.058831265242844 115.88890986210772,42.859078570927366 C115.88890986210772,42.859078570927366 116.53222273780216,42.25920222376962 116.85387917564937,41.959264050190754 C116.85387917564937,41.959264050190754 117.01470739457298,41.809294963401314 117.09512150403478,41.734310420006594 C117.09512150403478,41.734310420006594 117.17553561349658,41.65932587661188 117.17553561349658,41.65932587661188 " fill="none" stroke="black" stroke-width="1"></path><path d="M 117.17553561349658 41.65932587661188 C117.17553561349658,41.65932587661188 120.58603103118482,39.50211390363486 120.58603103118482,39.50211390363486 C120.58603103118482,39.50211390363486 122.29127874002893,38.423507917146345 123.14390259445099,37.88420492390209 C123.14390259445099,37.88420492390209 123.57021452166202,37.61455342727996 123.78337048526754,37.4797276789689 C123.78337048526754,37.4797276789689 123.8899484670703,37.41231480481336 123.94323745797168,37.378608367735595 C123.94323745797168,37.378608367735595 123.96988195342237,37.36175514919671 123.98320420114771,37.353328539927276 C123.98320420114771,37.353328539927276 123.99652644887306,37.344901930657834 123.99652644887306,37.344901930657834 " fill="none" stroke="black" stroke-width="1"></path><path d="M 117.17553561349658 41.65932587661188 C117.17553561349658,41.65932587661188 119.66800635340098,37.97405116172717 119.66800635340098,37.97405116172717 C119.66800635340098,37.97405116172717 120.91424172335317,36.13141380428481 121.53735940832928,35.21009512556363 C121.53735940832928,35.21009512556363 121.84891825081732,34.749435786203044 122.00469767206135,34.51910611652275 C122.00469767206135,34.51910611652275 122.08258738268336,34.403941281682606 122.12153223799436,34.34635886426253 C122.12153223799436,34.34635886426253 122.14100466564986,34.317567655552494 122.15074087947761,34.30317205119748 C122.15074087947761,34.30317205119748 122.16047709330537,34.288776446842455 122.16047709330537,34.288776446842455 " fill="none" stroke="black" stroke-width="1"></path><path d="M 76.72755474244036 68.66783912610164 C76.72755474244036,68.66783912610164 78.91133659580082,34.33391956305082 78.91133659580082,34.33391956305082 C78.91133659580082,34.33391956305082 80.00322752248104,17.16695978152541 80.54917298582116,8.583479890762705 C80.54917298582116,8.583479890762705 80.82214571749122,4.2917399453813525 80.95863208332625,2.1458699726906763 C80.95863208332625,2.1458699726906763 81.02687526624376,1.0729349863453381 81.06099685770252,0.5364674931726691 C81.06099685770252,0.5364674931726691 81.0780576534319,0.26823374658633453 81.08658805129659,0.13411687329316727 C81.08658805129659,0.13411687329316727 81.09511844916128,0 81.09511844916128,0 " fill="none" stroke="black" stroke-width="1"></path><path d="M 49.06750880374124 97.2354794019525 C49.06750880374124,97.2354794019525 46.917580177971075,93.06065362793242 46.917580177971075,93.06065362793242 C46.917580177971075,93.06065362793242 45.842615865085996,90.97324074092239 45.30513370864345,89.92953429741738 C45.30513370864345,89.92953429741738 45.036392630422185,89.40768107566487 44.90202209131155,89.14675446478861 C44.90202209131155,89.14675446478861 44.834836821756234,89.01629115935049 44.80124418697858,88.95105950663142 C44.80124418697858,88.95105950663142 44.78444786958975,88.91844368027189 44.776049710895336,88.90213576709212 C44.776049710895336,88.90213576709212 44.76765155220092,88.88582785391236 44.76765155220092,88.88582785391236 " fill="none" stroke="black" stroke-width="1"></path><path d="M 44.76765155220092 88.88582785391236 C44.76765155220092,88.88582785391236 41.90035237970973,73.91754430935788 41.90035237970973,73.91754430935788 C41.90035237970973,73.91754430935788 40.46670279346414,66.43340253708064 39.74987800034134,62.691331650942026 C39.74987800034134,62.691331650942026 39.391465603779935,60.820296207872715 39.21225940549924,59.884778486338064 C39.21225940549924,59.884778486338064 39.12265630635889,59.41701962557074 39.07785475678871,59.18314019518708 C39.07785475678871,59.18314019518708 39.05545398200363,59.066200479995246 39.04425359461108,59.00773062239933 C39.04425359461108,59.00773062239933 39.033053207218536,58.94926076480341 39.033053207218536,58.94926076480341 " fill="none" stroke="black" stroke-width="1"></path><path d="M 44.76765155220092 88.88582785391236 C44.76765155220092,88.88582785391236 31.200918997043217,73.4597302111176 31.200918997043217,73.4597302111176 C31.200918997043217,73.4597302111176 24.417552719464368,65.74668138972022 21.025869580674943,61.890156979021526 C21.025869580674943,61.890156979021526 19.330028011280234,59.961894773672185 18.482107226582876,58.997763670997514 C18.482107226582876,58.997763670997514 18.0581468342342,58.51569811966017 17.846166638059863,58.2746653439915 C17.846166638059863,58.2746653439915 17.740176539972694,58.15414895615717 17.687181490929106,58.09389076224001 C17.687181490929106,58.09389076224001 17.63418644188552,58.03363256832284 17.63418644188552,58.03363256832284 " fill="none" stroke="black" stroke-width="1"></path><path d="M 22.411194702439207 90.32818214949731 C22.411194702439207,90.32818214949731 22.267135578356726,90.24491092814269 22.267135578356726,90.24491092814269 C22.267135578356726,90.24491092814269 22.195106016315485,90.20327531746537 22.159091235294866,90.18245751212672 C22.159091235294866,90.18245751212672 22.141083844784553,90.17204860945739 22.1320801495294,90.16684415812273 C22.1320801495294,90.16684415812273 22.12757830190182,90.1642419324554 22.12532737808803,90.16294081962172 C22.12532737808803,90.16294081962172 22.124201916181136,90.1622902632049 22.123639185227688,90.16196498499647 C22.123639185227688,90.16196498499647 22.123076454274244,90.16163970678807 22.123076454274244,90.16163970678807 " fill="none" stroke="black" stroke-width="1"></path><path d="M 22.411194702439207 90.32818214949731 C22.411194702439207,90.32818214949731 22.40791567998695,90.32745385959566 22.40791567998695,90.32745385959566 C22.40791567998695,90.32745385959566 22.40627616876082,90.32708971464484 22.405456413147753,90.32690764216943 C22.405456413147753,90.32690764216943 22.40504653534122,90.32681660593173 22.404841596437954,90.32677108781289 C22.404841596437954,90.32677108781289 22.40473912698632,90.32674832875347 22.404687892260505,90.32673694922374 C22.404687892260505,90.32673694922374 22.404662274897596,90.32673125945888 22.404649466216142,90.32672841457645 C22.404649466216142,90.32672841457645 22.404636657534688,90.32672556969403 22.404636657534688,90.32672556969403 " fill="none" stroke="black" stroke-width="1"></path><path d="M 22.458340888519437 90.34596610954767 C22.458340888519437,90.34596610954767 22.434767795479324,90.33707412952249 22.434767795479324,90.33707412952249 C22.434767795479324,90.33707412952249 22.422981248959267,90.3326281395099 22.41708797569924,90.3304051445036 C22.41708797569924,90.3304051445036 22.414141339069225,90.32929364700045 22.412668020754218,90.32873789824887 C22.412668020754218,90.32873789824887 22.411931361596714,90.32846002387309 22.41156303201796,90.32832108668521 C22.41156303201796,90.32832108668521 22.411378867228585,90.32825161809126 22.411286784833898,90.32821688379428 C22.411286784833898,90.32821688379428 22.411194702439207,90.32818214949731 22.411194702439207,90.32818214949731 " fill="none" stroke="black" stroke-width="1"></path><path d="M 27.125813310461826 92.10657815453308 C27.125813310461826,92.10657815453308 24.792077099490633,91.22627213204038 24.792077099490633,91.22627213204038 C24.792077099490633,91.22627213204038 23.625208994005035,90.78611912079403 23.041774941262236,90.56604261517086 C23.041774941262236,90.56604261517086 22.75005791489084,90.45600436235927 22.604199401705138,90.40098523595347 C22.604199401705138,90.40098523595347 22.531270145112288,90.37347567275057 22.494805516815862,90.35972089114912 C22.494805516815862,90.35972089114912 22.47657320266765,90.3528435003484 22.467457045593545,90.34940480494804 C22.467457045593545,90.34940480494804 22.458340888519437,90.34596610954767 22.458340888519437,90.34596610954767 " fill="none" stroke="black" stroke-width="1"></path><path d="M 76.00351156905336 80.05141209470739 C76.00351156905336,80.05141209470739 76.36553315574686,74.35962561040452 76.36553315574686,74.35962561040452 C76.36553315574686,74.35962561040452 76.5465439490936,71.51373236825307 76.63704934576698,70.09078574717736 C76.63704934576698,70.09078574717736 76.68230204410366,69.37931243663951 76.70492839327201,69.02357578137057 C76.70492839327201,69.02357578137057 76.71624156785619,68.84570745373611 76.72189815514827,68.75677328991887 C76.72189815514827,68.75677328991887 76.72472644879431,68.71230620801026 76.72614059561734,68.69007266705594 C76.72614059561734,68.69007266705594 76.72755474244036,68.66783912610164 76.72755474244036,68.66783912610164 " fill="none" stroke="black" stroke-width="1"></path></g><g class="node-layer"><rect class="node-shape" fill=" rgb(171, 167, 155)" stroke="black" cursor="pointer" x="64.95781423895453" y="82.35262765478373" width="2" height="10"></rect><rect class="node-shape" fill=" rgb(171, 167, 155)" stroke="black" cursor="pointer" x="21.458340888519437" y="85.34596610954767" width="2" height="10"></rect></g><g class="node-layer"><rect class="node-shape" fill=" rgb(171, 167, 155)" stroke="black" cursor="pointer" x="71.72755474244036" y="67.66783912610164" width="10" height="2"></rect></g><g class="node-layer"><circle class="node-shape" r="3" fill="black" cx="1" cy="92.26204107991093"></circle><circle class="node-shape" r="3" fill="black" cx="28.6232326231133" cy="130.19216262010158"></circle><circle class="node-shape" r="3" fill="black" cx="33.10279758189799" cy="128.82356047191865"></circle><circle class="node-shape" r="3" fill="black" cx="45.1638336339157" cy="128.48824526651953"></circle><circle class="node-shape" r="3" fill="black" cx="60.83160809541398" cy="137"></circle><circle class="node-shape" r="3" fill="black" cx="66.0658965550499" cy="133.55339492897292"></circle><circle class="node-shape" r="3" fill="black" cx="89.55716762707607" cy="124.90542238409377"></circle><circle class="node-shape" r="3" fill="black" cx="89.80739546191975" cy="123.24283073384467"></circle><circle class="node-shape" r="3" fill="black" cx="95.14193509248145" cy="120.19571657908993"></circle><circle class="node-shape" r="3" fill="black" cx="31.1620958054222" cy="116.35775862692151"></circle><circle class="node-shape" r="3" fill="black" cx="138" cy="69.38073768676608"></circle><circle class="node-shape" r="3" fill="black" cx="135.21954936789777" cy="69.51569370217221"></circle><circle class="node-shape" r="3" fill="black" cx="123.99652644887306" cy="37.344901930657834"></circle><circle class="node-shape" r="3" fill="black" cx="122.16047709330537" cy="34.288776446842455"></circle><circle class="node-shape" r="3" fill="black" cx="81.09511844916128" cy="0"></circle><circle class="node-shape" r="3" fill="black" cx="39.033053207218536" cy="58.94926076480341"></circle><circle class="node-shape" r="3" fill="black" cx="17.63418644188552" cy="58.03363256832284"></circle><circle class="node-shape" r="3" fill="black" cx="22.123076454274244" cy="90.16163970678807"></circle><circle class="node-shape" r="3" fill="black" cx="22.404636657534688" cy="90.32672556969403"></circle></g><g class="node-layer"><circle class="node-shape" r="2" fill="#805882" cx="1" cy="92.26204107991093"></circle><circle class="node-shape" r="2" fill=" #936310" cx="28.6232326231133" cy="130.19216262010158"></circle><circle class="node-shape" r="2" fill=" #936310" cx="33.10279758189799" cy="128.82356047191865"></circle><circle class="node-shape" r="2" fill=" #936310" cx="45.1638336339157" cy="128.48824526651953"></circle><circle class="node-shape" r="2" fill=" #936310" cx="60.83160809541398" cy="137"></circle><circle class="node-shape" r="2" fill=" #936310" cx="66.0658965550499" cy="133.55339492897292"></circle><circle class="node-shape" r="2" fill="	#6b7a1f" cx="89.55716762707607" cy="124.90542238409377"></circle><circle class="node-shape" r="2" fill="	#6b7a1f" cx="89.80739546191975" cy="123.24283073384467"></circle><circle class="node-shape" r="2" fill="	#6b7a1f" cx="95.14193509248145" cy="120.19571657908993"></circle><circle class="node-shape" r="2" fill=" #071455" cx="31.1620958054222" cy="116.35775862692151"></circle><circle class="node-shape" r="2" fill="	#f6d292" cx="138" cy="69.38073768676608"></circle><circle class="node-shape" r="2" fill="	#f6d292" cx="135.21954936789777" cy="69.51569370217221"></circle><circle class="node-shape" r="2" fill="#6cabb4" cx="123.99652644887306" cy="37.344901930657834"></circle><circle class="node-shape" r="2" fill="#6cabb4" cx="122.16047709330537" cy="34.288776446842455"></circle><circle class="node-shape" r="2" fill="	#73878c" cx="81.09511844916128" cy="0"></circle><circle class="node-shape" r="2" fill="	#d43511" cx="39.033053207218536" cy="58.94926076480341"></circle><circle class="node-shape" r="2" fill="	#d43511" cx="17.63418644188552" cy="58.03363256832284"></circle><circle class="node-shape" r="2" fill="#f4dc2a" cx="22.123076454274244" cy="90.16163970678807"></circle><circle class="node-shape" r="2" fill="#f4dc2a" cx="22.404636657534688" cy="90.32672556969403"></circle></g><g class="node-layer"><g><text alignment-baseline="middle" text-anchor="end" transform="translate(59.957814238954526,87.35262765478373) rotate(0)" fill="black" font-size="7" font-weight="300" font-family="HelveticaNeue-Light" dy="15" dx="55">Proposed root</text><path stroke-width="1" stroke="grey" stroke-dasharray="2" d="M65.95781423895453 87.35262765478373L65.95781423895453 87.35262765478373"></path></g><g><text alignment-baseline="middle" text-anchor="end" transform="translate(17.35605208209668,87.18896611970715) rotate(0)" fill="black" font-size="7" font-weight="300" font-family="HelveticaNeue-Light" dy="20" dx="25">1970s root</text><path stroke-width="1" stroke="grey" stroke-dasharray="2" d="M22.458340888519437 90.34596610954767L22.458340888519437 90.34596610954767"></path></g><g><text alignment-baseline="middle" text-anchor=" start" transform="translate(76.96003347939696,62.6723446813654) rotate(0)" fill="black" font-size="7" font-weight="300" font-family="HelveticaNeue-Light" dy="3" dx="-30">Midpoint</text><path stroke-width="1" stroke="grey" stroke-dasharray="2" d="M76.72755474244036 68.66783912610164L76.72755474244036 68.66783912610164"></path></g></g><g class="node-layer"><g><text text-anchor="end" transform="translate(-3.999761834812875,92.31084266952226) rotate(-0.5592339030163203)" fill="black" font-size="6" font-weight="300" font-family="HelveticaNeue-Light" dominant-baseline="middle">Kasaï/2025</text><path stroke-width="1" stroke="grey" stroke-dasharray="2" d="M1 92.26204107991093L1 92.26204107991093"></path></g><g><text text-anchor="end" transform="translate(24.223717915409765,132.5679299354547) rotate(-28.369342462396702)" fill="black" font-size="6" font-weight="300" font-family="HelveticaNeue-Light" dominant-baseline="middle">Equateur/2020</text><path stroke-width="1" stroke="grey" stroke-dasharray="2" d="M28.6232326231133 130.19216262010158L28.6232326231133 130.19216262010158"></path></g><g><text text-anchor="end" transform="translate(30.083330501172963,132.80888587248734) rotate(-52.85074508330821)" fill="black" font-size="6" font-weight="300" font-family="HelveticaNeue-Light" dominant-baseline="middle">Equateur/2018</text><path stroke-width="1" stroke="grey" stroke-dasharray="2" d="M33.10279758189799 128.82356047191865L33.10279758189799 128.82356047191865"></path></g><g><text text-anchor="end" transform="translate(43.93702889075639,133.33540424082207) rotate(-75.7968343330087)" fill="black" font-size="6" font-weight="300" font-family="HelveticaNeue-Light" dominant-baseline="middle">Tshuapa/2014</text><path stroke-width="1" stroke="grey" stroke-dasharray="2" d="M45.1638336339157 128.48824526651953L45.1638336339157 128.48824526651953"></path></g><g><text text-anchor=" start" transform="translate(61.42387248782062,141.96479837349787) rotate(83.19717779237968)" fill="black" font-size="6" font-weight="300" font-family="HelveticaNeue-Light" dominant-baseline="middle">Equateur/2022 </text><path stroke-width="1" stroke="grey" stroke-dasharray="2" d="M60.83160809541398 137L60.83160809541398 137"></path></g><g><text text-anchor=" start" transform="translate(68.58557169078114,137.87210274617678) rotate(59.73931741894215)" fill="black" font-size="6" font-weight="300" font-family="HelveticaNeue-Light" dominant-baseline="middle">Equateur/2020</text><path stroke-width="1" stroke="grey" stroke-dasharray="2" d="M66.0658965550499 133.55339492897292L66.0658965550499 133.55339492897292"></path></g><g><text text-anchor=" start" transform="translate(93.27277878487934,128.25120087706185) rotate(42.0019346175283)" fill="black" font-size="6" font-weight="300" font-family="HelveticaNeue-Light" dominant-baseline="middle">Gabon/1996a</text><path stroke-width="1" stroke="grey" stroke-dasharray="2" d="M89.55716762707607 124.90542238409377L89.55716762707607 124.90542238409377"></path></g><g><text text-anchor=" start" transform="translate(94.54779191694949,124.83300099175464) rotate(18.544074244090787)" fill="black" font-size="6" font-weight="300" font-family="HelveticaNeue-Light" dominant-baseline="middle">Gabon/1994</text><path stroke-width="1" stroke="grey" stroke-dasharray="2" d="M89.80739546191975 123.24283073384467L89.80739546191975 123.24283073384467"></path></g><g><text text-anchor=" start" transform="translate(100.13291204984932,119.8954683300977) rotate(-6.8853252601023724)" fill="black" font-size="6" font-weight="300" font-family="HelveticaNeue-Light" dominant-baseline="middle">Gabon/1996b</text><path stroke-width="1" stroke="grey" stroke-dasharray="2" d="M95.14193509248145 120.19571657908993L95.14193509248145 120.19571657908993"></path></g><g><text text-anchor="end" transform="translate(26.316070898826254,117.58903544577734) rotate(-14.256033960431608)" fill="black" font-size="6" font-weight="300" font-family="HelveticaNeue-Light" dominant-baseline="middle">Kwilu/1995</text><path stroke-width="1" stroke="grey" stroke-dasharray="2" d="M31.1620958054222 116.35775862692151L31.1620958054222 116.35775862692151"></path></g><g><text text-anchor=" start" transform="translate(142.95848148348824,68.7377280617182) rotate(712.6111896193227)" fill="black" font-size="6" font-weight="300" font-family="HelveticaNeue-Light" dominant-baseline="middle">Kasaï/2008</text><path stroke-width="1" stroke="grey" stroke-dasharray="2" d="M138 69.38073768676608L138 69.38073768676608"></path></g><g><text text-anchor=" start" transform="translate(139.63323309045043,67.16635422111086) rotate(691.9742782650901)" fill="black" font-size="6" font-weight="300" font-family="HelveticaNeue-Light" dominant-baseline="middle">Kasaï/2007 </text><path stroke-width="1" stroke="grey" stroke-dasharray="2" d="M135.21954936789777 69.51569370217221L135.21954936789777 69.51569370217221"></path></g><g><text text-anchor=" start" transform="translate(127.46633989847213,33.744847122049855) rotate(673.9446145349259)" fill="black" font-size="6" font-weight="300" font-family="HelveticaNeue-Light" dominant-baseline="middle">Gabon/2001</text><path stroke-width="1" stroke="grey" stroke-dasharray="2" d="M123.99652644887306 37.344901930657834L123.99652644887306 37.344901930657834"></path></g><g><text text-anchor=" start" transform="translate(124.06641374632218,29.666287347375906) rotate(652.4072480542594)" fill="black" font-size="6" font-weight="300" font-family="HelveticaNeue-Light" dominant-baseline="middle">RoC/2003</text><path stroke-width="1" stroke="grey" stroke-dasharray="2" d="M122.16047709330537 34.288776446842455L122.16047709330537 34.288776446842455"></path></g><g><text text-anchor=" start" transform="translate(81.28885072995844,-4.99624537061353) rotate(632.2205642632439)" fill="black" font-size="6" font-weight="300" font-family="HelveticaNeue-Light" dominant-baseline="middle">Makona/2013 </text><path stroke-width="1" stroke="grey" stroke-dasharray="2" d="M81.09511844916128 0L81.09511844916128 0"></path></g><g><text text-anchor="end" transform="translate(38.453087971006646,53.983010637717015) rotate(83.33909420356468)" fill="black" font-size="6" font-weight="300" font-family="HelveticaNeue-Light" dominant-baseline="middle">Bas-Uele/2017</text><path stroke-width="1" stroke="grey" stroke-dasharray="2" d="M39.033053207218536 58.94926076480341L39.033053207218536 58.94926076480341"></path></g><g><text text-anchor="end" transform="translate(15.271565494732664,53.62704406245182) rotate(61.80172772289819)" fill="black" font-size="6" font-weight="300" font-family="HelveticaNeue-Light" dominant-baseline="middle">Kivu/2018</text><path stroke-width="1" stroke="grey" stroke-dasharray="2" d="M17.63418644188552 58.03363256832284L17.63418644188552 58.03363256832284"></path></g><g><text text-anchor="end" transform="translate(18.49474798019367,86.72140243529412) rotate(43.475746004702074)" fill="black" font-size="6" font-weight="300" font-family="HelveticaNeue-Light" dominant-baseline="middle">Sud-Ubangi/1977</text><path stroke-width="1" stroke="grey" stroke-dasharray="2" d="M22.123076454274244 90.16163970678807L22.123076454274244 90.16163970678807"></path></g><g><text text-anchor="end" transform="translate(17.706707612953288,88.61515824934742) rotate(20.017885631264534)" fill="black" font-size="6" font-weight="300" font-family="HelveticaNeue-Light" dominant-baseline="middle">Yambuku/1976 </text><path stroke-width="1" stroke="grey" stroke-dasharray="2" d="M22.404636657534688 90.32672556969403L22.404636657534688 90.32672556969403"></path></g></g></g></g></g><text x="10" y="30" font-size="18" font-family="HelveticaNeue-Light">B</text></g></svg>