<svg xmlns="http://www.w3.org/2000/svg" width="457" height="228.5"><g transform="translate(0, 0)"><g transform="scale(1)"><g><g transform="translate(20,20)"><g class="axis"><path d="M0,175.185 L158.5,175.185" stroke="black" stroke-width="1"></path><g><g transform="translate(7.204545454545455,175.185)"><line x1="0" y1="0" x2="0" y2="6" stroke="black" stroke-width="1"></line><text transform="translate(0,20)" text-anchor="middle" dominant-baseline="central" font-family="HeveticaNeue-light">1925</text></g><g transform="translate(50.43181818181818,175.185)"><line x1="0" y1="0" x2="0" y2="6" stroke="black" stroke-width="1"></line><text transform="translate(0,20)" text-anchor="middle" dominant-baseline="central" font-family="HeveticaNeue-light">1955</text></g><g transform="translate(93.65909090909092,175.185)"><line x1="0" y1="0" x2="0" y2="6" stroke="black" stroke-width="1"></line><text transform="translate(0,20)" text-anchor="middle" dominant-baseline="central" font-family="HeveticaNeue-light">1985</text></g><g transform="translate(136.88636363636363,175.185)"><line x1="0" y1="0" x2="0" y2="6" stroke="black" stroke-width="1"></line><text transform="translate(0,20)" text-anchor="middle" dominant-baseline="central" font-family="HeveticaNeue-light">2015</text></g><g transform="translate(79.25,175.185) "><text text-anchor="middle" transform="translate(0,40)"></text></g></g></g><g class="branch-layer"><path d="M 0.001 18.41140407986111 C0.001,18.41140407986111 0,36.82280815972222 0,36.82280815972222 C0,36.82280815972222 8.366122840690979,36.82330815972222 12.54918426103647,36.82355815972222 C12.54918426103647,36.82355815972222 14.640714971209214,36.82368315972222 15.686480326295586,36.82374565972222 C15.686480326295586,36.82374565972222 16.20936300383877,36.82377690972222 16.470804342610364,36.823792534722216 C16.470804342610364,36.823792534722216 16.60152501199616,36.82380034722222 16.666885346689057,36.82380425347222 C16.666885346689057,36.82380425347222 16.732245681381958,36.82380815972222 16.732245681381958,36.82380815972222 " fill="none" stroke-width="1.5" stroke="#2F4F4F" stroke-dasharray="10 0"></path><path d="M 16.73324568138196 36.82280815972222 C16.73324568138196,36.82280815972222 16.732245681381958,14.041666666666666 16.732245681381958,14.041666666666666 C16.732245681381958,14.041666666666666 65.40786948176584,14.042166666666667 89.74568138195778,14.042416666666666 C89.74568138195778,14.042416666666666 101.91458733205374,14.042541666666665 107.99904030710172,14.042604166666665 C107.99904030710172,14.042604166666665 111.04126679462573,14.042635416666666 112.56238003838772,14.042651041666666 C112.56238003838772,14.042651041666666 113.32293666026871,14.042658854166666 113.7032149712092,14.042662760416665 C113.7032149712092,14.042662760416665 114.08349328214972,14.042666666666666 114.08349328214972,14.042666666666666 " fill="none" stroke-width="1.5" stroke="#6cabb4" stroke-dasharray="8 4"></path><path d="M 114.08449328214972 14.041666666666666 C114.08449328214972,14.041666666666666 114.08349328214972,9.36111111111111 114.08349328214972,9.36111111111111 C114.08349328214972,9.36111111111111 119.7116122840691,9.36161111111111 122.5256717850288,9.36186111111111 C122.5256717850288,9.36186111111111 123.93270153550864,9.361986111111111 124.63621641074857,9.36204861111111 C124.63621641074857,9.36204861111111 124.98797384836854,9.36207986111111 125.16385256717851,9.362095486111109 C125.16385256717851,9.362095486111109 125.25179192658351,9.36210329861111 125.29576160628599,9.362107204861111 C125.29576160628599,9.362107204861111 125.33973128598849,9.36211111111111 125.33973128598849,9.36211111111111 " fill="none" stroke-width="1.5" stroke="#696969" stroke-dasharray="10 0"></path><path d="M 114.08449328214972 14.041666666666666 C114.08449328214972,14.041666666666666 114.08349328214972,18.72222222222222 114.08349328214972,18.72222222222222 C114.08349328214972,18.72222222222222 118.4947216890595,18.722722222222224 120.7003358925144,18.722972222222225 C120.7003358925144,18.722972222222225 121.80314299424185,18.723097222222222 122.35454654510556,18.72315972222222 C122.35454654510556,18.72315972222222 122.63024832053742,18.72319097222222 122.76809920825335,18.723206597222223 C122.76809920825335,18.723206597222223 122.83702465211132,18.723214409722225 122.8714873740403,18.723218315972225 C122.8714873740403,18.723218315972225 122.90595009596929,18.723222222222223 122.90595009596929,18.723222222222223 " fill="none" stroke-width="1.5" stroke="#696969" stroke-dasharray="10 0"></path><path d="M 16.73324568138196 36.82280815972222 C16.73324568138196,36.82280815972222 16.732245681381958,59.60394965277778 16.732245681381958,59.60394965277778 C16.732245681381958,59.60394965277778 18.253358925143953,59.604449652777774 19.01391554702495,59.604699652777775 C19.01391554702495,59.604699652777775 19.394193857965448,59.60482465277778 19.584333013435696,59.60488715277778 C19.584333013435696,59.60488715277778 19.67940259117082,59.60491840277778 19.726937380038386,59.60493402777777 C19.726937380038386,59.60493402777777 19.75070477447217,59.604941840277775 19.762588471689057,59.604945746527775 C19.762588471689057,59.604945746527775 19.774472168905948,59.604949652777776 19.774472168905948,59.604949652777776 " fill="none" stroke-width="1.5" stroke="#2F4F4F" stroke-dasharray="10 0"></path><path d="M 19.77547216890595 59.60394965277778 C19.77547216890595,59.60394965277778 19.774472168905948,32.76388888888889 19.774472168905948,32.76388888888889 C19.774472168905948,32.76388888888889 75.29510556621881,32.76438888888889 103.05542226487523,32.76463888888889 C103.05542226487523,32.76463888888889 116.93558061420345,32.76476388888889 123.87565978886755,32.76482638888889 C123.87565978886755,32.76482638888889 127.3456993761996,32.76485763888889 129.08071916986563,32.76487326388889 C129.08071916986563,32.76487326388889 129.94822906669864,32.76488107638889 130.38198401511517,32.76488498263889 C130.38198401511517,32.76488498263889 130.81573896353166,32.76488888888889 130.81573896353166,32.76488888888889 " fill="none" stroke-width="1.5" stroke="	#f6d292" stroke-dasharray="8 4"></path><path d="M 130.81673896353166 32.76388888888889 C130.81673896353166,32.76388888888889 130.81573896353166,28.083333333333332 130.81573896353166,28.083333333333332 C130.81573896353166,28.083333333333332 132.10868522072937,28.08383333333333 132.7551583493282,28.084083333333332 C132.7551583493282,28.084083333333332 133.07839491362765,28.084208333333333 133.24001319577735,28.084270833333335 C133.24001319577735,28.084270833333335 133.32082233685222,28.084302083333334 133.36122690738966,28.084317708333334 C133.36122690738966,28.084317708333334 133.38142919265837,28.084325520833332 133.3915303352927,28.084329427083333 C133.3915303352927,28.084329427083333 133.40163147792708,28.084333333333333 133.40163147792708,28.084333333333333 " fill="none" stroke-width="1.5" stroke="#696969" stroke-dasharray="10 0"></path><path d="M 130.81673896353166 32.76388888888889 C130.81673896353166,32.76388888888889 130.81573896353166,37.44444444444444 130.81573896353166,37.44444444444444 C130.81573896353166,37.44444444444444 131.07432821497122,37.444944444444445 131.20362284069097,37.44519444444444 C131.20362284069097,37.44519444444444 131.26827015355087,37.445319444444436 131.3005938099808,37.445381944444435 C131.3005938099808,37.445381944444435 131.3167556381958,37.44541319444444 131.32483655230328,37.445428819444444 C131.32483655230328,37.445428819444444 131.32887700935703,37.445436631944446 131.3308972378839,37.44544053819445 C131.3308972378839,37.44544053819445 131.33291746641075,37.44544444444444 131.33291746641075,37.44544444444444 " fill="none" stroke-width="1.5" stroke="#696969" stroke-dasharray="10 0"></path><path d="M 19.77547216890595 59.60394965277778 C19.77547216890595,59.60394965277778 19.774472168905948,86.44401041666667 19.774472168905948,86.44401041666667 C19.774472168905948,86.44401041666667 37.26727447216891,86.44451041666667 46.01367562380038,86.44476041666667 C46.01367562380038,86.44476041666667 50.386876199616125,86.44488541666666 52.57347648752399,86.44494791666668 C52.57347648752399,86.44494791666668 53.66677663147793,86.44497916666668 54.2134267034549,86.44499479166669 C54.2134267034549,86.44499479166669 54.48675173944338,86.44500260416669 54.62341425743762,86.44500651041668 C54.62341425743762,86.44500651041668 54.76007677543186,86.44501041666668 54.76007677543186,86.44501041666668 " fill="none" stroke-width="1.5" stroke="#2F4F4F" stroke-dasharray="10 0"></path><path d="M 54.76107677543186 86.44401041666667 C54.76107677543186,86.44401041666667 54.76007677543186,62.017361111111114 54.76007677543186,62.017361111111114 C54.76007677543186,62.017361111111114 55.67274472168906,62.01786111111112 56.12907869481766,62.01811111111111 C56.12907869481766,62.01811111111111 56.357245681381954,62.01823611111111 56.471329174664106,62.018298611111106 C56.471329174664106,62.018298611111106 56.52837092130518,62.01832986111111 56.55689179462572,62.018345486111116 C56.55689179462572,62.018345486111116 56.57115223128599,62.01835329861112 56.578282449616125,62.01835720486112 C56.578282449616125,62.01835720486112 56.58541266794626,62.01836111111111 56.58541266794626,62.01836111111111 " fill="none" stroke-width="1.5" stroke="#2F4F4F" stroke-dasharray="10 0"></path><path d="M 56.586412667946256 62.017361111111114 C56.586412667946256,62.017361111111114 56.58541266794626,72.54861111111111 56.58541266794626,72.54861111111111 C56.58541266794626,72.54861111111111 67.23320537428023,72.54911111111112 72.55710172744722,72.54936111111112 C72.55710172744722,72.54936111111112 75.21904990403071,72.54948611111112 76.55002399232245,72.54954861111112 C76.55002399232245,72.54954861111112 77.21551103646833,72.54957986111111 77.54825455854126,72.54959548611112 C77.54825455854126,72.54959548611112 77.71462631957773,72.54960329861112 77.79781220009596,72.54960720486112 C77.79781220009596,72.54960720486112 77.8809980806142,72.54961111111112 77.8809980806142,72.54961111111112 " fill="none" stroke-width="1.5" stroke="#f4dc2a" stroke-dasharray="10 0"></path><path d="M 77.88199808061421 72.54861111111111 C77.88199808061421,72.54861111111111 77.8809980806142,79.56944444444444 77.8809980806142,79.56944444444444 C77.8809980806142,79.56944444444444 80.6190019193858,79.56994444444445 81.98800383877159,79.57019444444444 C81.98800383877159,79.57019444444444 82.67250479846449,79.57031944444444 83.01475527831093,79.57038194444445 C83.01475527831093,79.57038194444445 83.18588051823416,79.57041319444446 83.27144313819576,79.57042881944446 C83.27144313819576,79.57042881944446 83.31422444817657,79.57043663194446 83.33561510316699,79.57044053819445 C83.33561510316699,79.57044053819445 83.35700575815738,79.57044444444445 83.35700575815738,79.57044444444445 " fill="none" stroke-width="1.5" stroke="#f4dc2a" stroke-dasharray="10 0"></path><path d="M 83.35800575815739 79.56944444444444 C83.35800575815739,79.56944444444444 83.35700575815738,74.88888888888889 83.35700575815738,74.88888888888889 C83.35700575815738,74.88888888888889 84.09474568138194,74.88938888888889 84.46361564299423,74.8896388888889 C84.46361564299423,74.8896388888889 84.64805062380037,74.8897638888889 84.74026811420345,74.88982638888889 C84.74026811420345,74.88982638888889 84.78637685940498,74.88985763888888 84.80943123200575,74.88987326388889 C84.80943123200575,74.88987326388889 84.82095841830613,74.88988107638889 84.82672201145633,74.88988498263889 C84.82672201145633,74.88988498263889 84.8324856046065,74.88988888888889 84.8324856046065,74.88988888888889 " fill="none" stroke-width="1.5" stroke="#696969" stroke-dasharray="10 0"></path><path d="M 83.35800575815739 79.56944444444444 C83.35800575815739,79.56944444444444 83.35700575815738,84.25 83.35700575815738,84.25 C83.35700575815738,84.25 83.53193378119002,84.2505 83.61939779270634,84.25075000000001 C83.61939779270634,84.25075000000001 83.6631297984645,84.25087500000001 83.68499580134358,84.2509375 C83.68499580134358,84.2509375 83.6959288027831,84.25096875 83.70139530350286,84.250984375 C83.70139530350286,84.250984375 83.70412855386274,84.2509921875 83.70549517904269,84.25099609375 C83.70549517904269,84.25099609375 83.70686180422264,84.251 83.70686180422264,84.251 " fill="none" stroke-width="1.5" stroke="#696969" stroke-dasharray="10 0"></path><path d="M 77.88199808061421 72.54861111111111 C77.88199808061421,72.54861111111111 77.8809980806142,65.52777777777779 77.8809980806142,65.52777777777779 C77.8809980806142,65.52777777777779 118.1904990403071,65.52827777777779 138.34524952015354,65.52852777777778 C138.34524952015354,65.52852777777778 148.42262476007676,65.52865277777778 153.46131238003838,65.52871527777779 C153.46131238003838,65.52871527777779 155.9806561900192,65.5287465277778 157.2403280950096,65.5287621527778 C157.2403280950096,65.5287621527778 157.8701640475048,65.5287699652778 158.1850820237524,65.52877387152779 C158.1850820237524,65.52877387152779 158.5,65.52877777777779 158.5,65.52877777777779 " fill="none" stroke-width="1.5" stroke="#805882" stroke-dasharray="8 4"></path><path d="M 56.586412667946256 62.017361111111114 C56.586412667946256,62.017361111111114 56.58541266794626,51.486111111111114 56.58541266794626,51.486111111111114 C56.58541266794626,51.486111111111114 77.8809980806142,51.48661111111112 88.52879078694818,51.48686111111111 C88.52879078694818,51.48686111111111 93.85268714011517,51.48698611111111 96.51463531669866,51.487048611111106 C96.51463531669866,51.487048611111106 97.8456094049904,51.48707986111111 98.51109644913628,51.487095486111116 C98.51109644913628,51.487095486111116 98.8438399712092,51.48710329861112 99.01021173224568,51.48710720486112 C99.01021173224568,51.48710720486112 99.17658349328215,51.48711111111111 99.17658349328215,51.48711111111111 " fill="none" stroke-width="1.5" stroke="	#d43511" stroke-dasharray="8 4"></path><path d="M 99.17758349328216 51.486111111111114 C99.17758349328216,51.486111111111114 99.17658349328215,46.80555555555556 99.17658349328215,46.80555555555556 C99.17658349328215,46.80555555555556 123.51439539347409,46.80605555555556 135.68330134357007,46.806305555555554 C135.68330134357007,46.806305555555554 141.76775431861805,46.80643055555555 144.80998080614205,46.80649305555555 C144.80998080614205,46.80649305555555 146.33109404990404,46.806524305555556 147.09165067178503,46.80653993055556 C147.09165067178503,46.80653993055556 147.47192898272553,46.80654774305556 147.66206813819576,46.80655164930556 C147.66206813819576,46.80655164930556 147.85220729366603,46.806555555555555 147.85220729366603,46.806555555555555 " fill="none" stroke-width="1.5" stroke="#696969" stroke-dasharray="10 0"></path><path d="M 99.17758349328216 51.486111111111114 C99.17758349328216,51.486111111111114 99.17658349328215,56.166666666666664 99.17658349328215,56.166666666666664 C99.17658349328215,56.166666666666664 122.7538387715931,56.16716666666666 134.54246641074857,56.16741666666666 C134.54246641074857,56.16741666666666 140.4367802303263,56.167541666666665 143.38393714011517,56.16760416666666 C143.38393714011517,56.16760416666666 144.8575155950096,56.16763541666666 145.59430482245682,56.16765104166666 C145.59430482245682,56.16765104166666 145.96269943618043,56.16765885416666 146.14689674304225,56.16766276041666 C146.14689674304225,56.16766276041666 146.33109404990404,56.16766666666666 146.33109404990404,56.16766666666666 " fill="none" stroke-width="1.5" stroke="#696969" stroke-dasharray="10 0"></path><path d="M 54.76107677543186 86.44401041666667 C54.76107677543186,86.44401041666667 54.76007677543186,110.87065972222223 54.76007677543186,110.87065972222223 C54.76007677543186,110.87065972222223 65.40786948176583,110.87115972222223 70.73176583493282,110.87140972222224 C70.73176583493282,110.87140972222224 73.39371401151631,110.87153472222224 74.72468809980805,110.87159722222223 C74.72468809980805,110.87159722222223 75.39017514395393,110.87162847222223 75.72291866602686,110.87164409722223 C75.72291866602686,110.87164409722223 75.88929042706333,110.87165190972223 75.97247630758156,110.87165581597223 C75.97247630758156,110.87165581597223 76.0556621880998,110.87165972222223 76.0556621880998,110.87165972222223 " fill="none" stroke-width="1.5" stroke="#2F4F4F" stroke-dasharray="10 0"></path><path d="M 76.0566621880998 110.87065972222223 C76.0566621880998,110.87065972222223 76.0556621880998,128.13020833333331 76.0556621880998,128.13020833333331 C76.0556621880998,128.13020833333331 77.8809980806142,128.1307083333333 78.79366602687139,128.1309583333333 C78.79366602687139,128.1309583333333 79.25,128.13108333333332 79.4781669865643,128.13114583333333 C79.4781669865643,128.13114583333333 79.59225047984646,128.13117708333334 79.64929222648752,128.13119270833334 C79.64929222648752,128.13119270833334 79.67781309980805,128.13120052083332 79.69207353646831,128.13120442708333 C79.69207353646831,128.13120442708333 79.7063339731286,128.13120833333332 79.7063339731286,128.13120833333332 " fill="none" stroke-width="1.5" stroke="#2F4F4F" stroke-dasharray="10 0"></path><path d="M 79.7073339731286 128.13020833333331 C79.7073339731286,128.13020833333331 79.7063339731286,146.26736111111111 79.7063339731286,146.26736111111111 C79.7063339731286,146.26736111111111 101.00191938579654,146.26786111111113 111.64971209213051,146.26811111111112 C111.64971209213051,146.26811111111112 116.9736084452975,146.26823611111112 119.635556621881,146.2682986111111 C119.635556621881,146.2682986111111 120.96653071017275,146.2683298611111 121.63201775431861,146.26834548611112 C121.63201775431861,146.26834548611112 121.96476127639156,146.26835329861112 122.13113303742801,146.2683572048611 C122.13113303742801,146.2683572048611 122.29750479846449,146.26836111111112 122.29750479846449,146.26836111111112 " fill="none" stroke-width="1.5" stroke=" #936310" stroke-dasharray="8 4"></path><path d="M 122.29850479846449 146.26736111111111 C122.29850479846449,146.26736111111111 122.29750479846449,156.79861111111111 122.29750479846449,156.79861111111111 C122.29750479846449,156.79861111111111 126.10028790786947,156.79911111111113 128.00167946257199,156.79936111111112 C128.00167946257199,156.79936111111112 128.95237523992324,156.79948611111112 129.42772312859887,156.7995486111111 C129.42772312859887,156.7995486111111 129.66539707293668,156.7995798611111 129.78423404510556,156.79959548611112 C129.78423404510556,156.79959548611112 129.84365253119,156.79960329861112 129.87336177423225,156.7996072048611 C129.87336177423225,156.7996072048611 129.90307101727447,156.79961111111112 129.90307101727447,156.79961111111112 " fill="none" stroke-width="1.5" stroke="#696969" stroke-dasharray="10 0"></path><path d="M 129.90407101727448 156.79861111111111 C129.90407101727448,156.79861111111111 129.90307101727447,163.81944444444443 129.90307101727447,163.81944444444443 C129.90307101727447,163.81944444444443 138.26919385796543,163.81994444444445 142.45225527831093,163.82019444444444 C142.45225527831093,163.82019444444444 144.54378598848368,163.82031944444444 145.58955134357007,163.82038194444442 C145.58955134357007,163.82038194444442 146.11243402111324,163.82041319444443 146.37387535988483,163.82042881944443 C146.37387535988483,163.82042881944443 146.50459602927063,163.82043663194443 146.5699563639635,163.82044053819442 C146.5699563639635,163.82044053819442 146.63531669865642,163.82044444444443 146.63531669865642,163.82044444444443 " fill="none" stroke-width="1.5" stroke="#696969" stroke-dasharray="10 0"></path><path d="M 146.63631669865643 163.81944444444443 C146.63631669865643,163.81944444444443 146.63531669865642,159.13888888888889 146.63531669865642,159.13888888888889 C146.63531669865642,159.13888888888889 148.53670825335894,159.1393888888889 149.4874040307102,159.1396388888889 C149.4874040307102,159.1396388888889 149.96275191938582,159.1397638888889 150.20042586372364,159.13982638888888 C150.20042586372364,159.13982638888888 150.31926283589252,159.13985763888888 150.37868132197696,159.1398732638889 C150.37868132197696,159.1398732638889 150.4083905650192,159.1398810763889 150.42324518654033,159.13988498263888 C150.42324518654033,159.13988498263888 150.43809980806142,159.1398888888889 150.43809980806142,159.1398888888889 " fill="none" stroke-width="1.5" stroke="#696969" stroke-dasharray="10 0"></path><path d="M 146.63631669865643 163.81944444444443 C146.63631669865643,163.81944444444443 146.63531669865642,168.5 146.63531669865642,168.5 C146.63531669865642,168.5 146.95475047984644,168.5005 147.11446737044145,168.50074999999998 C147.11446737044145,168.50074999999998 147.19432581573895,168.500875 147.2342550383877,168.50093750000002 C147.2342550383877,168.50093750000002 147.25421964971207,168.50096875000003 147.26420195537426,168.50098437500003 C147.26420195537426,168.50098437500003 147.26919310820534,168.5009921875 147.2716886846209,168.50099609375002 C147.2716886846209,168.50099609375002 147.27418426103645,168.501 147.27418426103645,168.501 " fill="none" stroke-width="1.5" stroke="#696969" stroke-dasharray="10 0"></path><path d="M 129.90407101727448 156.79861111111111 C129.90407101727448,156.79861111111111 129.90307101727447,149.77777777777777 129.90307101727447,149.77777777777777 C129.90307101727447,149.77777777777777 135.75935700575815,149.77827777777776 138.6875,149.77852777777775 C138.6875,149.77852777777775 140.15157149712093,149.77865277777778 140.8836072456814,149.7787152777778 C140.8836072456814,149.7787152777778 141.2496251199616,149.7787465277778 141.43263405710172,149.7787621527778 C141.43263405710172,149.7787621527778 141.5241385256718,149.77876996527777 141.56989075995682,149.7787738715278 C141.56989075995682,149.7787738715278 141.61564299424182,149.77877777777778 141.61564299424182,149.77877777777778 " fill="none" stroke-width="1.5" stroke="#696969" stroke-dasharray="10 0"></path><path d="M 122.29850479846449 146.26736111111111 C122.29850479846449,146.26736111111111 122.29750479846449,135.73611111111111 122.29750479846449,135.73611111111111 C122.29750479846449,135.73611111111111 129.59884836852208,135.73661111111113 133.24952015355086,135.73686111111112 C133.24952015355086,135.73686111111112 135.07485604606526,135.73698611111112 135.98752399232245,135.7370486111111 C135.98752399232245,135.7370486111111 136.44385796545106,135.7370798611111 136.67202495201536,135.73709548611112 C136.67202495201536,135.73709548611112 136.78610844529751,135.73710329861112 136.8431501919386,135.7371072048611 C136.8431501919386,135.7371072048611 136.90019193857967,135.73711111111112 136.90019193857967,135.73711111111112 " fill="none" stroke-width="1.5" stroke="#696969" stroke-dasharray="10 0"></path><path d="M 136.90119193857967 135.73611111111111 C136.90119193857967,135.73611111111111 136.90019193857967,131.05555555555557 136.90019193857967,131.05555555555557 C136.90019193857967,131.05555555555557 145.26631477927063,131.0560555555556 149.4493761996161,131.05630555555558 C149.4493761996161,131.05630555555558 151.54090690978884,131.05643055555558 152.58667226487523,131.05649305555556 C152.58667226487523,131.05649305555556 153.1095549424184,131.05652430555557 153.37099628119,131.05653993055557 C153.37099628119,131.05653993055557 153.5017169505758,131.05654774305557 153.56707728526868,131.05655164930556 C153.56707728526868,131.05655164930556 153.6324376199616,131.05655555555558 153.6324376199616,131.05655555555558 " fill="none" stroke-width="1.5" stroke="#696969" stroke-dasharray="10 0"></path><path d="M 136.90119193857967 135.73611111111111 C136.90119193857967,135.73611111111111 136.90019193857967,140.41666666666669 136.90019193857967,140.41666666666669 C136.90019193857967,140.41666666666669 143.59309021113245,140.41716666666667 146.9395393474088,140.41741666666667 C146.9395393474088,140.41741666666667 148.61276391554702,140.4175416666667 149.4493761996161,140.4176041666667 C149.4493761996161,140.4176041666667 149.86768234165066,140.4176354166667 150.07683541266795,140.41765104166672 C150.07683541266795,140.41765104166672 150.18141194817656,140.4176588541667 150.23370021593087,140.4176627604167 C150.23370021593087,140.4176627604167 150.2859884836852,140.4176666666667 150.2859884836852,140.4176666666667 " fill="none" stroke-width="1.5" stroke="#696969" stroke-dasharray="10 0"></path><path d="M 79.7073339731286 128.13020833333331 C79.7073339731286,128.13020833333331 79.7063339731286,109.99305555555556 79.7063339731286,109.99305555555556 C79.7063339731286,109.99305555555556 91.11468330134358,109.99355555555556 96.81885796545106,109.99380555555555 C96.81885796545106,109.99380555555555 99.6709452975048,109.99393055555555 101.09698896353169,109.99399305555556 C101.09698896353169,109.99399305555556 101.81001079654513,109.99402430555557 102.16652171305185,109.99403993055557 C102.16652171305185,109.99403993055557 102.3447771713052,109.99404774305557 102.43390490043188,109.99405164930556 C102.43390490043188,109.99405164930556 102.52303262955856,109.99405555555556 102.52303262955856,109.99405555555556 " fill="none" stroke-width="1.5" stroke="	#6b7a1f" stroke-dasharray="10 0"></path><path d="M 102.52403262955856 109.99305555555556 C102.52403262955856,109.99305555555556 102.52303262955856,117.01388888888889 102.52303262955856,117.01388888888889 C102.52303262955856,117.01388888888889 104.72864683301344,117.01438888888889 105.83145393474089,117.0146388888889 C105.83145393474089,117.0146388888889 106.3828574856046,117.0147638888889 106.65855926103646,117.01482638888889 C106.65855926103646,117.01482638888889 106.79641014875239,117.01485763888888 106.86533559261036,117.01487326388889 C106.86533559261036,117.01487326388889 106.89979831453934,117.01488107638889 106.91702967550384,117.01488498263889 C106.91702967550384,117.01488498263889 106.93426103646833,117.01488888888889 106.93426103646833,117.01488888888889 " fill="none" stroke-width="1.5" stroke="#696969" stroke-dasharray="10 0"></path><path d="M 106.93526103646833 117.01388888888889 C106.93526103646833,117.01388888888889 106.93426103646833,112.33333333333333 106.93426103646833,112.33333333333333 C106.93426103646833,112.33333333333333 110.12859884836851,112.33383333333333 111.72576775431861,112.33408333333333 C111.72576775431861,112.33408333333333 112.52435220729366,112.33420833333332 112.92364443378119,112.33427083333333 C112.92364443378119,112.33427083333333 113.12329054702495,112.33430208333334 113.22311360364682,112.33431770833334 C113.22311360364682,112.33431770833334 113.27302513195777,112.33432552083335 113.29798089611324,112.33432942708333 C113.29798089611324,112.33432942708333 113.32293666026871,112.33433333333333 113.32293666026871,112.33433333333333 " fill="none" stroke-width="1.5" stroke="#696969" stroke-dasharray="10 0"></path><path d="M 106.93526103646833 117.01388888888889 C106.93526103646833,117.01388888888889 106.93426103646833,121.69444444444444 106.93426103646833,121.69444444444444 C106.93426103646833,121.69444444444444 109.21593090211132,121.69494444444445 110.35676583493282,121.69519444444444 C110.35676583493282,121.69519444444444 110.92718330134358,121.69531944444444 111.21239203454894,121.69538194444445 C111.21239203454894,121.69538194444445 111.35499640115162,121.69541319444446 111.42629858445298,121.69542881944446 C111.42629858445298,121.69542881944446 111.46194967610364,121.69543663194446 111.47977522192897,121.69544053819445 C111.47977522192897,121.69544053819445 111.49760076775432,121.69544444444445 111.49760076775432,121.69544444444445 " fill="none" stroke-width="1.5" stroke="#696969" stroke-dasharray="10 0"></path><path d="M 102.52403262955856 109.99305555555556 C102.52403262955856,109.99305555555556 102.52303262955856,102.97222222222223 102.52303262955856,102.97222222222223 C102.52303262955856,102.97222222222223 108.37931861804222,102.97272222222223 111.30746161228406,102.97297222222224 C111.30746161228406,102.97297222222224 112.77153310940497,102.97309722222224 113.50356885796543,102.97315972222223 C113.50356885796543,102.97315972222223 113.86958673224566,102.97319097222223 114.05259566938578,102.97320659722223 C114.05259566938578,102.97320659722223 114.14410013795583,102.97321440972223 114.18985237224086,102.97321831597223 C114.18985237224086,102.97321831597223 114.2356046065259,102.97322222222223 114.2356046065259,102.97322222222223 " fill="none" stroke-width="1.5" stroke="#696969" stroke-dasharray="10 0"></path><path d="M 76.0566621880998 110.87065972222223 C76.0566621880998,110.87065972222223 76.0556621880998,93.61111111111111 76.0556621880998,93.61111111111111 C76.0556621880998,93.61111111111111 94.30902111324374,93.61161111111112 103.43570057581573,93.61186111111112 C103.43570057581573,93.61186111111112 107.99904030710172,93.61198611111112 110.2807101727447,93.61204861111112 C110.2807101727447,93.61204861111112 111.4215451055662,93.61207986111111 111.99196257197696,93.61209548611112 C111.99196257197696,93.61209548611112 112.27717130518232,93.61210329861112 112.419775671785,93.61210720486112 C112.419775671785,93.61210720486112 112.5623800383877,93.61211111111112 112.5623800383877,93.61211111111112 " fill="none" stroke-width="1.5" stroke=" #071455" stroke-dasharray="8 4"></path><path d="M 0.001 18.41140407986111 C0.001,18.41140407986111 0,0 0,0 C0,0 70.73176583493282,0.0005 106.09764875239922,0.00075 C106.09764875239922,0.00075 123.78059021113242,0.000875 132.622060940499,0.0009375 C132.622060940499,0.0009375 137.04279630518232,0.00096875 139.25316398752398,0.000984375 C139.25316398752398,0.000984375 140.3583478286948,0.0009921875 140.9109397492802,0.00099609375 C140.9109397492802,0.00099609375 141.46353166986563,0.001 141.46353166986563,0.001 " fill="none" stroke-width="1.5" stroke="	#73878c" stroke-dasharray="8 4"></path></g><g class="node-layer"><g><text alignment-baseline="middle" text-anchor="start" transform="translate(131.33973128598848,9.36111111111111) rotate(0)" fill="black" font-size="8" font-weight="300" font-family="HelveticaNeue-Light" dy="3">RoC/2003</text><path stroke-width="1" stroke="grey" stroke-dasharray="2" d="M125.33973128598849 9.36111111111111L125.33973128598849 9.36111111111111"></path></g><g><text alignment-baseline="middle" text-anchor="start" transform="translate(128.90595009596927,18.72222222222222) rotate(0)" fill="black" font-size="8" font-weight="300" font-family="HelveticaNeue-Light" dy="3">Gabon/2001</text><path stroke-width="1" stroke="grey" stroke-dasharray="2" d="M122.90595009596929 18.72222222222222L122.90595009596929 18.72222222222222"></path></g><g><text alignment-baseline="middle" text-anchor="start" transform="translate(139.40163147792708,28.083333333333332) rotate(0)" fill="black" font-size="8" font-weight="300" font-family="HelveticaNeue-Light" dy="3">Kasaï/2008</text><path stroke-width="1" stroke="grey" stroke-dasharray="2" d="M133.40163147792708 28.083333333333332L133.40163147792708 28.083333333333332"></path></g><g><text alignment-baseline="middle" text-anchor="start" transform="translate(137.33291746641075,37.44444444444444) rotate(0)" fill="black" font-size="8" font-weight="300" font-family="HelveticaNeue-Light" dy="3">Kasaï/2007 </text><path stroke-width="1" stroke="grey" stroke-dasharray="2" d="M131.33291746641075 37.44444444444444L131.33291746641075 37.44444444444444"></path></g><g><text alignment-baseline="middle" text-anchor="start" transform="translate(90.8324856046065,74.88888888888889) rotate(0)" fill="black" font-size="8" font-weight="300" font-family="HelveticaNeue-Light" dy="3">Sud-Ubangi/1977</text><path stroke-width="1" stroke="grey" stroke-dasharray="2" d="M84.8324856046065 74.88888888888889L84.8324856046065 74.88888888888889"></path></g><g><text alignment-baseline="middle" text-anchor="start" transform="translate(89.70686180422264,84.25) rotate(0)" fill="black" font-size="8" font-weight="300" font-family="HelveticaNeue-Light" dy="3">Yambuku/1976 </text><path stroke-width="1" stroke="grey" stroke-dasharray="2" d="M83.70686180422264 84.25L83.70686180422264 84.25"></path></g><g><text alignment-baseline="middle" text-anchor="start" transform="translate(164.5,65.52777777777779) rotate(0)" fill="black" font-size="8" font-weight="300" font-family="HelveticaNeue-Light" dy="3">Kasaï/2025</text><path stroke-width="1" stroke="grey" stroke-dasharray="2" d="M158.5 65.52777777777779L158.5 65.52777777777779"></path></g><g><text alignment-baseline="middle" text-anchor="start" transform="translate(153.85220729366603,46.80555555555556) rotate(0)" fill="black" font-size="8" font-weight="300" font-family="HelveticaNeue-Light" dy="3">Kivu/2018</text><path stroke-width="1" stroke="grey" stroke-dasharray="2" d="M147.85220729366603 46.80555555555556L147.85220729366603 46.80555555555556"></path></g><g><text alignment-baseline="middle" text-anchor="start" transform="translate(152.33109404990404,56.166666666666664) rotate(0)" fill="black" font-size="8" font-weight="300" font-family="HelveticaNeue-Light" dy="3">Bas-Uele/2017</text><path stroke-width="1" stroke="grey" stroke-dasharray="2" d="M146.33109404990404 56.166666666666664L146.33109404990404 56.166666666666664"></path></g><g><text alignment-baseline="middle" text-anchor="start" transform="translate(156.43809980806142,159.13888888888889) rotate(0)" fill="black" font-size="8" font-weight="300" font-family="HelveticaNeue-Light" dy="3">Equateur/2020</text><path stroke-width="1" stroke="grey" stroke-dasharray="2" d="M150.43809980806142 159.13888888888889L150.43809980806142 159.13888888888889"></path></g><g><text alignment-baseline="middle" text-anchor="start" transform="translate(153.27418426103645,168.5) rotate(0)" fill="black" font-size="8" font-weight="300" font-family="HelveticaNeue-Light" dy="3">Equateur/2018</text><path stroke-width="1" stroke="grey" stroke-dasharray="2" d="M147.27418426103645 168.5L147.27418426103645 168.5"></path></g><g><text alignment-baseline="middle" text-anchor="start" transform="translate(147.61564299424182,149.77777777777777) rotate(0)" fill="black" font-size="8" font-weight="300" font-family="HelveticaNeue-Light" dy="3">Tshuapa/2014</text><path stroke-width="1" stroke="grey" stroke-dasharray="2" d="M141.61564299424182 149.77777777777777L141.61564299424182 149.77777777777777"></path></g><g><text alignment-baseline="middle" text-anchor="start" transform="translate(159.6324376199616,131.05555555555557) rotate(0)" fill="black" font-size="8" font-weight="300" font-family="HelveticaNeue-Light" dy="3">Equateur/2022 </text><path stroke-width="1" stroke="grey" stroke-dasharray="2" d="M153.6324376199616 131.05555555555557L153.6324376199616 131.05555555555557"></path></g><g><text alignment-baseline="middle" text-anchor="start" transform="translate(156.2859884836852,140.41666666666669) rotate(0)" fill="black" font-size="8" font-weight="300" font-family="HelveticaNeue-Light" dy="3">Equateur/2020</text><path stroke-width="1" stroke="grey" stroke-dasharray="2" d="M150.2859884836852 140.41666666666669L150.2859884836852 140.41666666666669"></path></g><g><text alignment-baseline="middle" text-anchor="start" transform="translate(119.32293666026871,112.33333333333333) rotate(0)" fill="black" font-size="8" font-weight="300" font-family="HelveticaNeue-Light" dy="3">Gabon/1996a</text><path stroke-width="1" stroke="grey" stroke-dasharray="2" d="M113.32293666026871 112.33333333333333L113.32293666026871 112.33333333333333"></path></g><g><text alignment-baseline="middle" text-anchor="start" transform="translate(117.49760076775432,121.69444444444444) rotate(0)" fill="black" font-size="8" font-weight="300" font-family="HelveticaNeue-Light" dy="3">Gabon/1994</text><path stroke-width="1" stroke="grey" stroke-dasharray="2" d="M111.49760076775432 121.69444444444444L111.49760076775432 121.69444444444444"></path></g><g><text alignment-baseline="middle" text-anchor="start" transform="translate(120.2356046065259,102.97222222222223) rotate(0)" fill="black" font-size="8" font-weight="300" font-family="HelveticaNeue-Light" dy="3">Gabon/1996b</text><path stroke-width="1" stroke="grey" stroke-dasharray="2" d="M114.2356046065259 102.97222222222223L114.2356046065259 102.97222222222223"></path></g><g><text alignment-baseline="middle" text-anchor="start" transform="translate(118.5623800383877,93.61111111111111) rotate(0)" fill="black" font-size="8" font-weight="300" font-family="HelveticaNeue-Light" dy="3">Kwilu/1995</text><path stroke-width="1" stroke="grey" stroke-dasharray="2" d="M112.5623800383877 93.61111111111111L112.5623800383877 93.61111111111111"></path></g></g><g class="node-layer"><circle class="node-shape" r="3" fill="#696969" cursor="pointer" cx="125.33973128598849" cy="9.36111111111111"></circle><circle class="node-shape" r="3" fill="#696969" cursor="pointer" cx="122.90595009596929" cy="18.72222222222222"></circle><circle class="node-shape" r="3" fill="#696969" cursor="pointer" cx="133.40163147792708" cy="28.083333333333332"></circle><circle class="node-shape" r="3" fill="#696969" cursor="pointer" cx="131.33291746641075" cy="37.44444444444444"></circle><circle class="node-shape" r="3" fill="#696969" cursor="pointer" cx="84.8324856046065" cy="74.88888888888889"></circle><circle class="node-shape" r="3" fill="#696969" cursor="pointer" cx="83.70686180422264" cy="84.25"></circle><circle class="node-shape" r="3" fill="#696969" cursor="pointer" cx="158.5" cy="65.52777777777779"></circle><circle class="node-shape" r="3" fill="#696969" cursor="pointer" cx="147.85220729366603" cy="46.80555555555556"></circle><circle class="node-shape" r="3" fill="#696969" cursor="pointer" cx="146.33109404990404" cy="56.166666666666664"></circle><circle class="node-shape" r="3" fill="#696969" cursor="pointer" cx="150.43809980806142" cy="159.13888888888889"></circle><circle class="node-shape" r="3" fill="#696969" cursor="pointer" cx="147.27418426103645" cy="168.5"></circle><circle class="node-shape" r="3" fill="#696969" cursor="pointer" cx="141.61564299424182" cy="149.77777777777777"></circle><circle class="node-shape" r="3" fill="#696969" cursor="pointer" cx="153.6324376199616" cy="131.05555555555557"></circle><circle class="node-shape" r="3" fill="#696969" cursor="pointer" cx="150.2859884836852" cy="140.41666666666669"></circle><circle class="node-shape" r="3" fill="#696969" cursor="pointer" cx="113.32293666026871" cy="112.33333333333333"></circle><circle class="node-shape" r="3" fill="#696969" cursor="pointer" cx="111.49760076775432" cy="121.69444444444444"></circle><circle class="node-shape" r="3" fill="#696969" cursor="pointer" cx="114.2356046065259" cy="102.97222222222223"></circle><circle class="node-shape" r="3" fill="#696969" cursor="pointer" cx="112.5623800383877" cy="93.61111111111111"></circle><circle class="node-shape" r="3" fill="#696969" cursor="pointer" cx="141.46353166986563" cy="0"></circle></g><g class="node-layer"><circle class="node-shape" r="2" fill="#6cabb4" cursor="pointer" cx="125.33973128598849" cy="9.36111111111111"></circle><circle class="node-shape" r="2" fill="#6cabb4" cursor="pointer" cx="122.90595009596929" cy="18.72222222222222"></circle><circle class="node-shape" r="2" fill="	#f6d292" cursor="pointer" cx="133.40163147792708" cy="28.083333333333332"></circle><circle class="node-shape" r="2" fill="	#f6d292" cursor="pointer" cx="131.33291746641075" cy="37.44444444444444"></circle><circle class="node-shape" r="2" fill="#f4dc2a" cursor="pointer" cx="84.8324856046065" cy="74.88888888888889"></circle><circle class="node-shape" r="2" fill="#f4dc2a" cursor="pointer" cx="83.70686180422264" cy="84.25"></circle><circle class="node-shape" r="2" fill="#805882" cursor="pointer" cx="158.5" cy="65.52777777777779"></circle><circle class="node-shape" r="2" fill="	#d43511" cursor="pointer" cx="147.85220729366603" cy="46.80555555555556"></circle><circle class="node-shape" r="2" fill="	#d43511" cursor="pointer" cx="146.33109404990404" cy="56.166666666666664"></circle><circle class="node-shape" r="2" fill=" #936310" cursor="pointer" cx="150.43809980806142" cy="159.13888888888889"></circle><circle class="node-shape" r="2" fill=" #936310" cursor="pointer" cx="147.27418426103645" cy="168.5"></circle><circle class="node-shape" r="2" fill=" #936310" cursor="pointer" cx="141.61564299424182" cy="149.77777777777777"></circle><circle class="node-shape" r="2" fill=" #936310" cursor="pointer" cx="153.6324376199616" cy="131.05555555555557"></circle><circle class="node-shape" r="2" fill=" #936310" cursor="pointer" cx="150.2859884836852" cy="140.41666666666669"></circle><circle class="node-shape" r="2" fill="	#6b7a1f" cursor="pointer" cx="113.32293666026871" cy="112.33333333333333"></circle><circle class="node-shape" r="2" fill="	#6b7a1f" cursor="pointer" cx="111.49760076775432" cy="121.69444444444444"></circle><circle class="node-shape" r="2" fill="	#6b7a1f" cursor="pointer" cx="114.2356046065259" cy="102.97222222222223"></circle><circle class="node-shape" r="2" fill=" #071455" cursor="pointer" cx="112.5623800383877" cy="93.61111111111111"></circle><circle class="node-shape" r="2" fill="	#73878c" cursor="pointer" cx="141.46353166986563" cy="0"></circle></g><g class="node-layer"><rect class="node-shape" stroke="black" stroke-dasharray="2 2" stroke-width="1.5" fill="white" rx="1" x="-5" y="13.41140407986111" width="10" height="10"></rect></g><g class="node-layer"><circle class="node-shape" r="3" fill="black" cx="0" cy="18.41140407986111"></circle></g><g class="node-layer"><rect class="node-shape" fill="#2F4F4F" rx="1" x="14.232245681381958" y="34.32280815972222" width="5" height="5"></rect><rect class="node-shape" fill="#2F4F4F" rx="1" x="17.274472168905948" y="57.10394965277778" width="5" height="5"></rect><rect class="node-shape" fill="#2F4F4F" rx="1" x="52.26007677543186" y="83.94401041666667" width="5" height="5"></rect><rect class="node-shape" fill="#2F4F4F" rx="1" x="54.08541266794626" y="59.517361111111114" width="5" height="5"></rect><rect class="node-shape" fill="#2F4F4F" rx="1" x="73.5556621880998" y="108.37065972222223" width="5" height="5"></rect><rect class="node-shape" fill="#2F4F4F" rx="1" x="77.2063339731286" y="125.63020833333331" width="5" height="5"></rect></g><g class="node-layer"><rect class="node-shape" fill="#6cabb4" rx="1" stroke="696969" stroke-width="0.5" x="111.58349328214972" y="11.541666666666666" width="5" height="5"></rect><rect class="node-shape" fill="	#f6d292" rx="1" stroke="696969" stroke-width="0.5" x="128.31573896353166" y="30.263888888888893" width="5" height="5"></rect><rect class="node-shape" fill="#f4dc2a" rx="1" stroke="696969" stroke-width="0.5" x="80.85700575815738" y="77.06944444444444" width="5" height="5"></rect><rect class="node-shape" fill="	#d43511" rx="1" stroke="696969" stroke-width="0.5" x="96.67658349328215" y="48.986111111111114" width="5" height="5"></rect><rect class="node-shape" fill=" #936310" rx="1" stroke="696969" stroke-width="0.5" x="119.79750479846449" y="143.76736111111111" width="5" height="5"></rect><rect class="node-shape" fill="	#6b7a1f" rx="1" stroke="696969" stroke-width="0.5" x="100.02303262955856" y="107.49305555555556" width="5" height="5"></rect></g></g></g></g><text x="3" y="15" font-size="18" font-family="HelveticaNeue-Light">A</text></g><g transform="translate(228.5, 0)"><g transform="scale(1)"><style>:where(.plot-d6a7b5) {
  --plot-background: white;
  display: block;
  height: auto;
  height: intrinsic;
  max-width: 100%;
}
:where(.plot-d6a7b5 text),
:where(.plot-d6a7b5 tspan) {
  white-space: pre;
}</style><g aria-label="geo" fill="none" stroke="currentColor" stroke-opacity="0.1" stroke-linejoin="round" stroke-linecap="round"><path d="M0.5,104.771L14.719,104.771L38.417,104.771L62.115,104.771L85.813,104.771L109.51,104.771L133.208,104.771L156.906,104.771L180.604,104.771L204.302,104.771L228,104.771M38.417,228L38.417,223.26L38.417,9.979L38.417,0.5M133.208,228L133.208,223.26L133.208,9.979L133.208,0.5M0.5,199.563L14.719,199.563L38.417,199.563L62.115,199.563L85.813,199.563L109.51,199.563L133.208,199.563L156.906,199.563L180.604,199.563L204.302,199.563L228,199.563M0.5,9.979L14.719,9.979L38.417,9.979L62.115,9.979L85.813,9.979L109.51,9.979L133.208,9.979L156.906,9.979L180.604,9.979L204.302,9.979L228,9.979"></path></g><g aria-label="geo" fill="#e0e0e0" stroke="black" stroke-linejoin="round" stroke-linecap="round"><path d="M169.279,22.62L176.513,26.759L170.064,23.069ZM228,170.055L224.391,166.567L222.514,161.08L222.514,161.08L224.391,166.583L228,170.061L228,228L65.516,228L69.803,223.106L72.875,218.887L73.864,211.859L73.352,206.485L70.52,203.099L67.995,197.356L65.674,191.66L66.186,189.703L69.087,185.932L66.22,176.787L64.275,170.434L59.532,164.433L60.419,162.588L59.088,159.652L56.563,152.528L48.782,142.485L39.057,132.923L32.777,125.093L27.01,115.306L27.317,112.162L29.399,109.129L31.685,102.23L33.596,95.203L31.822,93.759L35.098,83.122L36.463,75.645L32.777,69.372L28.444,67.768L26.533,63.516L24.075,62.152L24.212,59.537L14.35,62.955L10.767,62.457L7.115,64.575L0.5,64.393L0.5,0.5L228,0.5Z"></path></g><g aria-label="geo" fill="none" stroke="currentColor" stroke-linejoin="round" stroke-linecap="round"><path d="M60.419,162.588L64.343,161.321L67.073,161.497L70.418,160.358L98.4,160.486L100.721,167.546L103.451,173.225L105.635,176.29L109.252,181.247L115.531,180.493L118.637,179.162L123.892,180.493L125.325,178.119L127.68,172.6L133.55,172.231L134.061,170.578L138.907,170.546L138.088,173.963L149.588,173.883L149.759,179.852L151.67,183.51L150.271,189.221L150.988,195.045L154.161,198.559L153.649,209.838L155.97,208.971L160.099,209.212L165.969,207.784L170.303,208.346L171.292,211.298L170.2,215.886L171.872,220.331L170.473,223.892L171.292,227.149L151.534,227.037L151.519,228M56.563,152.528L60.385,148.437L63.251,146.833L66.8,150.09L63.354,152.079L61.818,154.518L61.511,158.657L59.088,159.652M176.513,26.759L181.7,30.594L181.769,33.674L188.15,38.616L192.109,42.707L194.497,48.403L201.596,52.157L203.097,55.157L199.992,56.168L193.917,55.943L186.785,54.949L183.236,55.767L181.837,58.061L178.766,58.35L175.012,56.344L164.467,61.077L160.133,60.115L158.836,60.853L156.004,66.581L148.94,64.735L142.013,63.789L135.972,60.291L128.158,57.082L123.073,60.131L119.388,64.944L118.534,71.554L112.46,71.025L106.045,69.436L100.38,74.458L95.397,83.282L94.408,80.523L93.998,76.207L89.664,73.159L86.149,68.265L85.365,64.864L80.86,59.906L81.645,57.082L80.689,53.088L81.406,45.739L83.692,44.023L88.47,34.412L96.285,33.706L98.059,31.268L99.629,31.444L101.984,33.594L113.928,29.968L117.954,26.278L122.902,22.957L121.947,19.62L124.609,18.753L133.788,19.331L142.695,14.951L149.554,4.602L154.366,0.768L155.359,0.5M160.725,0.5L161.43,3.207L166.89,9.127L166.924,12.993L165.389,16.94L166.003,19.892L169.279,22.62M95.397,83.282L94.715,88.4L87.207,86.154L79.529,83.651L67.585,83.282L66.391,82.769L60.794,83.988L55.027,82.721L50.523,83.331L35.098,83.122M24.212,59.537L26.635,52.831L31.139,43.686L33.904,43.589L39.534,38.054L43.117,37.894L48.441,41.792L54.959,38.6L55.846,34.653L57.996,30.834L59.463,26.037L64.514,22.139L66.425,15.496L68.438,13.378L69.769,8.453L72.295,2.404L74.369,0.5M85.148,0.5L85.092,1.538L90.245,10.154L84.955,10.057L82.293,10.731L77.959,9.769L75.912,14.245L81.508,19.78L85.638,21.384L86.968,25.315L89.937,31.845L88.47,34.412M203.097,55.157L208.864,62.987L213.096,64.126L215.655,62.537L220.023,63.163L225.313,61.158L227.565,65.201L228,65.53M228,96.513L226.814,99.102L226.302,106.723L224.084,110.333L224.016,117.488L221.286,120.136L220.945,125.767L219.648,126.505L218.761,131.687M221.729,147.426L221.149,135.987L218.761,131.687L224.528,132.425L227.428,127.035L228,127.104M228,144.64L225.654,146.977L221.729,147.426L223.436,156.154L222.514,161.08M228,183.278L218.556,184.456L215.996,185.595L213.301,191.644L215.416,195.831L213.744,207.046L212.584,216.56L215.143,218.245L221.764,221.935L224.357,220.218L224.955,228M216.148,228L214.017,225.144L210.502,221.101L203.234,219.785L201.118,214.811L195.316,217.812L187.741,216.48L184.567,212.18L178.561,211.298L174.09,211.538L173.579,208.586L170.303,208.346M66.8,150.09L69.292,151.052L72.533,147.426L77.721,147.523L78.301,150.202L81.85,151.887L87.446,145.95L92.94,141.314L95.363,138.281L95.022,130.484L99.151,121.275L103.485,116.397L109.73,111.825L110.822,108.792L111.061,105.327L112.597,102.038L112.119,96.663L113.279,88.256L115.156,82.352L117.988,77.282L118.534,71.554M48.782,142.485L56.017,137.255L52.434,130.981L55.676,128.607L62.057,127.436L62.842,123.248L67.892,127.789L76.253,128.19L79.154,123.713L80.382,117.408L79.324,110.012L74.854,104.396L78.949,93.422L76.594,91.545L69.53,92.315L66.869,87.422L67.585,83.282M33.596,95.203L36.804,94.642L50.591,94.738L50.523,83.331M224.016,117.488L226.302,118.451L228,117.576M228,7.235L227.974,7.218L224.391,9.175L223.402,11.935L218.522,13.731L218.215,15.689L208.762,15.689L207.465,13.731L200.64,13.411L197.227,15.031L194.6,14.213L189.72,8.694L188.082,6.078L181.257,7.378L178.663,11.774L176.206,20.245L172.964,22.026L170.064,23.069"></path></g><g aria-label="line" stroke-linejoin="round" stroke-linecap="round"><path opacity="0.7" fill="#f4dc2a" stroke="black" d="M146.531,78.841C146.861,78.918,147.192,78.918,147.522,78.995C147.852,79.072,148.183,79.227,148.513,79.304C148.843,79.381,149.174,79.381,149.504,79.459C149.834,79.536,150.165,79.69,150.495,79.767C150.825,79.845,151.156,79.845,151.486,79.767C151.816,79.69,152.147,79.536,152.477,79.459C152.807,79.381,153.138,79.381,153.468,79.304C153.798,79.227,154.129,79.072,154.459,78.995C154.789,78.918,155.12,78.918,155.285,78.841C155.45,78.764,155.45,78.609,155.45,78.455C155.45,78.3,155.45,78.146,155.285,77.991C155.12,77.837,154.789,77.682,154.459,77.528C154.129,77.374,153.798,77.219,153.468,77.142C153.138,77.065,152.807,77.065,152.477,76.987C152.147,76.91,151.816,76.756,151.486,76.679C151.156,76.601,150.825,76.601,150.495,76.601C150.165,76.601,149.834,76.601,149.504,76.601C149.174,76.601,148.843,76.601,148.513,76.601C148.183,76.601,147.852,76.601,147.522,76.601C147.192,76.601,146.861,76.601,146.531,76.679C146.201,76.756,145.87,76.91,145.705,77.065C145.54,77.219,145.54,77.374,145.54,77.528C145.54,77.682,145.54,77.837,145.54,77.991C145.54,78.146,145.54,78.3,145.705,78.455C145.87,78.609,146.201,78.764,146.531,78.841"></path><path opacity="0.7" fill="	#6b7a1f" stroke="black" d="M55.968,107.698C56.517,108.106,56.517,108.514,57.067,108.922C57.616,109.331,58.715,109.739,59.814,110.147C60.913,110.555,62.012,110.963,63.11,111.371C64.209,111.779,65.308,112.187,66.407,112.391C67.506,112.595,68.605,112.595,69.704,112.595C70.802,112.595,71.901,112.595,73,112.595C74.099,112.595,75.198,112.595,76.297,112.595C77.395,112.595,78.494,112.595,79.593,112.391C80.692,112.187,81.791,111.779,82.34,111.371C82.89,110.963,82.89,110.555,83.439,110.147C83.988,109.739,85.087,109.331,85.087,108.922C85.087,108.514,83.988,108.106,83.439,107.698C82.89,107.29,82.89,106.882,82.89,106.474C82.89,106.066,82.89,105.658,82.89,105.25C82.89,104.842,82.89,104.434,82.34,104.026C81.791,103.618,80.692,103.209,79.593,102.801C78.494,102.393,77.395,101.985,76.846,101.577C76.297,101.169,76.297,100.761,75.747,100.353C75.198,99.945,74.099,99.537,73,99.333C71.901,99.129,70.802,99.129,69.704,99.129C68.605,99.129,67.506,99.129,66.407,98.925C65.308,98.721,64.209,98.313,63.11,98.109C62.012,97.904,60.913,97.904,59.814,97.904C58.715,97.904,57.616,97.904,57.067,98.109C56.517,98.313,56.517,98.721,55.968,99.129C55.419,99.537,54.32,99.945,53.77,100.353C53.221,100.761,53.221,101.169,52.671,101.577C52.122,101.985,51.023,102.393,50.474,102.801C49.924,103.209,49.924,103.618,49.924,104.026C49.924,104.434,49.924,104.842,50.474,105.25C51.023,105.658,52.122,106.066,53.221,106.474C54.32,106.882,55.419,107.29,55.968,107.698"></path><path opacity="0.7" fill="#6cabb4" stroke="black" d="M65.104,101.558C65.626,102.022,66.671,102.487,67.717,102.952C68.762,103.416,69.807,103.881,70.852,104.345C71.897,104.81,72.942,105.275,73.987,105.507C75.032,105.739,76.077,105.739,77.122,105.971C78.167,106.204,79.212,106.668,80.257,106.901C81.303,107.133,82.348,107.133,83.393,107.133C84.438,107.133,85.483,107.133,86.528,107.133C87.573,107.133,88.618,107.133,89.663,106.901C90.708,106.668,91.753,106.204,92.798,105.739C93.843,105.275,94.889,104.81,95.934,104.578C96.979,104.345,98.024,104.345,98.546,104.113C99.069,103.881,99.069,103.416,99.069,102.952C99.069,102.487,99.069,102.022,99.069,101.558C99.069,101.093,99.069,100.629,98.546,100.164C98.024,99.7,96.979,99.235,96.456,98.77C95.934,98.306,95.934,97.841,95.411,97.377C94.889,96.912,93.843,96.447,93.321,95.983C92.798,95.518,92.798,95.054,92.276,94.821C91.753,94.589,90.708,94.589,89.663,94.357C88.618,94.125,87.573,93.66,86.528,93.428C85.483,93.195,84.438,93.195,83.393,92.963C82.348,92.731,81.303,92.266,80.257,92.034C79.212,91.802,78.167,91.802,77.122,91.802C76.077,91.802,75.032,91.802,73.987,91.802C72.942,91.802,71.897,91.802,70.852,91.802C69.807,91.802,68.762,91.802,67.717,92.034C66.671,92.266,65.626,92.731,65.104,93.195C64.581,93.66,64.581,94.125,64.059,94.589C63.536,95.054,62.491,95.518,61.969,95.983C61.446,96.447,61.446,96.912,61.446,97.377C61.446,97.841,61.446,98.306,61.969,98.77C62.491,99.235,63.536,99.7,64.059,100.164C64.581,100.629,64.581,101.093,65.104,101.558"></path><path opacity="0.7" fill="	#f6d292" stroke="black" d="M140.748,155.586C140.748,155.749,140.748,155.911,140.96,156.073C141.172,156.235,141.597,156.397,142.021,156.559C142.445,156.721,142.87,156.883,143.294,156.964C143.718,157.045,144.142,157.045,144.567,157.045C144.991,157.045,145.415,157.045,145.84,157.045C146.264,157.045,146.688,157.045,147.112,157.045C147.537,157.045,147.961,157.045,148.385,157.045C148.809,157.045,149.234,157.045,149.446,156.964C149.658,156.883,149.658,156.721,149.658,156.559C149.658,156.397,149.658,156.235,149.658,156.073C149.658,155.911,149.658,155.749,149.658,155.586C149.658,155.424,149.658,155.262,149.658,155.1C149.658,154.938,149.658,154.776,149.446,154.614C149.234,154.452,148.809,154.29,148.385,154.128C147.961,153.966,147.537,153.804,147.324,153.642C147.112,153.48,147.112,153.317,146.9,153.236C146.688,153.155,146.264,153.155,145.84,153.074C145.415,152.993,144.991,152.831,144.567,152.75C144.142,152.669,143.718,152.669,143.294,152.75C142.87,152.831,142.445,152.993,142.021,153.074C141.597,153.155,141.172,153.155,140.96,153.236C140.748,153.317,140.748,153.48,140.748,153.642C140.748,153.804,140.748,153.966,140.536,154.128C140.324,154.29,139.9,154.452,139.9,154.614C139.9,154.776,140.324,154.938,140.536,155.1C140.748,155.262,140.748,155.424,140.748,155.586"></path><path opacity="0.7" fill="	#d43511" stroke="black" d="M140.363,93.622C141.425,94.52,143.549,95.417,144.611,96.315C145.673,97.212,145.673,98.11,146.735,99.008C147.797,99.905,149.921,100.803,152.044,101.7C154.168,102.598,156.292,103.495,158.416,103.944C160.54,104.393,162.664,104.393,164.788,104.393C166.912,104.393,169.036,104.393,171.16,104.393C173.284,104.393,175.408,104.393,177.532,104.393C179.656,104.393,181.78,104.393,183.904,104.393C186.028,104.393,188.152,104.393,190.276,104.393C192.4,104.393,194.524,104.393,195.586,103.944C196.648,103.495,196.648,102.598,197.71,101.7C198.772,100.803,200.896,99.905,201.958,99.008C203.02,98.11,203.02,97.212,203.02,96.315C203.02,95.417,203.02,94.52,203.02,93.622C203.02,92.725,203.02,91.827,201.958,90.929C200.896,90.032,198.772,89.134,197.71,88.237C196.648,87.339,196.648,86.442,195.586,85.544C194.524,84.647,192.4,83.749,190.276,82.851C188.152,81.954,186.028,81.056,183.904,80.159C181.78,79.261,179.656,78.364,177.532,77.466C175.408,76.568,173.284,75.671,171.16,75.222C169.036,74.773,166.912,74.773,164.788,74.773C162.664,74.773,160.54,74.773,158.416,74.773C156.292,74.773,154.168,74.773,152.044,74.773C149.921,74.773,147.797,74.773,145.673,75.222C143.549,75.671,141.425,76.568,140.363,77.466C139.301,78.364,139.301,79.261,139.301,80.159C139.301,81.056,139.301,81.954,138.239,82.851C137.177,83.749,135.053,84.647,135.053,85.544C135.053,86.442,137.177,87.339,138.239,88.237C139.301,89.134,139.301,90.032,139.301,90.929C139.301,91.827,139.301,92.725,140.363,93.622"></path><path opacity="0.7" fill=" #936310" stroke="black" d="M102.24,110.554C102.896,111.193,102.896,111.833,103.552,112.152C104.209,112.472,105.522,112.472,106.835,112.792C108.147,113.112,109.46,113.751,110.773,114.39C112.086,115.03,113.399,115.669,114.712,115.989C116.025,116.308,117.337,116.308,118.65,116.308C119.963,116.308,121.276,116.308,122.589,116.628C123.902,116.948,125.215,117.587,126.527,117.907C127.84,118.226,129.153,118.226,130.466,118.226C131.779,118.226,133.092,118.226,134.404,117.907C135.717,117.587,137.03,116.948,138.343,116.308C139.656,115.669,140.969,115.03,141.625,114.39C142.282,113.751,142.282,113.112,142.282,112.472C142.282,111.833,142.282,111.193,142.282,110.554C142.282,109.915,142.282,109.275,142.282,108.636C142.282,107.997,142.282,107.357,141.625,106.718C140.969,106.079,139.656,105.439,138.343,104.8C137.03,104.161,135.717,103.521,135.061,102.882C134.404,102.243,134.404,101.603,133.748,101.284C133.092,100.964,131.779,100.964,130.466,100.644C129.153,100.325,127.84,99.685,126.527,99.366C125.215,99.046,123.902,99.046,122.589,99.046C121.276,99.046,119.963,99.046,118.65,98.726C117.337,98.407,116.025,97.767,114.712,97.448C113.399,97.128,112.086,97.128,110.773,97.448C109.46,97.767,108.147,98.407,106.835,99.046C105.522,99.685,104.209,100.325,102.896,100.964C101.583,101.603,100.27,102.243,99.614,102.882C98.957,103.521,98.957,104.161,98.957,104.8C98.957,105.439,98.957,106.079,98.957,106.718C98.957,107.357,98.957,107.997,99.614,108.636C100.27,109.275,101.583,109.915,102.24,110.554"></path></g><g aria-label="line" fill="none" stroke-width="1.5" stroke-linejoin="round" stroke-linecap="round" stroke-dasharray="1 5"><path stroke="black" d="M29.205,98.824C30.952,99.669,34.447,99.669,37.943,100.514C41.438,101.359,44.933,103.049,46.681,104.738C48.428,106.428,48.428,108.118,50.176,109.808C51.923,111.498,55.419,113.188,58.914,114.033C62.409,114.878,65.904,114.878,69.399,114.878C72.895,114.878,76.39,114.878,79.885,114.878C83.38,114.878,86.875,114.878,90.37,114.878C93.866,114.878,97.361,114.878,100.856,114.878C104.351,114.878,107.846,114.878,111.342,114.033C114.837,113.188,118.332,111.498,120.08,109.808C121.827,108.118,121.827,106.428,121.827,104.738C121.827,103.049,121.827,101.359,121.827,99.669C121.827,97.979,121.827,96.289,120.08,94.599C118.332,92.909,114.837,91.219,113.089,89.529C111.342,87.839,111.342,86.149,109.594,85.304C107.846,84.459,104.351,84.459,100.856,83.614C97.361,82.769,93.866,81.079,90.37,79.389C86.875,77.699,83.38,76.009,79.885,75.164C76.39,74.32,72.895,74.32,69.399,74.32C65.904,74.32,62.409,74.32,58.914,74.32C55.419,74.32,51.923,74.32,48.428,74.32C44.933,74.32,41.438,74.32,37.943,74.32C34.447,74.32,30.952,74.32,29.205,75.164C27.457,76.009,27.457,77.699,27.457,79.389C27.457,81.079,27.457,82.769,27.457,84.459C27.457,86.149,27.457,87.839,27.457,89.529C27.457,91.219,27.457,92.909,27.457,94.599C27.457,96.289,27.457,97.979,29.205,98.824"></path></g><g aria-label="line" fill="none" stroke-width="1.5" stroke-linejoin="round" stroke-linecap="round"><path stroke="#2F4F4F" d="M80.066,108.909C80.066,109.869,80.066,110.83,81.212,111.791C82.358,112.752,84.651,113.713,86.943,114.674C89.236,115.635,91.528,116.595,93.82,117.556C96.113,118.517,98.405,119.478,100.698,119.958C102.99,120.439,105.283,120.439,107.575,120.919C109.868,121.4,112.16,122.361,114.453,122.361C116.745,122.361,119.037,121.4,121.33,120.919C123.622,120.439,125.915,120.439,127.061,119.958C128.207,119.478,128.207,118.517,129.353,117.556C130.5,116.595,132.792,115.635,133.938,114.674C135.085,113.713,135.085,112.752,135.085,111.791C135.085,110.83,135.085,109.869,136.231,108.909C137.377,107.948,139.669,106.987,140.816,106.026C141.962,105.065,141.962,104.104,141.962,103.143C141.962,102.183,141.962,101.222,141.962,100.261C141.962,99.3,141.962,98.339,140.816,97.378C139.669,96.417,137.377,95.457,136.231,94.496C135.085,93.535,135.085,92.574,133.938,92.094C132.792,91.613,130.5,91.613,128.207,91.133C125.915,90.652,123.622,89.691,121.33,89.211C119.037,88.731,116.745,88.731,114.453,88.731C112.16,88.731,109.868,88.731,107.575,89.211C105.283,89.691,102.99,90.652,100.698,91.613C98.405,92.574,96.113,93.535,93.82,94.015C91.528,94.496,89.236,94.496,88.089,94.976C86.943,95.457,86.943,96.417,86.943,97.378C86.943,98.339,86.943,99.3,85.797,100.261C84.651,101.222,82.358,102.183,81.212,103.143C80.066,104.104,80.066,105.065,80.066,106.026C80.066,106.987,80.066,107.948,80.066,108.909"></path></g><g aria-label="dot" fill="#696969"><circle cx="82.9322078124776" cy="100.70895354166578" r="3"></circle><circle cx="77.80203541663786" cy="98.13199468749895" r="3"></circle><circle cx="146.2873295573902" cy="153.08420365514917" r="3"></circle><circle cx="145.10025392269108" cy="155.57071446254304" r="3"></circle><circle cx="127.04338666664921" cy="76.58652187499365" r="3"></circle><circle cx="154.30400072916632" cy="77.9903959375049" r="3"></circle><circle cx="149.11068942048928" cy="147.925360940387" r="3"></circle><circle cx="221.45673031249862" cy="99.03503697916744" r="3"></circle><circle cx="170.0568590624473" cy="72.88891697915892" r="3"></circle><circle cx="117.18969150586418" cy="104.94710095432424" r="3"></circle><circle cx="115.57804072914655" cy="111.70457833333467" r="3"></circle><circle cx="141.59301645836672" cy="107.46466083333394" r="3"></circle><circle cx="117.6299102340954" cy="106.21135284559227" r="3"></circle><circle cx="116.41202758586633" cy="103.80587440219097" r="3"></circle><circle cx="67.90445833331478" cy="97.66335416666789" r="3"></circle><circle cx="59.27083333331484" cy="106.50552083333332" r="3"></circle><circle cx="56.893486770810114" cy="105.65930614583363" r="3"></circle><circle cx="121.98797645831496" cy="152.5471793749989" r="3"></circle></g><g aria-label="dot"><circle cx="82.9322078124776" cy="100.70895354166578" r="2" fill="#6cabb4"></circle><circle cx="77.80203541663786" cy="98.13199468749895" r="2" fill="#6cabb4"></circle><circle cx="146.2873295573902" cy="153.08420365514917" r="2" fill="	#f6d292"></circle><circle cx="145.10025392269108" cy="155.57071446254304" r="2" fill="	#f6d292"></circle><circle cx="127.04338666664921" cy="76.58652187499365" r="2" fill="#f4dc2a"></circle><circle cx="154.30400072916632" cy="77.9903959375049" r="2" fill="#f4dc2a"></circle><circle cx="149.11068942048928" cy="147.925360940387" r="2" fill="#805882"></circle><circle cx="221.45673031249862" cy="99.03503697916744" r="2" fill="	#d43511"></circle><circle cx="170.0568590624473" cy="72.88891697915892" r="2" fill="	#d43511"></circle><circle cx="117.18969150586418" cy="104.94710095432424" r="2" fill=" #936310"></circle><circle cx="115.57804072914655" cy="111.70457833333467" r="2" fill=" #936310"></circle><circle cx="141.59301645836672" cy="107.46466083333394" r="2" fill=" #936310"></circle><circle cx="117.6299102340954" cy="106.21135284559227" r="2" fill=" #936310"></circle><circle cx="116.41202758586633" cy="103.80587440219097" r="2" fill=" #936310"></circle><circle cx="67.90445833331478" cy="97.66335416666789" r="2" fill="	#6b7a1f"></circle><circle cx="59.27083333331484" cy="106.50552083333332" r="2" fill="	#6b7a1f"></circle><circle cx="56.893486770810114" cy="105.65930614583363" r="2" fill="	#6b7a1f"></circle><circle cx="121.98797645831496" cy="152.5471793749989" r="2" fill=" #071455"></circle></g><g aria-label="link" fill="none" stroke="black" stroke-width="1.5" stroke-miterlimit="1" stroke-dasharray="8 4"><marker viewBox="-5 -5 10 10" markerWidth="6.67" markerHeight="6.67" orient="auto" fill="none" stroke="black" stroke-width="1.5" stroke-linecap="round" stroke-linejoin="round" id="plot-marker-1"><path d="M-1.5,-3l3,3l-3,3"></path></marker><path d="M89.746,99.9L80.241,99.156" marker-end="url(#plot-marker-1)"></path><path d="M91.274,100.215L144.97,154.913" marker-end="url(#plot-marker-1)"></path><path d="M144.744,85.469L149.111,147.925" marker-end="url(#plot-marker-1)"></path><path d="M127.191,96.742L168.182,90.017" marker-end="url(#plot-marker-1)"></path><path d="M103.659,111.932L121.297,108.237" marker-end="url(#plot-marker-1)"></path><path d="M107.684,113.358L121.988,152.547" marker-end="url(#plot-marker-1)"></path><path d="M64.758,92.248L0.5,71.72" marker-end="url(#plot-marker-1)"></path></g><g aria-label="link" fill="none" stroke="black" stroke-width="1.5" stroke-miterlimit="1" stroke-dasharray="10 0"><marker viewBox="-5 -5 10 10" markerWidth="6.67" markerHeight="6.67" orient="auto" fill="none" stroke="black" stroke-width="1.5" stroke-linecap="round" stroke-linejoin="round" id="plot-marker-2"><path d="M-1.5,-3l3,3l-3,3"></path></marker><path d="M127.191,96.742L144.744,85.469" marker-end="url(#plot-marker-2)"></path><path d="M144.744,85.469L148.969,78.164" marker-end="url(#plot-marker-2)"></path><path d="M103.659,111.932L67.463,105.281" marker-end="url(#plot-marker-2)"></path></g><g aria-label="link" fill="none" stroke-miterlimit="1" stroke-dasharray="8 4"><marker viewBox="-5 -5 10 10" markerWidth="6.67" markerHeight="6.67" orient="auto" fill="none" stroke="#6cabb4" stroke-width="1.5" stroke-linecap="round" stroke-linejoin="round" id="plot-marker-3"><path d="M-1.5,-3l3,3l-3,3"></path></marker><path d="M89.746,99.9L80.241,99.156" stroke="#6cabb4" marker-end="url(#plot-marker-3)"></path><marker viewBox="-5 -5 10 10" markerWidth="6.67" markerHeight="6.67" orient="auto" fill="none" stroke="	#f6d292" stroke-width="1.5" stroke-linecap="round" stroke-linejoin="round" id="plot-marker-4"><path d="M-1.5,-3l3,3l-3,3"></path></marker><path d="M91.274,100.215L144.97,154.913" stroke="	#f6d292" marker-end="url(#plot-marker-4)"></path><marker viewBox="-5 -5 10 10" markerWidth="6.67" markerHeight="6.67" orient="auto" fill="none" stroke="#805882" stroke-width="1.5" stroke-linecap="round" stroke-linejoin="round" id="plot-marker-5"><path d="M-1.5,-3l3,3l-3,3"></path></marker><path d="M144.744,85.469L149.111,147.925" stroke="#805882" marker-end="url(#plot-marker-5)"></path><marker viewBox="-5 -5 10 10" markerWidth="6.67" markerHeight="6.67" orient="auto" fill="none" stroke="	#d43511" stroke-width="1.5" stroke-linecap="round" stroke-linejoin="round" id="plot-marker-6"><path d="M-1.5,-3l3,3l-3,3"></path></marker><path d="M127.191,96.742L168.182,90.017" stroke="	#d43511" marker-end="url(#plot-marker-6)"></path><marker viewBox="-5 -5 10 10" markerWidth="6.67" markerHeight="6.67" orient="auto" fill="none" stroke=" #936310" stroke-width="1.5" stroke-linecap="round" stroke-linejoin="round" id="plot-marker-7"><path d="M-1.5,-3l3,3l-3,3"></path></marker><path d="M103.659,111.932L121.297,108.237" stroke=" #936310" marker-end="url(#plot-marker-7)"></path><marker viewBox="-5 -5 10 10" markerWidth="6.67" markerHeight="6.67" orient="auto" fill="none" stroke=" #071455" stroke-width="1.5" stroke-linecap="round" stroke-linejoin="round" id="plot-marker-8"><path d="M-1.5,-3l3,3l-3,3"></path></marker><path d="M107.684,113.358L121.988,152.547" stroke=" #071455" marker-end="url(#plot-marker-8)"></path><marker viewBox="-5 -5 10 10" markerWidth="6.67" markerHeight="6.67" orient="auto" fill="none" stroke="	#73878c" stroke-width="1.5" stroke-linecap="round" stroke-linejoin="round" id="plot-marker-9"><path d="M-1.5,-3l3,3l-3,3"></path></marker><path d="M64.758,92.248L0.5,71.72" stroke="	#73878c" marker-end="url(#plot-marker-9)"></path></g><g aria-label="link" fill="none" stroke-miterlimit="1" stroke-dasharray="10 0"><marker viewBox="-5 -5 10 10" markerWidth="6.67" markerHeight="6.67" orient="auto" fill="none" stroke="#f4dc2a" stroke-width="1.5" stroke-linecap="round" stroke-linejoin="round" id="plot-marker-10"><path d="M-1.5,-3l3,3l-3,3"></path></marker><path d="M127.191,96.742L144.744,85.469" stroke="#f4dc2a" marker-end="url(#plot-marker-10)"></path><path d="M144.744,85.469L148.969,78.164" stroke="#f4dc2a" marker-end="url(#plot-marker-10)"></path><marker viewBox="-5 -5 10 10" markerWidth="6.67" markerHeight="6.67" orient="auto" fill="none" stroke="	#6b7a1f" stroke-width="1.5" stroke-linecap="round" stroke-linejoin="round" id="plot-marker-11"><path d="M-1.5,-3l3,3l-3,3"></path></marker><path d="M103.659,111.932L67.463,105.281" stroke="	#6b7a1f" marker-end="url(#plot-marker-11)"></path></g><g aria-label="dot" fill="black"><circle cx="64.7575353128766" cy="92.24826176853708" r="3"></circle></g></g><text x="3" y="15" font-size="18" font-family="HelveticaNeue-Light">B</text></g></svg>