<svg xmlns="http://www.w3.org/2000/svg" width="457" height="228.5"><g transform="translate(0, 0)"><g transform="scale(1)"><g><g transform="translate(20,20)"><g class="axis"><path d="M0,175.185 L158.5,175.185" stroke="black" stroke-width="1"></path><g><g transform="translate(0,175.185)"><line x1="0" y1="0" x2="0" y2="6" stroke="black" stroke-width="1"></line><text transform="translate(0,20)" text-anchor="middle" dominant-baseline="central" font-family="HeveticaNeue-light">1940</text></g><g transform="translate(35.22222222222222,175.185)"><line x1="0" y1="0" x2="0" y2="6" stroke="black" stroke-width="1"></line><text transform="translate(0,20)" text-anchor="middle" dominant-baseline="central" font-family="HeveticaNeue-light">1960</text></g><g transform="translate(70.44444444444444,175.185)"><line x1="0" y1="0" x2="0" y2="6" stroke="black" stroke-width="1"></line><text transform="translate(0,20)" text-anchor="middle" dominant-baseline="central" font-family="HeveticaNeue-light">1980</text></g><g transform="translate(105.66666666666666,175.185)"><line x1="0" y1="0" x2="0" y2="6" stroke="black" stroke-width="1"></line><text transform="translate(0,20)" text-anchor="middle" dominant-baseline="central" font-family="HeveticaNeue-light">2000</text></g><g transform="translate(140.88888888888889,175.185)"><line x1="0" y1="0" x2="0" y2="6" stroke="black" stroke-width="1"></line><text transform="translate(0,20)" text-anchor="middle" dominant-baseline="central" font-family="HeveticaNeue-light">2020</text></g><g transform="translate(79.25,175.185) "><text text-anchor="middle" transform="translate(0,40)"></text></g></g></g><g class="branch-layer"><path d="M 0.001 48.24241727941177 C0.001,48.24241727941177 0,81.6171875 0,81.6171875 C0,81.6171875 15.05938242280285,81.6176875 22.589073634204276,81.61793750000001 C22.589073634204276,81.61793750000001 26.35391923990499,81.61806250000001 28.236342042755346,81.618125 C28.236342042755346,81.618125 29.177553444180525,81.61815625 29.648159144893114,81.618171875 C29.648159144893114,81.618171875 29.883461995249405,81.6181796875 30.00111342042755,81.61818359375 C30.00111342042755,81.61818359375 30.1187648456057,81.6181875 30.1187648456057,81.6181875 " fill="none" stroke-width="1.5" stroke="#2F4F4F" stroke-dasharray="10 0"></path><path d="M 30.1197648456057 81.6171875 C30.1197648456057,81.6171875 30.1187648456057,55.75367647058823 30.1187648456057,55.75367647058823 C30.1187648456057,55.75367647058823 31.248218527315913,55.754176470588234 31.812945368171018,55.75442647058823 C31.812945368171018,55.75442647058823 32.09530878859857,55.754551470588225 32.236490498812344,55.754613970588224 C32.236490498812344,55.754613970588224 32.30708135391923,55.75464522058823 32.34237678147268,55.75466084558823 C32.34237678147268,55.75466084558823 32.360024495249405,55.754668658088235 32.36884835213776,55.754672564338236 C32.36884835213776,55.754672564338236 32.37767220902612,55.75467647058823 32.37767220902612,55.75467647058823 " fill="none" stroke-width="1.5" stroke="#2F4F4F" stroke-dasharray="10 0"></path><path d="M 32.37867220902612 55.75367647058823 C32.37867220902612,55.75367647058823 32.37767220902612,44.60294117647059 32.37767220902612,44.60294117647059 C32.37767220902612,44.60294117647059 58.73159144893111,44.60344117647058 71.90855106888361,44.60369117647058 C71.90855106888361,44.60369117647058 78.49703087885986,44.60381617647059 81.79127078384798,44.603878676470586 C81.79127078384798,44.603878676470586 83.43839073634204,44.603909926470585 84.26195071258908,44.60392555147058 C84.26195071258908,44.60392555147058 84.6737307007126,44.60393336397058 84.87962069477436,44.603937270220584 C84.87962069477436,44.603937270220584 85.08551068883611,44.603941176470585 85.08551068883611,44.603941176470585 " fill="none" stroke-width="1.5" stroke="	#d43511" stroke-dasharray="8 4"></path><path d="M 85.08651068883611 44.60294117647059 C85.08651068883611,44.60294117647059 85.08551068883611,39.64705882352941 85.08551068883611,39.64705882352941 C85.08551068883611,39.64705882352941 114.26306413301663,39.64755882352941 128.8518408551069,39.64780882352941 C128.8518408551069,39.64780882352941 136.14622921615202,39.647933823529414 139.7934233966746,39.64799632352941 C139.7934233966746,39.64799632352941 141.61702048693587,39.64802757352941 142.5288190320665,39.64804319852941 C142.5288190320665,39.64804319852941 142.98471830463183,39.64805101102941 143.21266794091449,39.64805491727941 C143.21266794091449,39.64805491727941 143.44061757719714,39.64805882352941 143.44061757719714,39.64805882352941 " fill="none" stroke-width="1.5" stroke="#696969" stroke-dasharray="10 0"></path><path d="M 85.08651068883611 44.60294117647059 C85.08651068883611,44.60294117647059 85.08551068883611,49.55882352941177 85.08551068883611,49.55882352941177 C85.08551068883611,49.55882352941177 113.32185273159145,49.55932352941177 127.44002375296913,49.559573529411765 C127.44002375296913,49.559573529411765 134.49910926365794,49.55969852941176 138.02865201900238,49.55976102941176 C138.02865201900238,49.55976102941176 139.7934233966746,49.55979227941177 140.6758090855107,49.55980790441177 C140.6758090855107,49.55980790441177 141.11700192992873,49.55981571691177 141.33759835213777,49.55981962316177 C141.33759835213777,49.55981962316177 141.5581947743468,49.559823529411766 141.5581947743468,49.559823529411766 " fill="none" stroke-width="1.5" stroke="#696969" stroke-dasharray="10 0"></path><path d="M 32.37867220902612 55.75367647058823 C32.37867220902612,55.75367647058823 32.37767220902612,66.90441176470588 32.37767220902612,66.90441176470588 C32.37767220902612,66.90441176470588 45.554631828978614,66.90491176470589 52.14311163895486,66.9051617647059 C52.14311163895486,66.9051617647059 55.43735154394299,66.90528676470589 57.08447149643705,66.90534926470589 C57.08447149643705,66.90534926470589 57.90803147268408,66.90538051470588 58.3198114608076,66.90539613970589 C58.3198114608076,66.90539613970589 58.525701454869356,66.90540395220589 58.62864645190024,66.90540785845589 C58.62864645190024,66.90540785845589 58.73159144893111,66.90541176470589 58.73159144893111,66.90541176470589 " fill="none" stroke-width="1.5" stroke="#f4dc2a" stroke-dasharray="10 0"></path><path d="M 58.73259144893111 66.90441176470588 C58.73259144893111,66.90441176470588 58.73159144893111,59.47058823529412 58.73159144893111,59.47058823529412 C58.73159144893111,59.47058823529412 108.61579572446556,59.47108823529412 133.55789786223278,59.47133823529412 C133.55789786223278,59.47133823529412 146.0289489311164,59.471463235294124 152.26447446555818,59.47152573529412 C152.26447446555818,59.47152573529412 155.3822372327791,59.47155698529412 156.94111861638953,59.47157261029412 C156.94111861638953,59.47157261029412 157.72055930819477,59.47158042279412 158.11027965409738,59.47158432904412 C158.11027965409738,59.47158432904412 158.5,59.47158823529412 158.5,59.47158823529412 " fill="none" stroke-width="1.5" stroke="#805882" stroke-dasharray="8 4"></path><path d="M 58.73259144893111 66.90441176470588 C58.73259144893111,66.90441176470588 58.73159144893111,74.33823529411764 58.73159144893111,74.33823529411764 C58.73159144893111,74.33823529411764 62.025831353919244,74.33873529411764 63.67295130641331,74.33898529411763 C63.67295130641331,74.33898529411763 64.49651128266035,74.33911029411763 64.90829127078386,74.33917279411764 C64.90829127078386,74.33917279411764 65.11418126484563,74.33920404411765 65.2171262618765,74.33921966911765 C65.2171262618765,74.33921966911765 65.26859876039194,74.33922748161766 65.29433500964966,74.33923138786764 C65.29433500964966,74.33923138786764 65.32007125890738,74.33923529411764 65.32007125890738,74.33923529411764 " fill="none" stroke-width="1.5" stroke="#f4dc2a" stroke-dasharray="10 0"></path><path d="M 65.32107125890738 74.33823529411764 C65.32107125890738,74.33823529411764 65.32007125890738,69.38235294117646 65.32007125890738,69.38235294117646 C65.32007125890738,69.38235294117646 65.63067102137768,69.38285294117647 65.78597090261283,69.38310294117647 C65.78597090261283,69.38310294117647 65.86362084323041,69.38322794117647 65.9024458135392,69.38329044117647 C65.9024458135392,69.38329044117647 65.92185829869359,69.38332169117646 65.93156454127079,69.38333731617647 C65.93156454127079,69.38333731617647 65.93641766255939,69.38334512867647 65.93884422320369,69.38334903492647 C65.93884422320369,69.38334903492647 65.94127078384798,69.38335294117647 65.94127078384798,69.38335294117647 " fill="none" stroke-width="1.5" stroke="#696969" stroke-dasharray="10 0"></path><path d="M 65.32107125890738 74.33823529411764 C65.32107125890738,74.33823529411764 65.32007125890738,79.29411764705883 65.32007125890738,79.29411764705883 C65.32007125890738,79.29411764705883 66.35540380047507,79.29461764705883 66.87307007125892,79.29486764705882 C66.87307007125892,79.29486764705882 67.13190320665083,79.29499264705882 67.26131977434679,79.29505514705883 C67.26131977434679,79.29505514705883 67.32602805819477,79.29508639705884 67.35838220011877,79.29510202205884 C67.35838220011877,79.29510202205884 67.37455927108076,79.29510983455884 67.38264780656175,79.29511374080883 C67.38264780656175,79.29511374080883 67.39073634204276,79.29511764705883 67.39073634204276,79.29511764705883 " fill="none" stroke-width="1.5" stroke="#696969" stroke-dasharray="10 0"></path><path d="M 30.1197648456057 81.6171875 C30.1197648456057,81.6171875 30.1187648456057,107.48069852941175 30.1187648456057,107.48069852941175 C30.1187648456057,107.48069852941175 43.295724465558195,107.48119852941176 49.884204275534444,107.48144852941175 C49.884204275534444,107.48144852941175 53.17844418052256,107.48157352941175 54.82556413301663,107.48163602941176 C54.82556413301663,107.48163602941176 55.64912410926365,107.48166727941177 56.060904097387166,107.48168290441177 C56.060904097387166,107.48168290441177 56.26679409144893,107.48169071691177 56.369739088479804,107.48169462316176 C56.369739088479804,107.48169462316176 56.472684085510686,107.48169852941176 56.472684085510686,107.48169852941176 " fill="none" stroke-width="1.5" stroke="#2F4F4F" stroke-dasharray="10 0"></path><path d="M 56.47368408551068 107.48069852941175 C56.47368408551068,107.48069852941175 56.472684085510686,125.75551470588236 56.472684085510686,125.75551470588236 C56.472684085510686,125.75551470588236 58.63747030878859,125.75601470588236 59.719863420427544,125.75626470588236 C59.719863420427544,125.75626470588236 60.261059976247026,125.75638970588236 60.53165825415677,125.75645220588237 C60.53165825415677,125.75645220588237 60.66695739311163,125.75648345588237 60.73460696258907,125.75649908088238 C60.73460696258907,125.75649908088238 60.76843174732778,125.75650689338238 60.785344139697145,125.75651079963237 C60.785344139697145,125.75651079963237 60.8022565320665,125.75651470588237 60.8022565320665,125.75651470588237 " fill="none" stroke-width="1.5" stroke="#2F4F4F" stroke-dasharray="10 0"></path><path d="M 60.8032565320665 125.75551470588236 C60.8032565320665,125.75551470588236 60.8022565320665,106.55147058823529 60.8022565320665,106.55147058823529 C60.8022565320665,106.55147058823529 74.92042755344417,106.55197058823529 81.97951306413302,106.55222058823529 C81.97951306413302,106.55222058823529 85.50905581947742,106.55234558823528 87.27382719714964,106.5524080882353 C87.27382719714964,106.5524080882353 88.15621288598575,106.5524393382353 88.5974057304038,106.5524549632353 C88.5974057304038,106.5524549632353 88.81800215261282,106.55246277573531 88.92830036371734,106.5524666819853 C88.92830036371734,106.5524666819853 89.03859857482185,106.5524705882353 89.03859857482185,106.5524705882353 " fill="none" stroke-width="1.5" stroke="	#6b7a1f" stroke-dasharray="10 0"></path><path d="M 89.03959857482185 106.55147058823529 C89.03959857482185,106.55147058823529 89.03859857482185,99.11764705882354 89.03859857482185,99.11764705882354 C89.03859857482185,99.11764705882354 96.19180522565321,99.11814705882354 99.76840855106889,99.11839705882355 C99.76840855106889,99.11839705882355 101.55671021377674,99.11852205882354 102.45086104513067,99.11858455882354 C102.45086104513067,99.11858455882354 102.89793646080761,99.11861580882353 103.1214741686461,99.11863143382354 C103.1214741686461,99.11863143382354 103.23324302256535,99.11863924632354 103.28912744952495,99.11864315257354 C103.28912744952495,99.11864315257354 103.34501187648458,99.11864705882354 103.34501187648458,99.11864705882354 " fill="none" stroke-width="1.5" stroke="#696969" stroke-dasharray="10 0"></path><path d="M 89.03959857482185 106.55147058823529 C89.03959857482185,106.55147058823529 89.03859857482185,113.98529411764707 89.03859857482185,113.98529411764707 C89.03859857482185,113.98529411764707 91.67399049881234,113.98579411764707 92.99168646080759,113.98604411764708 C92.99168646080759,113.98604411764708 93.6505344418052,113.98616911764708 93.97995843230402,113.98623161764708 C93.97995843230402,113.98623161764708 94.14467042755342,113.98626286764707 94.22702642517814,113.98627849264707 C94.22702642517814,113.98627849264707 94.26820442399048,113.98628630514708 94.28879342339667,113.98629021139708 C94.28879342339667,113.98629021139708 94.30938242280284,113.98629411764708 94.30938242280284,113.98629411764708 " fill="none" stroke-width="1.5" stroke="#696969" stroke-dasharray="10 0"></path><path d="M 94.31038242280285 113.98529411764707 C94.31038242280285,113.98529411764707 94.30938242280284,109.02941176470588 94.30938242280284,109.02941176470588 C94.30938242280284,109.02941176470588 97.03889548693587,109.02991176470589 98.40365201900238,109.0301617647059 C98.40365201900238,109.0301617647059 99.08603028503563,109.03028676470589 99.42721941805226,109.03034926470589 C99.42721941805226,109.03034926470589 99.59781398456057,109.03038051470588 99.68311126781472,109.03039613970589 C99.68311126781472,109.03039613970589 99.7257599094418,109.03040395220589 99.74708423025535,109.03040785845589 C99.74708423025535,109.03040785845589 99.76840855106889,109.03041176470589 99.76840855106889,109.03041176470589 " fill="none" stroke-width="1.5" stroke="#696969" stroke-dasharray="10 0"></path><path d="M 94.31038242280285 113.98529411764707 C94.31038242280285,113.98529411764707 94.30938242280284,118.94117647058825 94.30938242280284,118.94117647058825 C94.30938242280284,118.94117647058825 98.16834916864607,118.94167647058825 100.0978325415677,118.94192647058824 C100.0978325415677,118.94192647058824 101.06257422802851,118.94205147058824 101.54494507125892,118.94211397058825 C101.54494507125892,118.94211397058825 101.78613049287412,118.94214522058826 101.90672320368172,118.94216084558826 C101.90672320368172,118.94216084558826 101.96701955908551,118.94216865808826 101.99716773678742,118.94217256433825 C101.99716773678742,118.94217256433825 102.02731591448932,118.94217647058825 102.02731591448932,118.94217647058825 " fill="none" stroke-width="1.5" stroke="#696969" stroke-dasharray="10 0"></path><path d="M 60.8032565320665 125.75551470588236 C60.8032565320665,125.75551470588236 60.8022565320665,144.95955882352942 60.8022565320665,144.95955882352942 C60.8022565320665,144.95955882352942 87.15617577197149,144.96005882352944 100.33313539192397,144.96030882352943 C100.33313539192397,144.96030882352943 106.92161520190022,144.96043382352943 110.21585510688834,144.9604963235294 C110.21585510688834,144.9604963235294 111.8629750593824,144.96052757352942 112.68653503562945,144.96054319852942 C112.68653503562945,144.96054319852942 113.09831502375296,144.96055101102942 113.30420501781472,144.9605549172794 C113.30420501781472,144.9605549172794 113.51009501187647,144.96055882352942 113.51009501187647,144.96055882352942 " fill="none" stroke-width="1.5" stroke=" #936310" stroke-dasharray="8 4"></path><path d="M 113.51109501187648 144.95955882352942 C113.51109501187648,144.95955882352942 113.51009501187647,133.80882352941177 113.51009501187647,133.80882352941177 C113.51009501187647,133.80882352941177 122.45160332541568,133.80932352941176 126.92235748218528,133.80957352941175 C126.92235748218528,133.80957352941175 129.15773456057008,133.80969852941178 130.27542309976246,133.8097610294118 C130.27542309976246,133.8097610294118 130.83426736935866,133.8097922794118 131.11368950415675,133.8098079044118 C131.11368950415675,133.8098079044118 131.2534005715558,133.80981571691177 131.32325610525533,133.8098196231618 C131.32325610525533,133.8098196231618 131.39311163895488,133.80982352941177 131.39311163895488,133.80982352941177 " fill="none" stroke-width="1.5" stroke="#696969" stroke-dasharray="10 0"></path><path d="M 131.39411163895488 133.80882352941177 C131.39411163895488,133.80882352941177 131.39311163895488,128.85294117647058 131.39311163895488,128.85294117647058 C131.39311163895488,128.85294117647058 139.48752969121142,128.8534411764706 143.53473871733968,128.8536911764706 C143.53473871733968,128.8536911764706 145.5583432304038,128.8538161764706 146.57014548693587,128.85387867647057 C146.57014548693587,128.85387867647057 147.0760466152019,128.85390992647058 147.32899717933492,128.85392555147058 C147.32899717933492,128.85392555147058 147.45547246140143,128.85393336397058 147.51871010243468,128.85393727022057 C147.51871010243468,128.85393727022057 147.58194774346794,128.85394117647058 147.58194774346794,128.85394117647058 " fill="none" stroke-width="1.5" stroke="#696969" stroke-dasharray="10 0"></path><path d="M 131.39411163895488 133.80882352941177 C131.39411163895488,133.80882352941177 131.39311163895488,138.76470588235293 131.39311163895488,138.76470588235293 C131.39311163895488,138.76470588235293 140.80522565320666,138.76520588235292 145.51128266033254,138.7654558823529 C145.51128266033254,138.7654558823529 147.86431116389548,138.76558088235294 149.04082541567695,138.76564338235295 C149.04082541567695,138.76564338235295 149.6290825415677,138.76567463235295 149.92321110451306,138.76569025735296 C149.92321110451306,138.76569025735296 150.07027538598572,138.76569806985293 150.14380752672207,138.76570197610295 C150.14380752672207,138.76570197610295 150.21733966745842,138.76570588235293 150.21733966745842,138.76570588235293 " fill="none" stroke-width="1.5" stroke="#696969" stroke-dasharray="10 0"></path><path d="M 113.51109501187648 144.95955882352942 C113.51109501187648,144.95955882352942 113.51009501187647,156.11029411764707 113.51009501187647,156.11029411764707 C113.51009501187647,156.11029411764707 118.02790973871733,156.11079411764706 120.28681710213775,156.11104411764705 C120.28681710213775,156.11104411764705 121.41627078384796,156.11116911764708 121.98099762470306,156.1112316176471 C121.98099762470306,156.1112316176471 122.26336104513062,156.1112628676471 122.40454275534441,156.1112784926471 C122.40454275534441,156.1112784926471 122.4751336104513,156.11128630514708 122.51042903800473,156.1112902113971 C122.51042903800473,156.1112902113971 122.54572446555818,156.11129411764708 122.54572446555818,156.11129411764708 " fill="none" stroke-width="1.5" stroke="#696969" stroke-dasharray="10 0"></path><path d="M 122.54672446555819 156.11029411764707 C122.54672446555819,156.11029411764707 122.54572446555818,148.67647058823528 122.54572446555818,148.67647058823528 C122.54572446555818,148.67647058823528 129.51068883610452,148.6769705882353 132.9931710213777,148.6772205882353 C132.9931710213777,148.6772205882353 134.73441211401428,148.67734558823528 135.60503266033254,148.67740808823527 C135.60503266033254,148.67740808823527 136.04034293349167,148.67743933823527 136.25799807007127,148.67745496323528 C136.25799807007127,148.67745496323528 136.36682563836104,148.67746277573528 136.42123942250595,148.67746668198527 C136.42123942250595,148.67746668198527 136.47565320665083,148.67747058823528 136.47565320665083,148.67747058823528 " fill="none" stroke-width="1.5" stroke="#696969" stroke-dasharray="10 0"></path><path d="M 122.54672446555819 156.11029411764707 C122.54672446555819,156.11029411764707 122.54572446555818,163.5441176470588 122.54572446555818,163.5441176470588 C122.54572446555818,163.5441176470588 132.89904988123516,163.54461764705883 138.07571258907365,163.54486764705882 C138.07571258907365,163.54486764705882 140.66404394299286,163.54499264705882 141.95820961995247,163.5450551470588 C141.95820961995247,163.5450551470588 142.6052924584323,163.5450863970588 142.92883387767222,163.5451020220588 C142.92883387767222,163.5451020220588 143.09060458729215,163.54510983455882 143.17148994210214,163.5451137408088 C143.17148994210214,163.5451137408088 143.2523752969121,163.54511764705882 143.2523752969121,163.54511764705882 " fill="none" stroke-width="1.5" stroke="#696969" stroke-dasharray="10 0"></path><path d="M 143.2533752969121 163.5441176470588 C143.2533752969121,163.5441176470588 143.2523752969121,158.58823529411765 143.2523752969121,158.58823529411765 C143.2523752969121,158.58823529411765 143.62885985748215,158.58873529411767 143.8171021377672,158.58898529411766 C143.8171021377672,158.58898529411766 143.9112232779097,158.58911029411766 143.95828384798097,158.58917279411764 C143.95828384798097,158.58917279411764 143.9818141330166,158.58920404411765 143.99357927553442,158.58921966911765 C143.99357927553442,158.58921966911765 143.99946184679334,158.58922748161766 144.00240313242278,158.58923138786764 C144.00240313242278,158.58923138786764 144.00534441805223,158.58923529411766 144.00534441805223,158.58923529411766 " fill="none" stroke-width="1.5" stroke="#696969" stroke-dasharray="10 0"></path><path d="M 143.2533752969121 163.5441176470588 C143.2533752969121,163.5441176470588 143.2523752969121,168.5 143.2523752969121,168.5 C143.2523752969121,168.5 145.60540380047505,168.5005 146.78191805225651,168.50074999999998 C146.78191805225651,168.50074999999998 147.37017517814724,168.500875 147.66430374109262,168.50093750000002 C147.66430374109262,168.50093750000002 147.81136802256532,168.50096875000003 147.88490016330167,168.50098437500003 C147.88490016330167,168.50098437500003 147.92166623366984,168.5009921875 147.9400492688539,168.50099609375002 C147.9400492688539,168.50099609375002 147.95843230403798,168.501 147.95843230403798,168.501 " fill="none" stroke-width="1.5" stroke="#696969" stroke-dasharray="10 0"></path><path d="M 56.47368408551068 107.48069852941175 C56.47368408551068,107.48069852941175 56.472684085510686,89.20588235294117 56.472684085510686,89.20588235294117 C56.472684085510686,89.20588235294117 79.06175771971496,89.20638235294118 90.3562945368171,89.20663235294117 C90.3562945368171,89.20663235294117 96.00356294536817,89.20675735294117 98.82719714964371,89.20681985294118 C98.82719714964371,89.20681985294118 100.23901425178147,89.20685110294119 100.94492280285036,89.20686672794119 C100.94492280285036,89.20686672794119 101.2978770783848,89.20687454044119 101.47435421615202,89.20687844669118 C101.47435421615202,89.20687844669118 101.65083135391924,89.20688235294118 101.65083135391924,89.20688235294118 " fill="none" stroke-width="1.5" stroke=" #071455" stroke-dasharray="8 4"></path><path d="M 0.001 48.24241727941177 C0.001,48.24241727941177 0,14.86764705882353 0,14.86764705882353 C0,14.86764705882353 10.35332541567696,14.868147058823531 15.52998812351544,14.86839705882353 C15.52998812351544,14.86839705882353 18.118319477434678,14.86852205882353 19.412485154394297,14.86858455882353 C19.412485154394297,14.86858455882353 20.059567992874108,14.868615808823531 20.383109412114013,14.86863143382353 C20.383109412114013,14.86863143382353 20.544880121733968,14.86863924632353 20.625765476543943,14.86864315257353 C20.625765476543943,14.86864315257353 20.70665083135392,14.86864705882353 20.70665083135392,14.86864705882353 " fill="none" stroke-width="1.5" stroke="#2F4F4F" stroke-dasharray="10 0"></path><path d="M 20.70765083135392 14.86764705882353 C20.70765083135392,14.86764705882353 20.70665083135392,4.955882352941177 20.70665083135392,4.955882352941177 C20.70665083135392,4.955882352941177 62.11995249406175,4.956382352941176 82.82660332541568,4.956632352941177 C82.82660332541568,4.956632352941177 93.17992874109262,4.956757352941176 98.35659144893111,4.956819852941177 C98.35659144893111,4.956819852941177 100.94492280285036,4.956851102941177 102.23908847980996,4.956866727941177 C102.23908847980996,4.956866727941177 102.88617131828977,4.956874540441177 103.20971273752969,4.956878446691177 C103.20971273752969,4.956878446691177 103.53325415676959,4.956882352941177 103.53325415676959,4.956882352941177 " fill="none" stroke-width="1.5" stroke="#6cabb4" stroke-dasharray="10 0"></path><path d="M 103.53425415676959 4.955882352941177 C103.53425415676959,4.955882352941177 103.53325415676959,0 103.53325415676959,0 C103.53325415676959,0 108.8040380047506,0.0005 111.43942992874109,0.00075 C111.43942992874109,0.00075 112.75712589073635,0.000875 113.41597387173397,0.0009375 C113.41597387173397,0.0009375 113.74539786223278,0.00096875 113.91010985748218,0.000984375 C113.91010985748218,0.000984375 113.99246585510689,0.0009921875 114.03364385391924,0.00099609375 C114.03364385391924,0.00099609375 114.07482185273159,0.001 114.07482185273159,0.001 " fill="none" stroke-width="1.5" stroke="#696969" stroke-dasharray="10 0"></path><path d="M 103.53425415676959 4.955882352941177 C103.53425415676959,4.955882352941177 103.53325415676959,9.911764705882353 103.53325415676959,9.911764705882353 C103.53325415676959,9.911764705882353 110.40409738717338,9.912264705882354 113.83951900237528,9.912514705882353 C113.83951900237528,9.912514705882353 115.55722980997623,9.912639705882352 116.41608521377671,9.912702205882352 C116.41608521377671,9.912702205882352 116.84551291567695,9.912733455882353 117.06022676662707,9.912749080882353 C117.06022676662707,9.912749080882353 117.16758369210213,9.912756893382353 117.22126215483965,9.912760799632352 C117.22126215483965,9.912760799632352 117.27494061757719,9.912764705882353 117.27494061757719,9.912764705882353 " fill="none" stroke-width="1.5" stroke="#696969" stroke-dasharray="10 0"></path><path d="M 20.70765083135392 14.86764705882353 C20.70765083135392,14.86764705882353 20.70665083135392,24.779411764705884 20.70665083135392,24.779411764705884 C20.70665083135392,24.779411764705884 72.47327790973871,24.779911764705886 98.35659144893111,24.780161764705888 C98.35659144893111,24.780161764705888 111.2982482185273,24.780286764705885 117.7690766033254,24.780349264705883 C117.7690766033254,24.780349264705883 121.00449079572445,24.780380514705882 122.62219789192397,24.780396139705886 C122.62219789192397,24.780396139705886 123.43105144002374,24.780403952205887 123.83547821407362,24.780407858455888 C123.83547821407362,24.780407858455888 124.23990498812351,24.780411764705885 124.23990498812351,24.780411764705885 " fill="none" stroke-width="1.5" stroke="	#f6d292" stroke-dasharray="8 4"></path><path d="M 124.24090498812352 24.779411764705884 C124.24090498812352,24.779411764705884 124.23990498812351,19.823529411764707 124.23990498812351,19.823529411764707 C124.23990498812351,19.823529411764707 125.83996437054631,19.824029411764705 126.63999406175772,19.824279411764707 C126.63999406175772,19.824279411764707 127.04000890736341,19.824404411764707 127.24001633016627,19.82446691176471 C127.24001633016627,19.82446691176471 127.3400200415677,19.82449816176471 127.39002189726841,19.824513786764708 C127.39002189726841,19.824513786764708 127.41502282511877,19.824521599264706 127.42752328904395,19.824525505514707 C127.42752328904395,19.824525505514707 127.44002375296913,19.824529411764708 127.44002375296913,19.824529411764708 " fill="none" stroke-width="1.5" stroke="#696969" stroke-dasharray="10 0"></path><path d="M 124.24090498812352 24.779411764705884 C124.24090498812352,24.779411764705884 124.23990498812351,29.73529411764706 124.23990498812351,29.73529411764706 C124.23990498812351,29.73529411764706 124.54109263657956,29.73579411764706 124.69168646080759,29.73604411764706 C124.69168646080759,29.73604411764706 124.7669833729216,29.736169117647062 124.80463182897861,29.736231617647064 C124.80463182897861,29.736231617647064 124.82345605700712,29.736262867647064 124.83286817102137,29.736278492647063 C124.83286817102137,29.736278492647063 124.8375742280285,29.73628630514706 124.83992725653206,29.736290211397062 C124.83992725653206,29.736290211397062 124.84228028503561,29.736294117647063 124.84228028503561,29.736294117647063 " fill="none" stroke-width="1.5" stroke="#696969" stroke-dasharray="10 0"></path></g><g class="node-layer"><g><text alignment-baseline="middle" text-anchor="start" transform="translate(149.44061757719714,39.64705882352941) rotate(0)" fill="black" font-size="8" font-weight="300" font-family="HelveticaNeue-Light" dy="3">Kivu/2018</text><path stroke-width="1" stroke="grey" stroke-dasharray="2" d="M143.44061757719714 39.64705882352941L143.44061757719714 39.64705882352941"></path></g><g><text alignment-baseline="middle" text-anchor="start" transform="translate(147.5581947743468,49.55882352941177) rotate(0)" fill="black" font-size="8" font-weight="300" font-family="HelveticaNeue-Light" dy="3">Bas-Uele/2017</text><path stroke-width="1" stroke="grey" stroke-dasharray="2" d="M141.5581947743468 49.55882352941177L141.5581947743468 49.55882352941177"></path></g><g><text alignment-baseline="middle" text-anchor="start" transform="translate(164.5,59.47058823529412) rotate(0)" fill="black" font-size="8" font-weight="300" font-family="HelveticaNeue-Light" dy="3">Kasaï/2025</text><path stroke-width="1" stroke="grey" stroke-dasharray="2" d="M158.5 59.47058823529412L158.5 59.47058823529412"></path></g><g><text alignment-baseline="middle" text-anchor="start" transform="translate(71.94127078384798,69.38235294117646) rotate(0)" fill="black" font-size="8" font-weight="300" font-family="HelveticaNeue-Light" dy="3">Yambuku/1976 </text><path stroke-width="1" stroke="grey" stroke-dasharray="2" d="M65.94127078384798 69.38235294117646L65.94127078384798 69.38235294117646"></path></g><g><text alignment-baseline="middle" text-anchor="start" transform="translate(73.39073634204276,79.29411764705883) rotate(0)" fill="black" font-size="8" font-weight="300" font-family="HelveticaNeue-Light" dy="3">Sud-Ubangi/1977</text><path stroke-width="1" stroke="grey" stroke-dasharray="2" d="M67.39073634204276 79.29411764705883L67.39073634204276 79.29411764705883"></path></g><g><text alignment-baseline="middle" text-anchor="start" transform="translate(109.34501187648458,99.11764705882354) rotate(0)" fill="black" font-size="8" font-weight="300" font-family="HelveticaNeue-Light" dy="3">Gabon/1996b</text><path stroke-width="1" stroke="grey" stroke-dasharray="2" d="M103.34501187648458 99.11764705882354L103.34501187648458 99.11764705882354"></path></g><g><text alignment-baseline="middle" text-anchor="start" transform="translate(105.76840855106889,109.02941176470588) rotate(0)" fill="black" font-size="8" font-weight="300" font-family="HelveticaNeue-Light" dy="3">Gabon/1994</text><path stroke-width="1" stroke="grey" stroke-dasharray="2" d="M99.76840855106889 109.02941176470588L99.76840855106889 109.02941176470588"></path></g><g><text alignment-baseline="middle" text-anchor="start" transform="translate(108.02731591448932,118.94117647058825) rotate(0)" fill="black" font-size="8" font-weight="300" font-family="HelveticaNeue-Light" dy="3">Gabon/1996a</text><path stroke-width="1" stroke="grey" stroke-dasharray="2" d="M102.02731591448932 118.94117647058825L102.02731591448932 118.94117647058825"></path></g><g><text alignment-baseline="middle" text-anchor="start" transform="translate(153.58194774346794,128.85294117647058) rotate(0)" fill="black" font-size="8" font-weight="300" font-family="HelveticaNeue-Light" dy="3">Equateur/2020</text><path stroke-width="1" stroke="grey" stroke-dasharray="2" d="M147.58194774346794 128.85294117647058L147.58194774346794 128.85294117647058"></path></g><g><text alignment-baseline="middle" text-anchor="start" transform="translate(156.21733966745842,138.76470588235293) rotate(0)" fill="black" font-size="8" font-weight="300" font-family="HelveticaNeue-Light" dy="3">Equateur/2022 </text><path stroke-width="1" stroke="grey" stroke-dasharray="2" d="M150.21733966745842 138.76470588235293L150.21733966745842 138.76470588235293"></path></g><g><text alignment-baseline="middle" text-anchor="start" transform="translate(142.47565320665083,148.67647058823528) rotate(0)" fill="black" font-size="8" font-weight="300" font-family="HelveticaNeue-Light" dy="3">Tshuapa/2014</text><path stroke-width="1" stroke="grey" stroke-dasharray="2" d="M136.47565320665083 148.67647058823528L136.47565320665083 148.67647058823528"></path></g><g><text alignment-baseline="middle" text-anchor="start" transform="translate(150.00534441805223,158.58823529411765) rotate(0)" fill="black" font-size="8" font-weight="300" font-family="HelveticaNeue-Light" dy="3">Equateur/2018</text><path stroke-width="1" stroke="grey" stroke-dasharray="2" d="M144.00534441805223 158.58823529411765L144.00534441805223 158.58823529411765"></path></g><g><text alignment-baseline="middle" text-anchor="start" transform="translate(153.95843230403798,168.5) rotate(0)" fill="black" font-size="8" font-weight="300" font-family="HelveticaNeue-Light" dy="3">Equateur/2020</text><path stroke-width="1" stroke="grey" stroke-dasharray="2" d="M147.95843230403798 168.5L147.95843230403798 168.5"></path></g><g><text alignment-baseline="middle" text-anchor="start" transform="translate(107.65083135391924,89.20588235294117) rotate(0)" fill="black" font-size="8" font-weight="300" font-family="HelveticaNeue-Light" dy="3">Kwilu/1995</text><path stroke-width="1" stroke="grey" stroke-dasharray="2" d="M101.65083135391924 89.20588235294117L101.65083135391924 89.20588235294117"></path></g><g><text alignment-baseline="middle" text-anchor="start" transform="translate(120.07482185273159,0) rotate(0)" fill="black" font-size="8" font-weight="300" font-family="HelveticaNeue-Light" dy="3">Gabon/2001</text><path stroke-width="1" stroke="grey" stroke-dasharray="2" d="M114.07482185273159 0L114.07482185273159 0"></path></g><g><text alignment-baseline="middle" text-anchor="start" transform="translate(123.27494061757719,9.911764705882353) rotate(0)" fill="black" font-size="8" font-weight="300" font-family="HelveticaNeue-Light" dy="3">RoC/2003</text><path stroke-width="1" stroke="grey" stroke-dasharray="2" d="M117.27494061757719 9.911764705882353L117.27494061757719 9.911764705882353"></path></g><g><text alignment-baseline="middle" text-anchor="start" transform="translate(133.44002375296913,19.823529411764707) rotate(0)" fill="black" font-size="8" font-weight="300" font-family="HelveticaNeue-Light" dy="3">Kasaï/2008</text><path stroke-width="1" stroke="grey" stroke-dasharray="2" d="M127.44002375296913 19.823529411764707L127.44002375296913 19.823529411764707"></path></g><g><text alignment-baseline="middle" text-anchor="start" transform="translate(130.8422802850356,29.73529411764706) rotate(0)" fill="black" font-size="8" font-weight="300" font-family="HelveticaNeue-Light" dy="3">Kasaï/2007 </text><path stroke-width="1" stroke="grey" stroke-dasharray="2" d="M124.84228028503561 29.73529411764706L124.84228028503561 29.73529411764706"></path></g></g><g class="node-layer"><circle class="node-shape" r="3" fill="#696969" cursor="pointer" cx="143.44061757719714" cy="39.64705882352941"></circle><circle class="node-shape" r="3" fill="#696969" cursor="pointer" cx="141.5581947743468" cy="49.55882352941177"></circle><circle class="node-shape" r="3" fill="#696969" cursor="pointer" cx="158.5" cy="59.47058823529412"></circle><circle class="node-shape" r="3" fill="#696969" cursor="pointer" cx="65.94127078384798" cy="69.38235294117646"></circle><circle class="node-shape" r="3" fill="#696969" cursor="pointer" cx="67.39073634204276" cy="79.29411764705883"></circle><circle class="node-shape" r="3" fill="#696969" cursor="pointer" cx="103.34501187648458" cy="99.11764705882354"></circle><circle class="node-shape" r="3" fill="#696969" cursor="pointer" cx="99.76840855106889" cy="109.02941176470588"></circle><circle class="node-shape" r="3" fill="#696969" cursor="pointer" cx="102.02731591448932" cy="118.94117647058825"></circle><circle class="node-shape" r="3" fill="#696969" cursor="pointer" cx="147.58194774346794" cy="128.85294117647058"></circle><circle class="node-shape" r="3" fill="#696969" cursor="pointer" cx="150.21733966745842" cy="138.76470588235293"></circle><circle class="node-shape" r="3" fill="#696969" cursor="pointer" cx="136.47565320665083" cy="148.67647058823528"></circle><circle class="node-shape" r="3" fill="#696969" cursor="pointer" cx="144.00534441805223" cy="158.58823529411765"></circle><circle class="node-shape" r="3" fill="#696969" cursor="pointer" cx="147.95843230403798" cy="168.5"></circle><circle class="node-shape" r="3" fill="#696969" cursor="pointer" cx="101.65083135391924" cy="89.20588235294117"></circle><circle class="node-shape" r="3" fill="#696969" cursor="pointer" cx="114.07482185273159" cy="0"></circle><circle class="node-shape" r="3" fill="#696969" cursor="pointer" cx="117.27494061757719" cy="9.911764705882353"></circle><circle class="node-shape" r="3" fill="#696969" cursor="pointer" cx="127.44002375296913" cy="19.823529411764707"></circle><circle class="node-shape" r="3" fill="#696969" cursor="pointer" cx="124.84228028503561" cy="29.73529411764706"></circle></g><g class="node-layer"><circle class="node-shape" r="2" fill="	#d43511" cursor="pointer" cx="143.44061757719714" cy="39.64705882352941"></circle><circle class="node-shape" r="2" fill="	#d43511" cursor="pointer" cx="141.5581947743468" cy="49.55882352941177"></circle><circle class="node-shape" r="2" fill="#805882" cursor="pointer" cx="158.5" cy="59.47058823529412"></circle><circle class="node-shape" r="2" fill="#f4dc2a" cursor="pointer" cx="65.94127078384798" cy="69.38235294117646"></circle><circle class="node-shape" r="2" fill="#f4dc2a" cursor="pointer" cx="67.39073634204276" cy="79.29411764705883"></circle><circle class="node-shape" r="2" fill="	#6b7a1f" cursor="pointer" cx="103.34501187648458" cy="99.11764705882354"></circle><circle class="node-shape" r="2" fill="	#6b7a1f" cursor="pointer" cx="99.76840855106889" cy="109.02941176470588"></circle><circle class="node-shape" r="2" fill="	#6b7a1f" cursor="pointer" cx="102.02731591448932" cy="118.94117647058825"></circle><circle class="node-shape" r="2" fill=" #936310" cursor="pointer" cx="147.58194774346794" cy="128.85294117647058"></circle><circle class="node-shape" r="2" fill=" #936310" cursor="pointer" cx="150.21733966745842" cy="138.76470588235293"></circle><circle class="node-shape" r="2" fill=" #936310" cursor="pointer" cx="136.47565320665083" cy="148.67647058823528"></circle><circle class="node-shape" r="2" fill=" #936310" cursor="pointer" cx="144.00534441805223" cy="158.58823529411765"></circle><circle class="node-shape" r="2" fill=" #936310" cursor="pointer" cx="147.95843230403798" cy="168.5"></circle><circle class="node-shape" r="2" fill=" #071455" cursor="pointer" cx="101.65083135391924" cy="89.20588235294117"></circle><circle class="node-shape" r="2" fill="#6cabb4" cursor="pointer" cx="114.07482185273159" cy="0"></circle><circle class="node-shape" r="2" fill="#6cabb4" cursor="pointer" cx="117.27494061757719" cy="9.911764705882353"></circle><circle class="node-shape" r="2" fill="	#f6d292" cursor="pointer" cx="127.44002375296913" cy="19.823529411764707"></circle><circle class="node-shape" r="2" fill="	#f6d292" cursor="pointer" cx="124.84228028503561" cy="29.73529411764706"></circle></g><g class="node-layer"><rect class="node-shape" stroke="black" stroke-dasharray="2 2" stroke-width="1.5" fill="white" rx="1" x="-5" y="43.24241727941177" width="10" height="10"></rect></g><g class="node-layer"><circle class="node-shape" r="3" fill="black" cx="0" cy="48.24241727941177"></circle></g><g class="node-layer"><rect class="node-shape" fill="#2F4F4F" rx="1" x="27.6187648456057" y="79.1171875" width="5" height="5"></rect><rect class="node-shape" fill="#2F4F4F" rx="1" x="29.877672209026123" y="53.25367647058823" width="5" height="5"></rect><rect class="node-shape" fill="#2F4F4F" rx="1" x="53.972684085510686" y="104.98069852941175" width="5" height="5"></rect><rect class="node-shape" fill="#2F4F4F" rx="1" x="58.3022565320665" y="123.25551470588236" width="5" height="5"></rect><rect class="node-shape" fill="#2F4F4F" rx="1" x="18.20665083135392" y="12.36764705882353" width="5" height="5"></rect></g><g class="node-layer"><rect class="node-shape" fill="	#d43511" rx="1" stroke="696969" stroke-width="0.5" x="82.58551068883611" y="42.10294117647059" width="5" height="5"></rect><rect class="node-shape" fill="#f4dc2a" rx="1" stroke="696969" stroke-width="0.5" x="62.820071258907376" y="71.83823529411764" width="5" height="5"></rect><rect class="node-shape" fill="	#6b7a1f" rx="1" stroke="696969" stroke-width="0.5" x="86.53859857482185" y="104.05147058823529" width="5" height="5"></rect><rect class="node-shape" fill=" #936310" rx="1" stroke="696969" stroke-width="0.5" x="111.01009501187647" y="142.45955882352942" width="5" height="5"></rect><rect class="node-shape" fill="#6cabb4" rx="1" stroke="696969" stroke-width="0.5" x="101.03325415676959" y="2.4558823529411766" width="5" height="5"></rect><rect class="node-shape" fill="	#f6d292" rx="1" stroke="696969" stroke-width="0.5" x="121.73990498812351" y="22.279411764705884" width="5" height="5"></rect></g></g></g></g><text x="3" y="15" font-size="18" font-family="HelveticaNeue-Light">A</text></g><g transform="translate(228.5, 0)"><g transform="scale(1)"><style>:where(.plot-d6a7b5) {
  --plot-background: white;
  display: block;
  height: auto;
  height: intrinsic;
  max-width: 100%;
}
:where(.plot-d6a7b5 text),
:where(.plot-d6a7b5 tspan) {
  white-space: pre;
}</style><g aria-label="geo" fill="none" stroke="currentColor" stroke-opacity="0.1" stroke-linejoin="round" stroke-linecap="round"><path d="M0.5,102.875L0.5,102.875L28.938,102.875L57.375,102.875L85.813,102.875L114.25,102.875L142.688,102.875L171.125,102.875L199.563,102.875L228,102.875L228,102.875M0.5,228L0.5,0.5M114.25,228L114.25,0.5M228,228L228,0.5M0.5,216.625L0.5,216.625L28.938,216.625L57.375,216.625L85.813,216.625L114.25,216.625L142.688,216.625L171.125,216.625L199.563,216.625L228,216.625L228,216.625"></path></g><g aria-label="geo" fill="#e0e0e0" stroke="black" stroke-linejoin="round" stroke-linecap="round"><path d="M157.535,4.294L166.216,9.261L158.476,4.833ZM228,181.216L223.669,177.03L221.417,170.446L221.417,170.446L223.669,177.05L228,181.223L228,228L42.715,228L42.423,224.932L39.024,220.869L35.994,213.977L33.209,207.142L33.823,204.793L37.304,200.269L33.864,189.295L31.53,181.67L25.838,174.47L26.903,172.256L25.306,168.732L22.275,160.184L12.939,148.132L1.268,136.657L0.5,135.7L0.5,0.5L228,0.5Z"></path></g><g aria-label="geo" fill="none" stroke="currentColor" stroke-linejoin="round" stroke-linecap="round"><path d="M26.903,172.256L31.612,170.735L34.888,170.947L38.901,169.58L72.481,169.734L75.265,178.205L78.541,185.02L81.162,188.698L85.503,194.647L93.038,193.742L96.764,192.144L103.071,193.742L104.79,190.892L107.616,184.27L114.66,183.827L115.274,181.844L121.089,181.805L120.106,185.906L133.906,185.81L134.111,192.972L136.404,197.361L134.725,204.215L135.585,211.204L139.394,215.421L138.823,228M141.338,228L141.564,227.916L143.01,228M147.36,228L153.562,226.491L158.763,227.165L159.043,228M22.275,160.184L26.862,155.275L30.302,153.349L34.561,157.258L30.425,159.645L28.582,162.572L28.213,167.539L25.306,168.732M166.216,9.261L172.441,13.862L172.522,17.559L180.18,23.489L184.93,28.398L187.797,35.233L196.315,39.738L198.116,43.339L194.39,44.552L187.101,44.282L178.542,43.088L174.283,44.07L172.604,46.823L168.919,47.17L164.414,44.763L151.761,50.443L146.56,49.288L145.004,50.173L141.605,57.047L133.128,54.833L124.815,53.697L117.567,49.5L108.189,45.649L102.088,49.307L97.665,55.083L96.641,63.015L89.352,62.38L81.653,60.474L74.856,66.5L68.877,77.089L67.689,73.777L67.198,68.598L61.997,64.94L57.779,59.068L56.838,54.987L51.432,49.037L52.374,45.649L51.227,40.855L52.087,32.037L54.831,29.977L60.564,18.445L69.942,17.598L72.071,14.671L73.955,14.883L76.78,17.463L91.113,13.112L95.945,8.683L101.883,4.698L100.736,0.694L101.331,0.5M153.495,0.5L153.603,1.021L157.535,4.294M68.877,77.089L68.058,83.231L59.049,80.535L49.835,77.532L35.502,77.089L34.069,76.473L27.353,77.936L20.433,76.415L15.027,77.147L0.5,76.95M0.5,24.133L1.841,22.815L6.141,22.623L12.529,27.301L20.351,23.47L21.415,18.733L23.995,14.151L25.756,8.395L31.817,3.716L32.742,0.5M51.82,0.5L52.21,0.886L57.165,2.811L58.762,7.528L62.325,15.364L60.564,18.445M198.116,43.339L205.037,52.734L210.115,54.101L213.186,52.195L218.428,52.946L224.775,50.539L227.478,55.391L228,55.786M228,92.965L226.577,96.072L225.963,105.217L223.301,109.549L223.219,118.136L219.943,121.313L219.534,128.07L217.977,128.956L216.913,135.175M220.475,154.062L219.779,140.334L216.913,135.175L223.833,136.06L227.314,129.591L228,129.675M228,150.718L225.185,153.523L220.475,154.062L222.523,164.535L221.417,170.446M228,197.083L216.667,198.497L213.596,199.864L210.361,207.123L212.9,212.148L210.893,225.605L210.601,228M162.789,228L162.694,227.454L158.763,227.165M34.561,157.258L37.55,158.413L41.44,154.062L47.665,154.177L48.361,157.393L52.62,159.414L59.336,152.291L65.929,146.726L68.836,143.088L68.426,133.731L73.381,122.68L78.582,116.827L86.076,111.34L87.387,107.701L87.673,103.542L89.516,99.595L88.943,93.146L90.335,83.057L92.587,75.972L95.986,69.888L96.641,63.015M12.939,148.132L21.62,141.855L17.32,134.328L21.211,131.478L28.868,130.073L29.81,125.048L35.871,130.496L45.904,130.978L49.385,125.606L50.859,118.04L49.589,109.164L44.225,102.426L49.139,89.257L46.313,87.004L37.837,87.928L34.642,82.056L35.502,77.089M0.5,90.733L15.109,90.835L15.027,77.147M223.219,118.136L225.963,119.291L228,118.241M166.121,0.5L165.848,1.444L161.957,3.581L158.476,4.833"></path></g><g aria-label="line" stroke-linejoin="round" stroke-linecap="round"><path opacity="0.7" fill="#f4dc2a" stroke="black" d="M129.088,71.918C129.271,72.122,129.271,72.325,129.454,72.528C129.636,72.732,130.002,72.935,130.367,73.037C130.732,73.139,131.098,73.139,131.463,73.139C131.828,73.139,132.194,73.139,132.559,73.139C132.924,73.139,133.29,73.139,133.655,73.139C134.02,73.139,134.386,73.139,134.751,73.037C135.116,72.935,135.482,72.732,135.847,72.63C136.212,72.528,136.578,72.528,136.943,72.427C137.308,72.325,137.674,72.122,138.039,71.918C138.404,71.715,138.77,71.511,139.135,71.41C139.5,71.308,139.866,71.308,140.048,71.206C140.231,71.104,140.231,70.901,140.231,70.697C140.231,70.494,140.231,70.291,140.048,70.189C139.866,70.087,139.5,70.087,139.135,70.087C138.77,70.087,138.404,70.087,138.039,69.985C137.674,69.884,137.308,69.68,136.943,69.578C136.578,69.477,136.212,69.477,135.847,69.375C135.482,69.273,135.116,69.07,134.751,68.968C134.386,68.866,134.02,68.866,133.655,68.866C133.29,68.866,132.924,68.866,132.559,68.866C132.194,68.866,131.828,68.866,131.463,68.866C131.098,68.866,130.732,68.866,130.367,68.968C130.002,69.07,129.636,69.273,129.271,69.477C128.906,69.68,128.54,69.884,128.358,70.087C128.175,70.291,128.175,70.494,128.175,70.697C128.175,70.901,128.175,71.104,128.358,71.308C128.54,71.511,128.906,71.715,129.088,71.918"></path><path opacity="0.7" fill="	#6b7a1f" stroke="black" d="M20.876,104.675C21.339,105.165,22.267,105.656,22.73,106.146C23.194,106.636,23.194,107.127,23.658,107.617C24.122,108.107,25.049,108.598,25.977,108.843C26.904,109.088,27.831,109.088,28.759,109.333C29.686,109.578,30.614,110.068,31.541,110.314C32.469,110.559,33.396,110.559,34.324,110.559C35.251,110.559,36.178,110.559,37.106,110.559C38.033,110.559,38.961,110.559,39.888,110.559C40.816,110.559,41.743,110.559,42.671,110.559C43.598,110.559,44.525,110.559,45.453,110.314C46.38,110.068,47.308,109.578,48.235,109.088C49.163,108.598,50.09,108.107,50.554,107.617C51.018,107.127,51.018,106.636,51.018,106.146C51.018,105.656,51.018,105.165,51.018,104.675C51.018,104.185,51.018,103.694,51.018,103.204C51.018,102.714,51.018,102.223,50.554,101.733C50.09,101.243,49.163,100.753,48.699,100.262C48.235,99.772,48.235,99.282,47.771,98.791C47.308,98.301,46.38,97.811,45.453,97.32C44.525,96.83,43.598,96.34,42.671,96.095C41.743,95.849,40.816,95.849,39.888,95.849C38.961,95.849,38.033,95.849,37.106,95.849C36.178,95.849,35.251,95.849,34.324,95.849C33.396,95.849,32.469,95.849,31.541,95.849C30.614,95.849,29.686,95.849,28.759,96.095C27.831,96.34,26.904,96.83,25.977,97.075C25.049,97.32,24.122,97.32,23.658,97.566C23.194,97.811,23.194,98.301,23.194,98.791C23.194,99.282,23.194,99.772,22.73,100.262C22.267,100.753,21.339,101.243,20.876,101.733C20.412,102.223,20.412,102.714,20.412,103.204C20.412,103.694,20.412,104.185,20.876,104.675"></path><path opacity="0.7" fill="#6cabb4" stroke="black" d="M37.933,98.474C38.44,98.976,38.44,99.478,38.44,99.98C38.44,100.481,38.44,100.983,38.948,101.485C39.456,101.986,40.471,102.488,41.486,102.739C42.501,102.99,43.516,102.99,44.532,103.241C45.547,103.492,46.562,103.993,47.577,104.495C48.592,104.997,49.608,105.498,50.623,105.749C51.638,106,52.653,106,53.668,105.749C54.684,105.498,55.699,104.997,56.714,104.746C57.729,104.495,58.744,104.495,59.759,104.495C60.775,104.495,61.79,104.495,62.805,104.244C63.82,103.993,64.835,103.492,65.851,103.241C66.866,102.99,67.881,102.99,68.389,102.739C68.896,102.488,68.896,101.986,68.896,101.485C68.896,100.983,68.896,100.481,68.896,99.98C68.896,99.478,68.896,98.976,68.896,98.474C68.896,97.973,68.896,97.471,68.896,96.969C68.896,96.468,68.896,95.966,68.896,95.464C68.896,94.962,68.896,94.461,68.896,93.959C68.896,93.457,68.896,92.956,68.389,92.454C67.881,91.952,66.866,91.45,65.851,91.2C64.835,90.949,63.82,90.949,62.805,90.698C61.79,90.447,60.775,89.945,59.759,89.444C58.744,88.942,57.729,88.44,56.714,88.189C55.699,87.938,54.684,87.938,53.668,87.938C52.653,87.938,51.638,87.938,50.623,87.938C49.608,87.938,48.592,87.938,47.577,88.189C46.562,88.44,45.547,88.942,44.532,89.444C43.516,89.945,42.501,90.447,41.486,90.698C40.471,90.949,39.456,90.949,38.948,91.2C38.44,91.45,38.44,91.952,38.44,92.454C38.44,92.956,38.44,93.457,37.933,93.959C37.425,94.461,36.41,94.962,35.902,95.464C35.395,95.966,35.395,96.468,35.902,96.969C36.41,97.471,37.425,97.973,37.933,98.474"></path><path opacity="0.7" fill="	#f6d292" stroke="black" d="M126.631,164.415C126.829,164.627,127.224,164.838,127.619,165.05C128.015,165.261,128.41,165.473,128.805,165.578C129.201,165.684,129.596,165.684,129.991,165.79C130.386,165.896,130.782,166.107,131.177,166.213C131.572,166.319,131.968,166.319,132.363,166.319C132.758,166.319,133.154,166.319,133.549,166.319C133.944,166.319,134.339,166.319,134.537,166.213C134.735,166.107,134.735,165.896,134.932,165.684C135.13,165.473,135.525,165.261,135.723,165.05C135.921,164.838,135.921,164.627,135.921,164.415C135.921,164.204,135.921,163.992,135.723,163.781C135.525,163.569,135.13,163.357,134.735,163.146C134.339,162.934,133.944,162.723,133.549,162.511C133.154,162.3,132.758,162.088,132.561,161.877C132.363,161.665,132.363,161.454,132.165,161.242C131.968,161.031,131.572,160.819,131.177,160.714C130.782,160.608,130.386,160.608,129.991,160.608C129.596,160.608,129.201,160.608,128.805,160.608C128.41,160.608,128.015,160.608,127.619,160.608C127.224,160.608,126.829,160.608,126.433,160.714C126.038,160.819,125.643,161.031,125.445,161.242C125.248,161.454,125.248,161.665,125.248,161.877C125.248,162.088,125.248,162.3,125.248,162.511C125.248,162.723,125.248,162.934,125.445,163.146C125.643,163.357,126.038,163.569,126.236,163.781C126.433,163.992,126.433,164.204,126.631,164.415"></path><path opacity="0.7" fill="	#d43511" stroke="black" d="M130.623,90.38C130.623,91.339,130.623,92.298,131.595,93.257C132.568,94.216,134.512,95.175,136.457,96.134C138.401,97.093,140.346,98.052,142.29,99.011C144.235,99.97,146.179,100.929,148.124,101.408C150.068,101.888,152.013,101.888,153.957,102.367C155.902,102.847,157.847,103.806,159.791,104.285C161.736,104.765,163.68,104.765,165.625,104.765C167.569,104.765,169.514,104.765,171.458,104.285C173.403,103.806,175.347,102.847,177.292,101.888C179.236,100.929,181.181,99.97,183.125,99.011C185.07,98.052,187.015,97.093,188.959,96.134C190.904,95.175,192.848,94.216,193.82,93.257C194.793,92.298,194.793,91.339,194.793,90.38C194.793,89.421,194.793,88.462,194.793,87.503C194.793,86.544,194.793,85.585,193.82,84.626C192.848,83.667,190.904,82.708,189.931,81.749C188.959,80.791,188.959,79.832,188.959,78.873C188.959,77.914,188.959,76.955,187.987,75.996C187.015,75.037,185.07,74.078,183.125,73.598C181.181,73.119,179.236,73.119,177.292,72.639C175.347,72.16,173.403,71.201,171.458,70.721C169.514,70.242,167.569,70.242,165.625,70.242C163.68,70.242,161.736,70.242,159.791,70.242C157.847,70.242,155.902,70.242,153.957,70.242C152.013,70.242,150.068,70.242,148.124,70.721C146.179,71.201,144.235,72.16,142.29,73.119C140.346,74.078,138.401,75.037,136.457,75.996C134.512,76.955,132.568,77.914,131.595,78.873C130.623,79.832,130.623,80.791,130.623,81.749C130.623,82.708,130.623,83.667,130.623,84.626C130.623,85.585,130.623,86.544,130.623,87.503C130.623,88.462,130.623,89.421,130.623,90.38"></path><path opacity="0.7" fill=" #936310" stroke="black" d="M81.393,109.444C81.393,110.122,81.393,110.8,81.993,111.477C82.592,112.155,83.792,112.832,84.991,113.51C86.19,114.187,87.39,114.865,88.589,115.204C89.788,115.543,90.987,115.543,92.187,115.881C93.386,116.22,94.585,116.898,95.785,117.236C96.984,117.575,98.183,117.575,99.383,117.575C100.582,117.575,101.781,117.575,102.981,117.575C104.18,117.575,105.379,117.575,106.578,117.575C107.778,117.575,108.977,117.575,110.176,117.236C111.376,116.898,112.575,116.22,113.774,115.543C114.974,114.865,116.173,114.187,116.773,113.51C117.372,112.832,117.372,112.155,117.972,111.477C118.572,110.8,119.771,110.122,120.97,109.444C122.169,108.767,123.369,108.089,123.968,107.412C124.568,106.734,124.568,106.057,124.568,105.379C124.568,104.702,124.568,104.024,123.968,103.346C123.369,102.669,122.169,101.991,120.97,101.314C119.771,100.636,118.572,99.959,117.372,99.281C116.173,98.603,114.974,97.926,113.774,97.587C112.575,97.248,111.376,97.248,110.176,96.91C108.977,96.571,107.778,95.893,106.578,95.554C105.379,95.216,104.18,95.216,102.981,95.216C101.781,95.216,100.582,95.216,99.383,95.216C98.183,95.216,96.984,95.216,95.785,95.216C94.585,95.216,93.386,95.216,92.187,95.554C90.987,95.893,89.788,96.571,88.589,96.91C87.39,97.248,86.19,97.248,85.591,97.587C84.991,97.926,84.991,98.603,84.391,99.281C83.792,99.959,82.592,100.636,81.993,101.314C81.393,101.991,81.393,102.669,81.393,103.346C81.393,104.024,81.393,104.702,81.393,105.379C81.393,106.057,81.393,106.734,81.393,107.412C81.393,108.089,81.393,108.767,81.393,109.444"></path></g><g aria-label="line" fill="none" stroke-width="1.5" stroke-linejoin="round" stroke-linecap="round" stroke-dasharray="1 5"><path stroke="black" d="M77.271,116.136C78.595,117.595,81.242,119.055,83.889,120.514C86.536,121.974,89.183,123.433,91.831,124.163C94.478,124.893,97.125,124.893,99.772,124.893C102.419,124.893,105.067,124.893,107.714,125.623C110.361,126.353,113.008,127.812,115.655,127.812C118.302,127.812,120.95,126.353,123.597,125.623C126.244,124.893,128.891,124.893,131.538,124.163C134.186,123.433,136.833,121.974,138.156,120.514C139.48,119.055,139.48,117.595,139.48,116.136C139.48,114.676,139.48,113.217,139.48,111.757C139.48,110.297,139.48,108.838,139.48,107.378C139.48,105.919,139.48,104.459,139.48,103C139.48,101.54,139.48,100.081,138.156,98.621C136.833,97.162,134.186,95.702,131.538,94.972C128.891,94.242,126.244,94.242,123.597,93.513C120.95,92.783,118.302,91.323,115.655,90.594C113.008,89.864,110.361,89.864,107.714,89.134C105.067,88.404,102.419,86.945,99.772,86.945C97.125,86.945,94.478,88.404,91.831,89.134C89.183,89.864,86.536,89.864,83.889,90.594C81.242,91.323,78.595,92.783,77.271,94.242C75.947,95.702,75.947,97.162,75.947,98.621C75.947,100.081,75.947,101.54,75.947,103C75.947,104.459,75.947,105.919,75.947,107.378C75.947,108.838,75.947,110.297,75.947,111.757C75.947,113.217,75.947,114.676,77.271,116.136"></path></g><g aria-label="line" fill="none" stroke-width="1.5" stroke-linejoin="round" stroke-linecap="round"><path stroke="#2F4F4F" d="M66.63,110.959C66.63,112.169,68.857,113.379,69.971,114.588C71.085,115.798,71.085,117.008,72.198,118.218C73.312,119.427,75.539,120.637,77.767,121.847C79.994,123.056,82.221,124.266,84.448,124.871C86.676,125.476,88.903,125.476,91.13,125.476C93.358,125.476,95.585,125.476,97.812,124.871C100.04,124.266,102.267,123.056,104.494,121.847C106.722,120.637,108.949,119.427,111.176,118.218C113.403,117.008,115.631,115.798,117.858,114.588C120.085,113.379,122.313,112.169,124.54,110.959C126.767,109.749,128.995,108.54,130.108,107.33C131.222,106.12,131.222,104.911,131.222,103.701C131.222,102.491,131.222,101.281,131.222,100.072C131.222,98.862,131.222,97.652,131.222,96.442C131.222,95.233,131.222,94.023,130.108,93.418C128.995,92.813,126.767,92.813,124.54,92.208C122.313,91.604,120.085,90.394,117.858,89.789C115.631,89.184,113.403,89.184,111.176,89.184C108.949,89.184,106.722,89.184,104.494,89.789C102.267,90.394,100.04,91.604,97.812,92.208C95.585,92.813,93.358,92.813,91.13,93.418C88.903,94.023,86.676,95.233,84.448,96.442C82.221,97.652,79.994,98.862,77.767,100.072C75.539,101.281,73.312,102.491,72.198,103.701C71.085,104.911,71.085,106.12,69.971,107.33C68.857,108.54,66.63,109.749,66.63,110.959"></path></g><g aria-label="dot" fill="#696969"><circle cx="220.14807637499825" cy="95.99204437500134" r="3"></circle><circle cx="158.46823087493703" cy="64.61670037499107" r="3"></circle><circle cx="133.33282730458723" cy="154.66043312846432" r="3"></circle><circle cx="139.5648008749995" cy="70.73847512500606" r="3"></circle><circle cx="106.85206399997924" cy="69.05382624999265" r="3"></circle><circle cx="22.67218412497232" cy="103.94116737500053" r="3"></circle><circle cx="25.52499999997781" cy="104.95662500000026" r="3"></circle><circle cx="35.885349999977734" cy="94.34602500000187" r="3"></circle><circle cx="95.06410569908803" cy="102.18162656337404" r="3"></circle><circle cx="96.30645262031612" cy="101.73126127461933" r="3"></circle><circle cx="124.31161975003988" cy="106.10759300000109" r="3"></circle><circle cx="93.09364887497577" cy="111.19549400000187" r="3"></circle><circle cx="93.3504589124077" cy="101.33131156596437" r="3"></circle><circle cx="100.78557174997786" cy="160.20661524999878" r="3"></circle><circle cx="47.762442499965346" cy="94.90839362499901" r="3"></circle><circle cx="53.91864937497303" cy="98.00074424999934" r="3"></circle><circle cx="131.8480254175488" cy="164.62600669749645" r="3"></circle><circle cx="130.18111176618822" cy="163.34543069176925" r="3"></circle></g><g aria-label="dot"><circle cx="220.14807637499825" cy="95.99204437500134" r="2" fill="	#d43511"></circle><circle cx="158.46823087493703" cy="64.61670037499107" r="2" fill="	#d43511"></circle><circle cx="133.33282730458723" cy="154.66043312846432" r="2" fill="#805882"></circle><circle cx="139.5648008749995" cy="70.73847512500606" r="2" fill="#f4dc2a"></circle><circle cx="106.85206399997924" cy="69.05382624999265" r="2" fill="#f4dc2a"></circle><circle cx="22.67218412497232" cy="103.94116737500053" r="2" fill="	#6b7a1f"></circle><circle cx="25.52499999997781" cy="104.95662500000026" r="2" fill="	#6b7a1f"></circle><circle cx="35.885349999977734" cy="94.34602500000187" r="2" fill="	#6b7a1f"></circle><circle cx="95.06410569908803" cy="102.18162656337404" r="2" fill=" #936310"></circle><circle cx="96.30645262031612" cy="101.73126127461933" r="2" fill=" #936310"></circle><circle cx="124.31161975003988" cy="106.10759300000109" r="2" fill=" #936310"></circle><circle cx="93.09364887497577" cy="111.19549400000187" r="2" fill=" #936310"></circle><circle cx="93.3504589124077" cy="101.33131156596437" r="2" fill=" #936310"></circle><circle cx="100.78557174997786" cy="160.20661524999878" r="2" fill=" #071455"></circle><circle cx="47.762442499965346" cy="94.90839362499901" r="2" fill="#6cabb4"></circle><circle cx="53.91864937497303" cy="98.00074424999934" r="2" fill="#6cabb4"></circle><circle cx="131.8480254175488" cy="164.62600669749645" r="2" fill="	#f6d292"></circle><circle cx="130.18111176618822" cy="163.34543069176925" r="2" fill="	#f6d292"></circle></g><g aria-label="link" fill="none" stroke="black" stroke-width="1.5" stroke-miterlimit="1" stroke-dasharray="8 4"><marker viewBox="-5 -5 10 10" markerWidth="6.67" markerHeight="6.67" orient="auto" fill="none" stroke="black" stroke-width="1.5" stroke-linecap="round" stroke-linejoin="round" id="plot-marker-1"><path d="M-1.5,-3l3,3l-3,3"></path></marker><path d="M118.573,97.367L161.721,86.718" marker-end="url(#plot-marker-1)"></path><path d="M129.529,80.333L133.333,154.66" marker-end="url(#plot-marker-1)"></path><path d="M82.697,112.806L101.174,106.601" marker-end="url(#plot-marker-1)"></path><path d="M88.428,114.748L100.786,160.207" marker-end="url(#plot-marker-1)"></path><path d="M101.583,113.121L130.389,163.286" marker-end="url(#plot-marker-1)"></path></g><g aria-label="link" fill="none" stroke="black" stroke-width="1.5" stroke-miterlimit="1" stroke-dasharray="10 0"><marker viewBox="-5 -5 10 10" markerWidth="6.67" markerHeight="6.67" orient="auto" fill="none" stroke="black" stroke-width="1.5" stroke-linecap="round" stroke-linejoin="round" id="plot-marker-2"><path d="M-1.5,-3l3,3l-3,3"></path></marker><path d="M118.573,97.367L129.529,80.333" marker-end="url(#plot-marker-2)"></path><path d="M129.529,80.333L132.13,71.069" marker-end="url(#plot-marker-2)"></path><path d="M82.697,112.806L35.918,103.577" marker-end="url(#plot-marker-2)"></path><path d="M101.583,113.121L53.506,97.242" marker-end="url(#plot-marker-2)"></path></g><g aria-label="link" fill="none" stroke-miterlimit="1" stroke-dasharray="8 4"><marker viewBox="-5 -5 10 10" markerWidth="6.67" markerHeight="6.67" orient="auto" fill="none" stroke="	#d43511" stroke-width="1.5" stroke-linecap="round" stroke-linejoin="round" id="plot-marker-3"><path d="M-1.5,-3l3,3l-3,3"></path></marker><path d="M118.573,97.367L161.721,86.718" stroke="	#d43511" marker-end="url(#plot-marker-3)"></path><marker viewBox="-5 -5 10 10" markerWidth="6.67" markerHeight="6.67" orient="auto" fill="none" stroke="#805882" stroke-width="1.5" stroke-linecap="round" stroke-linejoin="round" id="plot-marker-4"><path d="M-1.5,-3l3,3l-3,3"></path></marker><path d="M129.529,80.333L133.333,154.66" stroke="#805882" marker-end="url(#plot-marker-4)"></path><marker viewBox="-5 -5 10 10" markerWidth="6.67" markerHeight="6.67" orient="auto" fill="none" stroke=" #936310" stroke-width="1.5" stroke-linecap="round" stroke-linejoin="round" id="plot-marker-5"><path d="M-1.5,-3l3,3l-3,3"></path></marker><path d="M82.697,112.806L101.174,106.601" stroke=" #936310" marker-end="url(#plot-marker-5)"></path><marker viewBox="-5 -5 10 10" markerWidth="6.67" markerHeight="6.67" orient="auto" fill="none" stroke=" #071455" stroke-width="1.5" stroke-linecap="round" stroke-linejoin="round" id="plot-marker-6"><path d="M-1.5,-3l3,3l-3,3"></path></marker><path d="M88.428,114.748L100.786,160.207" stroke=" #071455" marker-end="url(#plot-marker-6)"></path><marker viewBox="-5 -5 10 10" markerWidth="6.67" markerHeight="6.67" orient="auto" fill="none" stroke="	#f6d292" stroke-width="1.5" stroke-linecap="round" stroke-linejoin="round" id="plot-marker-7"><path d="M-1.5,-3l3,3l-3,3"></path></marker><path d="M101.583,113.121L130.389,163.286" stroke="	#f6d292" marker-end="url(#plot-marker-7)"></path></g><g aria-label="link" fill="none" stroke-miterlimit="1" stroke-dasharray="10 0"><marker viewBox="-5 -5 10 10" markerWidth="6.67" markerHeight="6.67" orient="auto" fill="none" stroke="#f4dc2a" stroke-width="1.5" stroke-linecap="round" stroke-linejoin="round" id="plot-marker-8"><path d="M-1.5,-3l3,3l-3,3"></path></marker><path d="M118.573,97.367L129.529,80.333" stroke="#f4dc2a" marker-end="url(#plot-marker-8)"></path><path d="M129.529,80.333L132.13,71.069" stroke="#f4dc2a" marker-end="url(#plot-marker-8)"></path><marker viewBox="-5 -5 10 10" markerWidth="6.67" markerHeight="6.67" orient="auto" fill="none" stroke="	#6b7a1f" stroke-width="1.5" stroke-linecap="round" stroke-linejoin="round" id="plot-marker-9"><path d="M-1.5,-3l3,3l-3,3"></path></marker><path d="M82.697,112.806L35.918,103.577" stroke="	#6b7a1f" marker-end="url(#plot-marker-9)"></path><marker viewBox="-5 -5 10 10" markerWidth="6.67" markerHeight="6.67" orient="auto" fill="none" stroke="#6cabb4" stroke-width="1.5" stroke-linecap="round" stroke-linejoin="round" id="plot-marker-10"><path d="M-1.5,-3l3,3l-3,3"></path></marker><path d="M101.583,113.121L53.506,97.242" stroke="#6cabb4" marker-end="url(#plot-marker-10)"></path></g><g aria-label="dot" fill="black"><circle cx="106.46414540004344" cy="108.65564572180028" r="3"></circle></g></g><text x="3" y="15" font-size="18" font-family="HelveticaNeue-Light">B</text></g></svg>