<svg xmlns="http://www.w3.org/2000/svg" width="457" height="265"><g transform="translate(0, 0)"><g transform="scale(1)"><g transform="translate(0, 0)"><style>:where(.plot-d6a7b5) {
  --plot-background: white;
  display: block;
  height: auto;
  height: intrinsic;
  max-width: 100%;
}
:where(.plot-d6a7b5 text),
:where(.plot-d6a7b5 tspan) {
  white-space: pre;
}</style><g aria-label="x-grid" aria-hidden="true" stroke="currentColor" stroke-opacity="0.1"><line x1="55.3897411439394" x2="55.3897411439394" y1="15" y2="161.66666666666666"></line><line x1="96.52674052895269" x2="96.52674052895269" y1="15" y2="161.66666666666666"></line><line x1="137.66373991396597" x2="137.66373991396597" y1="15" y2="161.66666666666666"></line><line x1="178.79510795067196" x2="178.79510795067196" y1="15" y2="161.66666666666666"></line><line x1="219.93210733568526" x2="219.93210733568526" y1="15" y2="161.66666666666666"></line><line x1="261.0691067206985" x2="261.0691067206985" y1="15" y2="161.66666666666666"></line><line x1="302.20610610571185" x2="302.20610610571185" y1="15" y2="161.66666666666666"></line><line x1="343.3431054907251" x2="343.3431054907251" y1="15" y2="161.66666666666666"></line><line x1="384.4801048757384" x2="384.4801048757384" y1="15" y2="161.66666666666666"></line></g><g aria-label="rule" stroke="currentColor"><line x1="35" x2="397" y1="161.66666666666666" y2="161.66666666666666"></line></g><g aria-label="link" fill="none" stroke="currentColor" stroke-width="0.5" stroke-miterlimit="1" stroke-dasharray="1, 1"><path d="M381.097,157.476L396.138,157.476"></path><path d="M385.399,149.095L396.138,149.095"></path><path d="M373.444,140.714L396.138,140.714"></path><path d="M385.332,132.333L396.138,132.333"></path><path d="M389.24,123.952L396.138,123.952"></path><path d="M333.034,115.571L396.138,115.571"></path><path d="M335.449,107.19L396.138,107.19"></path><path d="M336.806,98.81L396.138,98.81"></path><path d="M333.754,90.429L396.138,90.429"></path><path d="M295.523,82.048L396.138,82.048"></path><path d="M297.049,73.667L396.138,73.667"></path><path d="M396.138,65.286L396.138,65.286"></path><path d="M379.154,56.905L396.138,56.905"></path><path d="M381.542,48.524L396.138,48.524"></path><path d="M361.855,40.143L396.138,40.143"></path><path d="M359.106,31.762L396.138,31.762"></path><path d="M351.217,23.381L396.138,23.381"></path><path d="M347.759,15L396.138,15"></path></g><g aria-label="text" font-family="HelveticaNeue-Light" font-size="7" font-weight="300" transform="translate(5,0)"><text y="0.32em" transform="translate(396.1381690694664,157.47619047619045)">Equateur/2018</text><text y="0.32em" transform="translate(396.1381690694664,149.09523809523807)">Equateur/2020</text><text y="0.32em" transform="translate(396.1381690694664,140.71428571428572)">Tshuapa/2014</text><text y="0.32em" transform="translate(396.1381690694664,132.33333333333334)">Equateur/2020</text><text y="0.32em" transform="translate(396.1381690694664,123.95238095238095)">Equateur/2022 </text><text y="0.32em" transform="translate(396.1381690694664,115.57142857142856)">Gabon/1994</text><text y="0.32em" transform="translate(396.1381690694664,107.19047619047618)">Gabon/1996a</text><text y="0.32em" transform="translate(396.1381690694664,98.8095238095238)">Gabon/1996b</text><text y="0.32em" transform="translate(396.1381690694664,90.42857142857142)">Kwilu/1995</text><text y="0.32em" transform="translate(396.1381690694664,82.04761904761905)">Yambuku/1976 </text><text y="0.32em" transform="translate(396.1381690694664,73.66666666666667)">Sud-Ubangi/1977</text><text y="0.32em" transform="translate(396.1381690694664,65.28571428571428)">Kasaï/2025</text><text y="0.32em" transform="translate(396.1381690694664,56.9047619047619)">Bas-Uele/2017</text><text y="0.32em" transform="translate(396.1381690694664,48.52380952380951)">Kivu/2018</text><text y="0.32em" transform="translate(396.1381690694664,40.14285714285713)">Kasaï/2008</text><text y="0.32em" transform="translate(396.1381690694664,31.761904761904766)">Kasaï/2007 </text><text y="0.32em" transform="translate(396.1381690694664,23.380952380952383)">RoC/2003</text><text y="0.32em" transform="translate(396.1381690694664,15)">Gabon/2001</text></g><g aria-label="link" fill="none" stroke-width="1.5" stroke-miterlimit="1"><path d="M221.488,55.792L221.488,84.012L254.042,84.012" stroke=" #071455"></path><path d="M254.042,84.012L254.042,105.881L283.63,105.881" stroke=" #071455"></path><path d="M283.63,105.881L283.63,121.333L288.501,121.333" stroke=" #071455"></path><path d="M344.043,137.571L344.043,137.571L346.075,137.571" stroke=" #071455"></path><path d="M346.075,137.571L346.075,147L356.955,147" stroke=" #936310"></path><path d="M356.955,147L356.955,153.286L380.14,153.286" stroke=" #936310"></path><path d="M380.14,153.286L380.14,157.476L381.097,157.476" stroke=" #936310"></path><path d="M380.14,153.286L380.14,149.095L385.399,149.095" stroke=" #936310"></path><path d="M356.955,147L356.955,140.714L373.444,140.714" stroke=" #936310"></path><path d="M346.075,137.571L346.075,128.143L366.517,128.143" stroke=" #936310"></path><path d="M366.517,128.143L366.517,132.333L385.332,132.333" stroke=" #936310"></path><path d="M366.517,128.143L366.517,123.952L389.24,123.952" stroke=" #936310"></path><path d="M288.501,121.333L288.501,105.095L320.346,105.095" stroke=" #071455"></path><path d="M320.346,105.095L320.346,111.381L326.501,111.381" stroke="	#6b7a1f"></path><path d="M326.501,111.381L326.501,115.571L333.034,115.571" stroke="	#6b7a1f"></path><path d="M326.501,111.381L326.501,107.19L335.449,107.19" stroke="	#6b7a1f"></path><path d="M320.346,105.095L320.346,98.81L336.806,98.81" stroke="	#6b7a1f"></path><path d="M323.528,90.429L323.528,90.429L333.754,90.429" stroke=" #071455"></path><path d="M254.042,84.012L254.042,62.143L256.796,62.143" stroke=" #071455"></path><path d="M256.796,62.143L256.796,71.571L288.011,71.571" stroke=" #071455"></path><path d="M288.011,71.571L288.011,77.857L295.326,77.857" stroke=" #071455"></path><path d="M295.326,77.857L295.326,82.048L295.523,82.048" stroke="#f4dc2a"></path><path d="M295.326,77.857L295.326,73.667L297.049,73.667" stroke="#f4dc2a"></path><path d="M381.694,65.286L381.694,65.286L396.138,65.286" stroke="#805882"></path><path d="M304.37,52.714L304.37,52.714L312.04,52.714" stroke=" #071455"></path><path d="M312.04,52.714L312.04,56.905L379.154,56.905" stroke="	#d43511"></path><path d="M312.04,52.714L312.04,48.524L381.542,48.524" stroke="	#d43511"></path><path d="M221.488,55.792L221.488,27.571L238.708,27.571" stroke=" #071455"></path><path d="M331.924,35.952L331.924,35.952L358.25,35.952" stroke=" #071455"></path><path d="M358.25,35.952L358.25,40.143L361.855,40.143" stroke="	#f6d292"></path><path d="M358.25,35.952L358.25,31.762L359.106,31.762" stroke="	#f6d292"></path><path d="M238.708,27.571L238.708,19.19L335.331,19.19" stroke=" #071455"></path><path d="M335.331,19.19L335.331,23.381L351.217,23.381" stroke="#6cabb4"></path><path d="M335.331,19.19L335.331,15L347.759,15" stroke="#6cabb4"></path><path d="M288.501,121.333L288.501,137.571L290.601,137.571" stroke=" #071455"></path><path d="M283.63,105.881L283.63,90.429L297.95,90.429" stroke=" #071455"></path><path d="M288.011,71.571L288.011,65.286L305.181,65.286" stroke=" #071455"></path><path d="M256.796,62.143L256.796,52.714L265.998,52.714" stroke=" #071455"></path><path d="M238.708,27.571L238.708,35.952L277.841,35.952" stroke=" #071455"></path></g><g aria-label="link" fill="none" stroke="	#73878c" stroke-miterlimit="1" stroke-dasharray="6,3"><path d="M290.601,137.571L290.601,137.571L344.043,137.571"></path><path d="M297.95,90.429L297.95,90.429L323.528,90.429"></path><path d="M305.181,65.286L305.181,65.286L381.694,65.286"></path><path d="M265.998,52.714L265.998,52.714L304.37,52.714"></path><path d="M277.841,35.952L277.841,35.952L331.924,35.952"></path></g><g aria-label="dot" stroke=" #071455" stroke-width="0.5"><circle cx="381.09683774059977" cy="157.47619047619045" r="2" fill=" #936310"></circle><circle cx="385.3991878473965" cy="149.09523809523807" r="2" fill=" #936310"></circle><circle cx="373.44383539094434" cy="140.71428571428572" r="2" fill=" #936310"></circle><circle cx="385.3316116677086" cy="132.33333333333334" r="2" fill=" #936310"></circle><circle cx="389.2397673929926" cy="123.95238095238095" r="2" fill=" #936310"></circle><circle cx="333.03351457708885" cy="115.57142857142856" r="2" fill="	#6b7a1f"></circle><circle cx="335.4493630009315" cy="107.19047619047618" r="2" fill="	#6b7a1f"></circle><circle cx="336.8062833034842" cy="98.8095238095238" r="2" fill="	#6b7a1f"></circle><circle cx="333.7540925209137" cy="90.42857142857142" r="2" fill=" #071455"></circle><circle cx="295.52286886248044" cy="82.04761904761905" r="2" fill="#f4dc2a"></circle><circle cx="297.04896425376563" cy="73.66666666666667" r="2" fill="#f4dc2a"></circle><circle cx="396.1381690694664" cy="65.28571428571428" r="2" fill="#805882"></circle><circle cx="379.1540225745725" cy="56.9047619047619" r="2" fill="	#d43511"></circle><circle cx="381.5417142568785" cy="48.52380952380951" r="2" fill="	#d43511"></circle><circle cx="361.8547552139811" cy="40.14285714285713" r="2" fill="	#f6d292"></circle><circle cx="359.10642260049343" cy="31.761904761904766" r="2" fill="	#f6d292"></circle><circle cx="351.2171382614431" cy="23.380952380952383" r="2" fill="#6cabb4"></circle><circle cx="347.75949040074516" cy="15" r="2" fill="#6cabb4"></circle></g><g aria-label="line" fill="none" stroke="grey" stroke-width="1.5" stroke-linejoin="round" stroke-linecap="round"><path d="M35,157.459L35,157.459L35,157.46L35,157.461L35,157.462L35,157.464L35,157.466L35,157.469L35,157.472L35,157.475L35,157.476L35,157.476L35,157.476L35,157.476L35,157.476L35,157.476L35,157.476L35,157.476L35,157.476L35,157.476L35,157.476L35,157.476L35,157.476L35,157.476L35,157.476L35,157.476L35,157.476L35,157.476L35,157.476L35,157.476L35,157.476L35,157.476L35,157.476L35,157.476L35,157.476L35,157.476L35,157.476L35,157.475L35,157.472L35,157.469L35,157.466L35,157.464L35,157.462L35,157.461L35,157.46L35,157.459L35,157.459L35,157.459L35,157.459L35,157.46L35,157.461L35,157.462L35,157.464L35,157.466L35,157.468L35,157.471L35,157.474L35,157.476L35,157.476L35,157.476L35,157.476L35,157.476L35,157.476L35,157.476L35,157.476L35,157.476L35,157.476L35,157.476L35,157.476L35,157.476L35,157.476L35,157.476L35,157.476L35,157.476L35,157.476L35,157.476L35,157.476L35,157.476L35,157.476L35,157.476L35,157.476L35,157.476L35,157.476L35,157.476L35,157.474L35,157.471L35,157.468L35,157.463L35,157.458L35,157.454L35,157.45L35,157.447L35,157.445L35,157.443L35,157.442L35,157.442L35,157.442L35,157.443L35,157.445L35,157.444L35,157.444L35,157.44L35,157.437L35,157.435L35,157.433L35,157.43L35,157.429L35,157.427L35,157.425L35,157.424L35,157.424L35,157.425L35,157.428L35,157.431L35,157.435L35,157.44L35,157.447L35,157.454L35,157.459L35,157.46L35,157.461L35,157.457L35,157.453L35,157.449L35,157.446L35,157.444L35,157.442L35,157.442L35,157.441L35,157.442L35,157.443L35,157.443L35,157.44L35,157.434L35,157.427L35,157.421L35,157.418L35,157.417L35,157.414L35,157.41L35,157.404L35,157.4L35,157.397L35,157.396L35,157.394L35,157.393L35,157.395L35,157.393L35,157.393L35,157.394L35,157.396L35,157.399L35,157.401L35,157.4L35,157.399L35,157.399L35,157.398L35,157.398L35,157.401L35,157.404L35,157.405L35,157.405L35,157.405L35,157.408L35,157.41L35,157.413L35,157.414L35,157.41L35,157.407L35,157.404L35,157.401L35,157.4L35,157.401L35,157.403L35,157.408L35,157.412L35,157.415L35,157.417L35,157.422L35,157.426L35,157.425L35,157.423L35,157.422L35,157.422L35,157.424L35,157.427L35,157.426L35,157.425L35,157.426L35,157.427L35,157.426L35,157.422L35,157.417L35,157.412L35,157.405L35,157.4L35,157.39L35,157.378L35,157.367L35,157.357L35,157.342L35,157.331L35,157.323L35,157.319L35,157.316L35,157.316L35,157.319L35,157.327L35,157.334L35,157.346L35,157.359L35,157.371L35,157.383L35,157.391L35,157.396L35,157.396L35,157.389L35,157.381L35,157.372L35,157.366L35,157.357L35,157.351L35,157.347L35,157.344L35,157.343L35,157.342L35,157.341L35,157.345L35,157.348L35,157.355L35,157.362L35,157.363L35,157.365L35,157.367L35,157.368L35,157.363L35,157.356L35,157.352L35,157.351L35,157.353L35,157.355L35,157.359L35,157.364L35,157.363L35,157.36L35,157.359L35,157.36L35,157.363L35,157.371L35,157.381L35,157.39L35,157.392L35,157.392L35,157.393L35,157.395L35,157.393L35,157.39L35,157.389L35,157.391L35,157.395L35,157.4L35,157.406L35,157.412L35,157.408L35,157.402L35,157.391L35,157.381L35,157.372L35,157.364L35,157.352L35,157.339L35,157.326L35,157.311L35,157.295L35,157.284L35,157.269L35,157.253L35,157.243L35,157.237L35,157.236L35,157.24L35,157.247L35,157.259L35,157.268L35,157.279L35,157.288L35,157.299L35,157.311L35,157.319L35,157.323L35,157.325L35,157.329L35,157.329L35,157.327L35,157.325L35,157.314L35,157.305L35,157.3L35,157.298L35,157.299L35,157.3L35,157.306L35,157.317L35,157.328L35,157.339L35,157.35L35,157.363L35,157.369L35,157.371L35,157.366L35,157.35L35,157.337L35,157.321L35,157.301L35,157.276L35,157.237L35,157.2L35,157.163L35,157.132L35,157.105L35,157.076L35,157.048L35,157.022L35,156.996L35,156.964L35,156.938L35,156.918L35,156.897L35,156.885L35,156.867L35,156.829L35,156.796L35,156.769L36.881,156.733L38.936,156.705L40.997,156.681L43.053,156.659L45.108,156.623L47.164,156.575L49.225,156.506L51.28,156.43L53.336,156.351L55.391,156.256L57.452,156.167L59.508,156.069L61.563,155.984L63.619,155.893L65.68,155.809L67.735,155.724L69.79,155.611L71.846,155.486L73.907,155.388L75.962,155.322L78.018,155.258L80.073,155.202L82.134,155.15L84.19,155.11L86.245,155.073L88.301,155.023L90.362,154.949L92.417,154.857L94.473,154.746L96.528,154.6L98.589,154.438L100.645,154.28L102.7,154.12L104.756,153.923L106.817,153.693L108.872,153.432L110.928,153.118L112.983,152.792L115.044,152.493L117.099,152.196L119.155,151.87L121.21,151.525L123.271,151.184L125.327,150.844L127.382,150.533L129.438,150.197L131.499,149.829L133.554,149.423L135.61,148.995L137.665,148.532L139.721,148.074L141.776,147.595L143.831,147.094L145.887,146.582L147.948,146.033L150.003,145.483L152.059,144.891L154.114,144.236L156.175,143.579L158.231,142.866L160.286,142.05L162.342,141.154L164.403,140.245L166.458,139.234L168.514,138.218L170.569,137.147L172.63,135.956L174.686,134.643L176.741,133.216L178.797,131.709L180.858,130.183L182.913,128.575L184.968,126.846L187.024,125.021L189.085,123.093L191.14,121.163L193.196,119.234L195.251,117.227L197.312,115.249L199.368,113.291L201.423,111.307L203.479,109.252L205.54,107.135L207.595,104.907L209.651,102.748L211.706,100.745L213.767,98.807L215.823,97.039L217.878,95.578L219.934,94.475L221.995,93.775L224.05,93.625L226.105,94.03L228.161,94.95L230.222,96.466L232.277,98.57L234.333,101.294L236.388,104.55L238.449,108.346L240.505,112.581L242.56,117.128L244.616,121.819L246.677,126.472L248.732,130.953L250.788,135.224L252.843,139.245L254.904,142.838L256.96,145.984L259.015,148.743L261.071,151.048L263.132,152.859L265.187,154.291"></path></g><g aria-label="area" fill="	#73878c"><path opacity="0.5" d="M112.983,152.792L115.044,152.493L117.099,152.196L119.155,151.87L121.21,151.525L123.271,151.184L125.327,150.844L127.382,150.533L129.438,150.197L131.499,149.829L133.554,149.423L135.61,148.995L137.665,148.532L139.721,148.074L141.776,147.595L143.831,147.094L145.887,146.582L147.948,146.033L150.003,145.483L152.059,144.891L154.114,144.236L156.175,143.579L158.231,142.866L160.286,142.05L162.342,141.154L164.403,140.245L166.458,139.234L168.514,138.218L170.569,137.147L172.63,135.956L174.686,134.643L176.741,133.216L178.797,131.709L180.858,130.183L182.913,128.575L184.968,126.846L187.024,125.021L189.085,123.093L191.14,121.163L193.196,119.234L195.251,117.227L197.312,115.249L199.368,113.291L201.423,111.307L203.479,109.252L205.54,107.135L207.595,104.907L209.651,102.748L211.706,100.745L213.767,98.807L215.823,97.039L217.878,95.578L219.934,94.475L221.995,93.775L224.05,93.625L226.105,94.03L228.161,94.95L230.222,96.466L232.277,98.57L234.333,101.294L236.388,104.55L238.449,108.346L240.505,112.581L242.56,117.128L244.616,121.819L246.677,126.472L248.732,130.953L250.788,135.224L252.843,139.245L254.904,142.838L254.904,157.476L252.843,157.476L250.788,157.476L248.732,157.476L246.677,157.476L244.616,157.476L242.56,157.476L240.505,157.476L238.449,157.476L236.388,157.476L234.333,157.476L232.277,157.476L230.222,157.476L228.161,157.476L226.105,157.476L224.05,157.476L221.995,157.476L219.934,157.476L217.878,157.476L215.823,157.476L213.767,157.476L211.706,157.476L209.651,157.476L207.595,157.476L205.54,157.476L203.479,157.476L201.423,157.476L199.368,157.476L197.312,157.476L195.251,157.476L193.196,157.476L191.14,157.476L189.085,157.476L187.024,157.476L184.968,157.476L182.913,157.476L180.858,157.476L178.797,157.476L176.741,157.476L174.686,157.476L172.63,157.476L170.569,157.476L168.514,157.476L166.458,157.476L164.403,157.476L162.342,157.476L160.286,157.476L158.231,157.476L156.175,157.476L154.114,157.476L152.059,157.476L150.003,157.476L147.948,157.476L145.887,157.476L143.831,157.476L141.776,157.476L139.721,157.476L137.665,157.476L135.61,157.476L133.554,157.476L131.499,157.476L129.438,157.476L127.382,157.476L125.327,157.476L123.271,157.476L121.21,157.476L119.155,157.476L117.099,157.476L115.044,157.476L112.983,157.476Z"></path></g><g aria-label="line" fill="none" stroke=" #071455" stroke-width="1.5" stroke-linejoin="round" stroke-linecap="round"><path d="M35,157.459L35,157.459L35,157.459L35,157.459L35,157.459L35,157.46L35,157.46L35,157.461L35,157.462L35,157.462L35,157.463L35,157.464L35,157.465L35,157.466L35,157.468L35,157.469L35,157.47L35,157.472L35,157.473L35,157.475L35,157.476L35,157.476L35,157.476L35,157.476L35,157.476L35,157.476L35,157.476L35,157.476L35,157.476L35,157.476L35,157.476L35,157.476L35,157.476L35,157.476L35,157.476L35,157.476L35,157.476L35,157.476L35,157.476L35,157.476L35,157.475L35,157.473L35,157.47L35,157.466L35,157.461L35,157.456L35,157.45L35,157.445L35,157.439L35,157.432L35,157.426L35,157.421L35,157.416L35,157.411L35,157.407L35,157.404L35,157.4L35,157.398L35,157.395L35,157.393L35,157.392L35,157.391L35,157.39L35,157.39L35,157.39L35,157.391L35,157.392L35,157.394L35,157.396L35,157.398L35,157.401L35,157.404L35,157.408L35,157.412L35,157.417L35,157.422L35,157.426L35,157.43L35,157.435L35,157.441L35,157.445L35,157.45L35,157.454L35,157.455L35,157.458L35,157.459L35,157.46L35,157.461L35,157.461L35,157.46L35,157.46L35,157.459L35,157.457L35,157.456L35,157.454L35,157.452L35,157.451L35,157.45L35,157.449L35,157.448L35,157.448L35,157.447L35,157.447L35,157.447L35,157.447L35,157.447L35,157.445L35,157.444L35,157.444L35,157.443L35,157.443L35,157.443L35,157.443L35,157.444L35,157.445L35,157.446L35,157.445L35,157.445L35,157.445L35,157.445L35,157.446L35,157.446L35,157.445L35,157.442L35,157.44L35,157.436L35,157.433L35,157.43L35,157.428L35,157.426L35,157.425L35,157.424L35,157.422L35,157.42L35,157.419L35,157.417L35,157.417L35,157.416L35,157.416L35,157.416L35,157.417L35,157.418L35,157.419L35,157.421L35,157.422L35,157.423L35,157.42L35,157.418L35,157.417L35,157.415L35,157.415L35,157.414L35,157.415L35,157.415L35,157.416L35,157.418L35,157.42L35,157.422L35,157.425L35,157.428L35,157.43L35,157.432L35,157.433L35,157.433L35,157.433L35,157.432L35,157.431L35,157.43L35,157.43L35,157.429L35,157.428L35,157.426L35,157.425L35,157.425L35,157.425L35,157.425L35,157.425L35,157.426L35,157.427L35,157.429L35,157.43L35,157.431L35,157.432L35,157.433L35,157.435L35,157.435L35,157.434L35,157.434L35,157.433L35,157.433L35,157.43L35,157.427L35,157.425L35,157.423L35,157.421L35,157.42L35,157.419L35,157.417L35,157.416L35,157.413L35,157.409L35,157.406L35,157.403L35,157.401L35,157.398L35,157.395L35,157.393L35,157.391L35,157.39L35,157.39L35,157.388L35,157.387L35,157.385L35,157.383L35,157.382L35,157.381L35,157.381L35,157.38L35,157.38L35,157.38L35,157.381L35,157.381L35,157.382L35,157.383L35,157.385L35,157.388L35,157.389L35,157.391L35,157.392L35,157.393L35,157.393L35,157.393L35,157.393L35,157.394L35,157.396L35,157.396L35,157.396L35,157.394L35,157.394L35,157.392L35,157.391L35,157.39L35,157.39L35,157.39L35,157.391L35,157.39L35,157.388L35,157.388L35,157.387L35,157.385L35,157.383L35,157.382L35,157.38L35,157.379L35,157.378L35,157.378L35,157.378L35,157.377L35,157.378L35,157.378L35,157.378L35,157.378L35,157.379L35,157.381L35,157.384L35,157.387L35,157.389L35,157.391L35,157.393L35,157.395L35,157.397L35,157.4L35,157.404L35,157.408L35,157.413L35,157.416L35,157.418L35,157.42L35,157.421L35,157.42L35,157.421L35,157.422L35,157.423L35,157.425L35,157.426L35,157.424L35,157.423L35,157.422L35,157.421L35,157.416L35,157.409L35,157.397L35,157.385L35,157.375L35,157.364L35,157.352L35,157.341L35,157.331L35,157.322L35,157.313L35,157.304L35,157.293L35,157.282L35,157.273L35,157.265L35,157.257L35,157.249L35,157.239L35,157.226L35,157.214L35,157.203L35,157.192L35,157.182L35,157.174L35,157.167L35,157.161L35,157.157L35,157.153L35,157.148L35,157.142L35,157.135L35,157.126L35,157.12L35,157.117L35,157.114L35,157.109L35.856,157.101L36.881,157.094L37.911,157.089L38.936,157.087L39.967,157.083L40.997,157.076L42.028,157.071L43.053,157.065L44.083,157.059L45.108,157.053L46.139,157.047L47.164,157.039L48.194,157.031L49.225,157.017L50.255,157.002L51.28,156.987L52.311,156.973L53.336,156.958L54.366,156.941L55.391,156.926L56.422,156.913L57.452,156.9L58.483,156.884L59.508,156.867L60.538,156.854L61.563,156.841L62.594,156.83L63.619,156.822L64.649,156.815L65.68,156.809L66.71,156.804L67.735,156.797L68.766,156.782L69.79,156.767L70.821,156.75L71.846,156.731L72.876,156.716L73.907,156.706L74.938,156.699L75.962,156.69L76.993,156.681L78.018,156.671L79.048,156.665L80.073,156.658L81.104,156.654L82.134,156.648L83.165,156.642L84.19,156.635L85.22,156.633L86.245,156.632L87.276,156.631L88.301,156.629L89.331,156.625L90.362,156.616L91.392,156.606L92.417,156.596L93.448,156.584L94.473,156.568L95.503,156.545L96.528,156.516L97.559,156.489L98.589,156.463L99.62,156.434L100.645,156.407L101.675,156.38L102.7,156.353L103.731,156.318L104.756,156.28L105.786,156.235L106.817,156.184L107.847,156.134L108.872,156.08L109.903,156.016L110.928,155.942L111.958,155.868L112.983,155.788L114.013,155.709L115.044,155.636L116.075,155.566L117.099,155.494L118.13,155.422L119.155,155.352L120.185,155.283L121.21,155.213L122.241,155.148L123.271,155.081L124.302,155.014L125.327,154.95L126.357,154.892L127.382,154.835L128.413,154.778L129.438,154.723L130.468,154.66L131.499,154.588L132.529,154.504L133.554,154.419L134.585,154.328L135.61,154.238L136.64,154.148L137.665,154.056L138.696,153.965L139.721,153.869L140.751,153.773L141.776,153.68L142.807,153.585L143.831,153.494L144.862,153.397L145.887,153.299L146.917,153.191L147.948,153.07L148.979,152.948L150.003,152.817L151.034,152.676L152.059,152.525L153.089,152.374L154.114,152.218L155.145,152.071L156.175,151.937L157.206,151.797L158.231,151.643L159.261,151.483L160.286,151.316L161.317,151.138L162.342,150.952L163.372,150.757L164.403,150.553L165.433,150.336L166.458,150.109L167.489,149.881L168.514,149.647L169.544,149.402L170.569,149.147L171.6,148.867L172.63,148.558L173.661,148.215L174.686,147.848L175.716,147.458L176.741,147.046L177.771,146.622L178.797,146.176L179.827,145.714L180.858,145.23L181.888,144.729L182.913,144.192L183.943,143.621L184.968,143.019L185.999,142.383L187.024,141.704L188.054,140.992L189.085,140.221L190.115,139.433L191.14,138.598L192.171,137.743L193.196,136.855L194.226,135.925L195.251,134.95L196.282,133.949L197.312,132.938L198.343,131.889L199.368,130.815L200.398,129.711L201.423,128.578L202.454,127.383L203.479,126.135L204.509,124.83L205.54,123.456L206.57,122.036L207.595,120.568L208.626,119.079L209.651,117.619L210.681,116.163L211.706,114.69L212.736,113.216L213.767,111.735L214.797,110.266L215.823,108.875L216.853,107.546L217.878,106.305L218.908,105.135L219.934,104.067L220.964,103.084L221.995,102.225L223.025,101.516L224.05,100.954L225.08,100.55L226.105,100.29L227.136,100.183L228.161,100.224L229.191,100.456L230.222,100.848L231.252,101.424L232.277,102.151L233.308,103.076L234.333,104.179L235.363,105.437L236.388,106.84L237.419,108.393L238.449,110.095L239.48,111.919L240.505,113.872L241.535,115.925L242.56,118.07L243.591,120.261L244.616,122.485L245.646,124.718L246.677,126.923L247.707,129.11L248.732,131.254L249.763,133.346L250.788,135.425L251.818,137.448L252.843,139.375L253.873,141.208L254.904,142.917L255.934,144.508L256.96,146.025L257.99,147.438L259.015,148.76L260.045,149.958L261.071,151.051L262.101,152.011L263.132,152.86L264.162,153.617L265.187,154.291"></path></g><g aria-label="area" fill=" #071455"><path opacity="0.5" d="M138.696,153.965L139.721,153.869L140.751,153.773L141.776,153.68L142.807,153.585L143.831,153.494L144.862,153.397L145.887,153.299L146.917,153.191L147.948,153.07L148.979,152.948L150.003,152.817L151.034,152.676L152.059,152.525L153.089,152.374L154.114,152.218L155.145,152.071L156.175,151.937L157.206,151.797L158.231,151.643L159.261,151.483L160.286,151.316L161.317,151.138L162.342,150.952L163.372,150.757L164.403,150.553L165.433,150.336L166.458,150.109L167.489,149.881L168.514,149.647L169.544,149.402L170.569,149.147L171.6,148.867L172.63,148.558L173.661,148.215L174.686,147.848L175.716,147.458L176.741,147.046L177.771,146.622L178.797,146.176L179.827,145.714L180.858,145.23L181.888,144.729L182.913,144.192L183.943,143.621L184.968,143.019L185.999,142.383L187.024,141.704L188.054,140.992L189.085,140.221L190.115,139.433L191.14,138.598L192.171,137.743L193.196,136.855L194.226,135.925L195.251,134.95L196.282,133.949L197.312,132.938L198.343,131.889L199.368,130.815L200.398,129.711L201.423,128.578L202.454,127.383L203.479,126.135L204.509,124.83L205.54,123.456L206.57,122.036L207.595,120.568L208.626,119.079L209.651,117.619L210.681,116.163L211.706,114.69L212.736,113.216L213.767,111.735L214.797,110.266L215.823,108.875L216.853,107.546L217.878,106.305L218.908,105.135L219.934,104.067L220.964,103.084L221.995,102.225L223.025,101.516L224.05,100.954L225.08,100.55L226.105,100.29L227.136,100.183L228.161,100.224L229.191,100.456L230.222,100.848L231.252,101.424L232.277,102.151L233.308,103.076L234.333,104.179L235.363,105.437L236.388,106.84L237.419,108.393L238.449,110.095L239.48,111.919L240.505,113.872L241.535,115.925L242.56,118.07L243.591,120.261L244.616,122.485L245.646,124.718L246.677,126.923L247.707,129.11L248.732,131.254L249.763,133.346L250.788,135.425L251.818,137.448L252.843,139.375L253.873,141.208L254.904,142.917L254.904,157.476L253.873,157.476L252.843,157.476L251.818,157.476L250.788,157.476L249.763,157.476L248.732,157.476L247.707,157.476L246.677,157.476L245.646,157.476L244.616,157.476L243.591,157.476L242.56,157.476L241.535,157.476L240.505,157.476L239.48,157.476L238.449,157.476L237.419,157.476L236.388,157.476L235.363,157.476L234.333,157.476L233.308,157.476L232.277,157.476L231.252,157.476L230.222,157.476L229.191,157.476L228.161,157.476L227.136,157.476L226.105,157.476L225.08,157.476L224.05,157.476L223.025,157.476L221.995,157.476L220.964,157.476L219.934,157.476L218.908,157.476L217.878,157.476L216.853,157.476L215.823,157.476L214.797,157.476L213.767,157.476L212.736,157.476L211.706,157.476L210.681,157.476L209.651,157.476L208.626,157.476L207.595,157.476L206.57,157.476L205.54,157.476L204.509,157.476L203.479,157.476L202.454,157.476L201.423,157.476L200.398,157.476L199.368,157.476L198.343,157.476L197.312,157.476L196.282,157.476L195.251,157.476L194.226,157.476L193.196,157.476L192.171,157.476L191.14,157.476L190.115,157.476L189.085,157.476L188.054,157.476L187.024,157.476L185.999,157.476L184.968,157.476L183.943,157.476L182.913,157.476L181.888,157.476L180.858,157.476L179.827,157.476L178.797,157.476L177.771,157.476L176.741,157.476L175.716,157.476L174.686,157.476L173.661,157.476L172.63,157.476L171.6,157.476L170.569,157.476L169.544,157.476L168.514,157.476L167.489,157.476L166.458,157.476L165.433,157.476L164.403,157.476L163.372,157.476L162.342,157.476L161.317,157.476L160.286,157.476L159.261,157.476L158.231,157.476L157.206,157.476L156.175,157.476L155.145,157.476L154.114,157.476L153.089,157.476L152.059,157.476L151.034,157.476L150.003,157.476L148.979,157.476L147.948,157.476L146.917,157.476L145.887,157.476L144.862,157.476L143.831,157.476L142.807,157.476L141.776,157.476L140.751,157.476L139.721,157.476L138.696,157.476Z"></path></g><g aria-label="text" fill="black" text-anchor="end" font-family="HelveticaNeue-Light" font-size="12" font-weight="300" transform="translate(-10,0)"><text y="0.32em" transform="translate(221.48776730558393,55.79166666666666)">70.0%</text></g><g aria-label="x-axis tick" aria-hidden="true" fill="none" stroke="currentColor"><path transform="translate(55.3897411439394,161.66666666666666)" d="M0,0L0,6"></path><path transform="translate(96.52674052895269,161.66666666666666)" d="M0,0L0,6"></path><path transform="translate(137.66373991396597,161.66666666666666)" d="M0,0L0,6"></path><path transform="translate(178.79510795067196,161.66666666666666)" d="M0,0L0,6"></path><path transform="translate(219.93210733568526,161.66666666666666)" d="M0,0L0,6"></path><path transform="translate(261.0691067206985,161.66666666666666)" d="M0,0L0,6"></path><path transform="translate(302.20610610571185,161.66666666666666)" d="M0,0L0,6"></path><path transform="translate(343.3431054907251,161.66666666666666)" d="M0,0L0,6"></path><path transform="translate(384.4801048757384,161.66666666666666)" d="M0,0L0,6"></path></g><g aria-label="x-axis tick label" font-family="HelveticaNeue-Light" font-size="8" font-variant="tabular-nums" transform="translate(0,9)"><text y="0.71em" transform="translate(55.3897411439394,161.66666666666666)">1860</text><text y="0.71em" transform="translate(96.52674052895269,161.66666666666666)">1880</text><text y="0.71em" transform="translate(137.66373991396597,161.66666666666666)">1900</text><text y="0.71em" transform="translate(178.79510795067196,161.66666666666666)">1920</text><text y="0.71em" transform="translate(219.93210733568526,161.66666666666666)">1940</text><text y="0.71em" transform="translate(261.0691067206985,161.66666666666666)">1960</text><text y="0.71em" transform="translate(302.20610610571185,161.66666666666666)">1980</text><text y="0.71em" transform="translate(343.3431054907251,161.66666666666666)">2000</text><text y="0.71em" transform="translate(384.4801048757384,161.66666666666666)">2020</text></g><g transform="translate(20, 20)"><g transform="scale(1)"><style>:where(.plot-d6a7b5) {
  --plot-background: white;
  display: block;
  height: auto;
  height: intrinsic;
  max-width: 100%;
}
:where(.plot-d6a7b5 text),
:where(.plot-d6a7b5 tspan) {
  white-space: pre;
}</style><g aria-label="rule" stroke="currentColor"><line x1="10" x2="94.25" y1="68.33333333333333" y2="68.33333333333333"></line></g><g aria-label="line" fill="none" stroke="	#73878c" stroke-width="1.5" stroke-linejoin="round" stroke-linecap="round"><path d="M10,67.61L11.154,67.513L12.308,67.416L13.462,67.314L14.616,67.205L15.771,67.092L16.925,66.967L18.079,66.834L19.233,66.663L20.387,66.448L21.541,66.185L22.695,65.852L23.849,65.441L25.003,64.96L26.158,64.376L27.312,63.685L28.466,62.875L29.62,61.951L30.774,60.862L31.928,59.649L33.082,58.306L34.236,56.77L35.39,55.019L36.545,53.029L37.699,50.822L38.853,48.347L40.007,45.538L41.161,42.536L42.315,39.321L43.469,35.953L44.623,32.446L45.777,28.823L46.932,25.269L48.086,21.826L49.24,18.644L50.394,15.852L51.548,13.545L52.702,11.751L53.856,10.548L55.01,10L56.164,10.18L57.318,11.114L58.473,12.745L59.627,15.03L60.781,17.892L61.935,21.214L63.089,24.826L64.243,28.72L65.397,32.758L66.551,36.86L67.705,40.876L68.86,44.661L70.014,48.236L71.168,51.472L72.322,54.4L73.476,57.015L74.63,59.306L75.784,61.214L76.938,62.805L78.092,64.078L79.247,65.078L80.401,65.889L81.555,66.527L82.709,67.035L83.863,67.401L85.017,67.666L86.171,67.864L87.325,68.006L88.479,68.101L89.634,68.173L90.788,68.224L91.942,68.258L93.096,68.277L94.25,68.292"></path></g><g aria-label="area" fill="	#73878c"><path opacity="0.5" d="M33.082,58.306L34.236,56.77L35.39,55.019L36.545,53.029L37.699,50.822L38.853,48.347L40.007,45.538L41.161,42.536L42.315,39.321L43.469,35.953L44.623,32.446L45.777,28.823L46.932,25.269L48.086,21.826L49.24,18.644L50.394,15.852L51.548,13.545L52.702,11.751L53.856,10.548L55.01,10L56.164,10.18L57.318,11.114L58.473,12.745L59.627,15.03L60.781,17.892L61.935,21.214L63.089,24.826L64.243,28.72L65.397,32.758L66.551,36.86L67.705,40.876L68.86,44.661L70.014,48.236L71.168,51.472L72.322,54.4L72.322,68.333L71.168,68.333L70.014,68.333L68.86,68.333L67.705,68.333L66.551,68.333L65.397,68.333L64.243,68.333L63.089,68.333L61.935,68.333L60.781,68.333L59.627,68.333L58.473,68.333L57.318,68.333L56.164,68.333L55.01,68.333L53.856,68.333L52.702,68.333L51.548,68.333L50.394,68.333L49.24,68.333L48.086,68.333L46.932,68.333L45.777,68.333L44.623,68.333L43.469,68.333L42.315,68.333L41.161,68.333L40.007,68.333L38.853,68.333L37.699,68.333L36.545,68.333L35.39,68.333L34.236,68.333L33.082,68.333Z"></path></g><g aria-label="line" fill="none" stroke=" #071455" stroke-width="1.5" stroke-linejoin="round" stroke-linecap="round"><path d="M10,68.047L11.154,68.005L12.308,67.957L13.462,67.901L14.616,67.833L15.771,67.752L16.925,67.661L18.079,67.566L19.233,67.445L20.387,67.29L21.541,67.097L22.695,66.855L23.849,66.557L25.003,66.219L26.158,65.82L27.312,65.345L28.466,64.79L29.62,64.185L30.774,63.462L31.928,62.648L33.082,61.733L34.236,60.671L35.39,59.453L36.545,58.072L37.699,56.519L38.853,54.774L40.007,52.793L41.161,50.689L42.315,48.409L43.469,46.014L44.623,43.509L45.777,40.942L46.932,38.43L48.086,36.014L49.24,33.766L50.394,31.787L51.548,30.12L52.702,28.824L53.856,27.926L55.01,27.488L56.164,27.539L57.318,28.096L58.473,29.139L59.627,30.657L60.781,32.572L61.935,34.826L63.089,37.289L64.243,39.974L65.397,42.745L66.551,45.571L67.705,48.345L68.86,50.993L70.014,53.517L71.168,55.838L72.322,57.943L73.476,59.849L74.63,61.522L75.784,62.926L76.938,64.104L78.092,65.063L79.247,65.822L80.401,66.43L81.555,66.911L82.709,67.302L83.863,67.587L85.017,67.799L86.171,67.956L87.325,68.067L88.479,68.14L89.634,68.194L90.788,68.234L91.942,68.261L93.096,68.278L94.25,68.292"></path></g><g aria-label="area" fill=" #071455"><path opacity="0.5" d="M33.082,61.733L34.236,60.671L35.39,59.453L36.545,58.072L37.699,56.519L38.853,54.774L40.007,52.793L41.161,50.689L42.315,48.409L43.469,46.014L44.623,43.509L45.777,40.942L46.932,38.43L48.086,36.014L49.24,33.766L50.394,31.787L51.548,30.12L52.702,28.824L53.856,27.926L55.01,27.488L56.164,27.539L57.318,28.096L58.473,29.139L59.627,30.657L60.781,32.572L61.935,34.826L63.089,37.289L64.243,39.974L65.397,42.745L66.551,45.571L67.705,48.345L68.86,50.993L70.014,53.517L71.168,55.838L72.322,57.943L72.322,68.333L71.168,68.333L70.014,68.333L68.86,68.333L67.705,68.333L66.551,68.333L65.397,68.333L64.243,68.333L63.089,68.333L61.935,68.333L60.781,68.333L59.627,68.333L58.473,68.333L57.318,68.333L56.164,68.333L55.01,68.333L53.856,68.333L52.702,68.333L51.548,68.333L50.394,68.333L49.24,68.333L48.086,68.333L46.932,68.333L45.777,68.333L44.623,68.333L43.469,68.333L42.315,68.333L41.161,68.333L40.007,68.333L38.853,68.333L37.699,68.333L36.545,68.333L35.39,68.333L34.236,68.333L33.082,68.333Z"></path></g><g aria-label="x-axis tick" aria-hidden="true" fill="none" stroke="currentColor"><path transform="translate(22.695205479452056,68.33333333333333)" d="M0,0L0,6"></path><path transform="translate(45.77739726027398,68.33333333333333)" d="M0,0L0,6"></path><path transform="translate(68.85958904109589,68.33333333333333)" d="M0,0L0,6"></path><path transform="translate(91.94178082191782,68.33333333333333)" d="M0,0L0,6"></path></g><g aria-label="x-axis tick label" text-anchor="start" font-family="HelveticaNeue-Light" font-size="8" font-variant="tabular-nums" transform="translate(0,11.82842712474619)"><text y="0.32em" transform="translate(22.695205479452056,68.33333333333333) rotate(45)">1.0e-4</text><text y="0.32em" transform="translate(45.77739726027398,68.33333333333333) rotate(45)">2.0e-4</text><text y="0.32em" transform="translate(68.85958904109589,68.33333333333333) rotate(45)">3.0e-4</text><text y="0.32em" transform="translate(91.94178082191782,68.33333333333333) rotate(45)">4.0e-4</text></g><g aria-label="x-axis label" text-anchor="end" font-family="HelveticaNeue-Light" font-size="8" transform="translate(17,-5)"><text transform="translate(94.25,68.33333333333333)">Rate →</text></g></g></g></g></g><text x="5" y="14" font-size="18" font-family="HelveticaNeue-Light">A</text></g><g transform="translate(0, 176.66666666666666)"><g transform="scale(1)"><style>:where(.plot-d6a7b5) {
  --plot-background: white;
  display: block;
  height: auto;
  height: intrinsic;
  max-width: 100%;
}
:where(.plot-d6a7b5 text),
:where(.plot-d6a7b5 tspan) {
  white-space: pre;
}</style><g aria-label="y-grid" aria-hidden="true" stroke="currentColor" stroke-opacity="0.1"><line x1="35" x2="397" y1="68.33333333333333" y2="68.33333333333333"></line><line x1="35" x2="397" y1="48.194444444444436" y2="48.194444444444436"></line><line x1="35" x2="397" y1="28.055555555555554" y2="28.055555555555554"></line></g><g aria-label="rule" stroke="currentColor"><line x1="35" x2="397" y1="68.33333333333333" y2="68.33333333333333"></line></g><g aria-label="rule" stroke="currentColor"><line x1="35" x2="35" y1="20" y2="68.33333333333333"></line></g><g aria-label="area" fill="grey"><path opacity="0.3" d="M112.014,64.306L113.039,64.306L114.07,64.306L115.1,64.306L116.131,60.278L117.156,60.278L118.186,60.278L119.211,60.278L120.242,60.278L121.267,60.278L122.297,60.278L123.328,60.278L124.358,60.278L125.383,60.278L126.414,60.278L127.439,60.278L128.469,60.278L129.494,60.278L130.525,60.278L131.555,60.278L132.586,60.278L133.611,60.278L134.641,60.278L135.666,60.278L136.697,60.278L137.721,60.278L138.752,60.278L139.777,60.278L140.807,60.278L141.832,60.278L142.863,60.278L143.888,60.278L144.918,60.278L145.943,60.278L146.974,60.278L148.004,60.278L149.035,60.278L150.06,60.278L151.09,60.278L152.115,56.25L153.146,56.25L154.171,56.25L155.201,56.25L156.232,56.25L157.262,56.25L158.287,56.25L159.318,56.25L160.343,56.25L161.373,56.25L162.398,56.25L163.429,56.25L164.459,56.25L165.49,56.25L166.515,56.25L167.545,56.25L168.57,56.25L169.601,56.25L170.625,56.25L171.656,56.25L172.687,56.25L173.717,56.25L174.742,56.25L175.772,56.25L176.797,56.25L177.828,56.25L178.853,56.25L179.883,56.25L180.914,56.25L181.944,56.25L182.969,56.25L184,56.25L185.025,56.25L186.055,56.25L187.08,56.25L188.111,56.25L189.141,56.25L190.172,56.25L191.197,56.25L192.227,56.25L193.252,56.25L194.282,56.25L195.308,56.25L196.338,56.25L197.369,56.25L198.399,56.25L199.424,56.25L200.454,56.25L201.48,56.25L202.51,56.25L203.535,56.25L204.565,56.25L205.596,56.25L206.626,52.222L207.652,52.222L208.682,52.222L209.707,52.222L210.737,52.222L211.762,52.222L212.793,52.222L213.824,52.222L214.854,52.222L215.879,52.222L216.909,52.222L217.934,52.222L218.965,48.194L219.99,48.194L221.02,48.194L222.051,48.194L223.081,48.194L224.106,48.194L225.137,48.194L226.162,48.194L227.192,48.194L228.217,48.194L229.248,48.194L230.278,48.194L231.309,48.194L232.334,48.194L233.364,48.194L234.389,48.194L235.419,48.194L236.445,48.194L237.475,48.194L238.506,48.194L239.536,48.194L240.561,48.194L241.591,48.194L242.617,48.194L243.647,48.194L244.672,48.194L245.702,48.194L246.733,48.194L247.763,48.194L248.789,48.194L249.819,48.194L250.844,44.167L251.874,44.167L252.899,44.167L253.93,44.167L254.961,44.167L255.991,44.167L257.016,44.167L258.046,44.167L259.071,44.167L260.102,40.139L261.127,40.139L262.157,40.139L263.188,40.139L264.218,40.139L265.243,40.139L266.274,40.139L267.299,40.139L268.329,36.111L269.354,36.111L270.385,36.111L271.415,36.111L272.446,36.111L273.471,36.111L274.501,36.111L275.526,36.111L276.556,36.111L277.582,36.111L278.612,36.111L279.643,36.111L280.673,36.111L281.698,36.111L282.728,32.083L283.754,32.083L284.784,32.083L285.809,32.083L286.839,32.083L287.87,32.083L288.9,32.083L289.925,32.083L290.956,32.083L291.981,32.083L293.011,32.083L294.036,32.083L295.067,28.056L296.098,32.083L297.128,36.111L298.153,36.111L299.183,36.111L300.208,36.111L301.239,36.111L302.264,36.111L303.294,36.111L304.325,36.111L305.355,36.111L306.38,36.111L307.411,36.111L308.436,36.111L309.466,36.111L310.491,36.111L311.522,32.083L312.552,32.083L313.583,32.083L314.608,32.083L315.638,32.083L316.663,32.083L317.693,32.083L318.719,32.083L319.749,32.083L320.78,28.056L321.81,28.056L322.835,28.056L323.865,28.056L324.891,24.028L325.921,24.028L326.946,24.028L327.976,24.028L329.007,20L330.037,20L331.063,20L332.093,20L333.118,24.028L334.148,28.056L335.173,28.056L336.204,32.083L337.235,36.111L338.265,36.111L339.29,36.111L340.32,36.111L341.345,36.111L342.376,36.111L343.401,36.111L344.431,32.083L345.462,32.083L346.492,32.083L347.517,32.083L348.548,36.111L349.573,36.111L350.603,36.111L351.628,40.139L352.659,40.139L353.689,40.139L354.72,40.139L355.745,36.111L356.775,36.111L357.8,32.083L358.83,32.083L359.856,36.111L360.886,36.111L361.917,40.139L362.947,40.139L363.972,40.139L365.002,40.139L366.028,40.139L367.058,40.139L368.083,40.139L369.113,40.139L370.144,40.139L371.174,40.139L372.2,40.139L373.23,40.139L374.255,44.167L375.285,44.167L376.31,44.167L377.341,44.167L378.371,40.139L379.402,44.167L380.427,44.167L381.457,48.194L382.482,52.222L383.513,52.222L384.538,52.222L385.568,60.278L386.599,60.278L387.629,60.278L388.654,60.278L389.685,64.306L390.71,64.306L391.74,64.306L392.765,64.306L393.796,64.306L394.826,64.306L395.857,64.306L395.857,64.306L394.826,64.306L393.796,64.306L392.765,64.306L391.74,64.306L390.71,64.306L389.685,64.306L388.654,60.278L387.629,60.278L386.599,60.278L385.568,60.278L384.538,52.222L383.513,52.222L382.482,52.222L381.457,48.194L380.427,48.194L379.402,48.194L378.371,44.167L377.341,44.167L376.31,44.167L375.285,44.167L374.255,44.167L373.23,40.139L372.2,40.139L371.174,44.167L370.144,44.167L369.113,44.167L368.083,44.167L367.058,44.167L366.028,44.167L365.002,44.167L363.972,44.167L362.947,44.167L361.917,48.194L360.886,44.167L359.856,44.167L358.83,40.139L357.8,44.167L356.775,44.167L355.745,44.167L354.72,48.194L353.689,48.194L352.659,48.194L351.628,48.194L350.603,44.167L349.573,44.167L348.548,44.167L347.517,40.139L346.492,40.139L345.462,40.139L344.431,40.139L343.401,40.139L342.376,40.139L341.345,40.139L340.32,40.139L339.29,44.167L338.265,44.167L337.235,44.167L336.204,40.139L335.173,36.111L334.148,36.111L333.118,32.083L332.093,28.056L331.063,28.056L330.037,32.083L329.007,32.083L327.976,36.111L326.946,36.111L325.921,36.111L324.891,36.111L323.865,40.139L322.835,40.139L321.81,40.139L320.78,40.139L319.749,40.139L318.719,40.139L317.693,40.139L316.663,40.139L315.638,40.139L314.608,40.139L313.583,40.139L312.552,40.139L311.522,40.139L310.491,40.139L309.466,40.139L308.436,40.139L307.411,40.139L306.38,40.139L305.355,40.139L304.325,40.139L303.294,40.139L302.264,40.139L301.239,40.139L300.208,40.139L299.183,40.139L298.153,44.167L297.128,44.167L296.098,40.139L295.067,40.139L294.036,44.167L293.011,44.167L291.981,44.167L290.956,44.167L289.925,48.194L288.9,48.194L287.87,48.194L286.839,48.194L285.809,48.194L284.784,48.194L283.754,48.194L282.728,48.194L281.698,48.194L280.673,48.194L279.643,48.194L278.612,48.194L277.582,48.194L276.556,48.194L275.526,48.194L274.501,48.194L273.471,48.194L272.446,48.194L271.415,48.194L270.385,52.222L269.354,52.222L268.329,52.222L267.299,60.278L266.274,60.278L265.243,60.278L264.218,60.278L263.188,60.278L262.157,60.278L261.127,60.278L260.102,60.278L259.071,64.306L258.046,60.278L257.016,60.278L255.991,60.278L254.961,60.278L253.93,60.278L252.899,60.278L251.874,60.278L250.844,60.278L249.819,64.306L248.789,64.306L247.763,64.306L246.733,64.306L245.702,64.306L244.672,64.306L243.647,64.306L242.617,64.306L241.591,64.306L240.561,64.306L239.536,64.306L238.506,64.306L237.475,64.306L236.445,64.306L235.419,64.306L234.389,64.306L233.364,64.306L232.334,64.306L231.309,64.306L230.278,64.306L229.248,64.306L228.217,64.306L227.192,64.306L226.162,64.306L225.137,64.306L224.106,64.306L223.081,64.306L222.051,64.306L221.02,64.306L219.99,64.306L218.965,64.306L217.934,64.306L216.909,64.306L215.879,64.306L214.854,64.306L213.824,64.306L212.793,64.306L211.762,64.306L210.737,64.306L209.707,64.306L208.682,64.306L207.652,64.306L206.626,64.306L205.596,64.306L204.565,64.306L203.535,64.306L202.51,64.306L201.48,64.306L200.454,64.306L199.424,64.306L198.399,64.306L197.369,64.306L196.338,64.306L195.308,64.306L194.282,64.306L193.252,64.306L192.227,64.306L191.197,64.306L190.172,64.306L189.141,64.306L188.111,64.306L187.08,64.306L186.055,64.306L185.025,64.306L184,64.306L182.969,64.306L181.944,64.306L180.914,64.306L179.883,64.306L178.853,64.306L177.828,64.306L176.797,64.306L175.772,64.306L174.742,64.306L173.717,64.306L172.687,64.306L171.656,64.306L170.625,64.306L169.601,64.306L168.57,64.306L167.545,64.306L166.515,64.306L165.49,64.306L164.459,64.306L163.429,64.306L162.398,64.306L161.373,64.306L160.343,64.306L159.318,64.306L158.287,64.306L157.262,64.306L156.232,64.306L155.201,64.306L154.171,64.306L153.146,64.306L152.115,64.306L151.09,64.306L150.06,64.306L149.035,64.306L148.004,64.306L146.974,64.306L145.943,64.306L144.918,64.306L143.888,64.306L142.863,64.306L141.832,64.306L140.807,64.306L139.777,64.306L138.752,64.306L137.721,64.306L136.697,64.306L135.666,64.306L134.641,64.306L133.611,64.306L132.586,64.306L131.555,64.306L130.525,64.306L129.494,64.306L128.469,64.306L127.439,64.306L126.414,64.306L125.383,64.306L124.358,64.306L123.328,64.306L122.297,64.306L121.267,64.306L120.242,64.306L119.211,64.306L118.186,64.306L117.156,64.306L116.131,64.306L115.1,64.306L114.07,64.306L113.039,64.306L112.014,64.306Z"></path></g><g aria-label="area" fill="#071455"><path opacity="0.3" d="M112.014,68.333L113.039,68.333L114.07,68.333L115.1,68.333L116.131,68.333L117.156,68.333L118.186,64.306L119.211,64.306L120.242,64.306L121.267,64.306L122.297,64.306L123.328,64.306L124.358,64.306L125.383,64.306L126.414,64.306L127.439,64.306L128.469,64.306L129.494,64.306L130.525,64.306L131.555,64.306L132.586,64.306L133.611,64.306L134.641,64.306L135.666,64.306L136.697,64.306L137.721,64.306L138.752,64.306L139.777,60.278L140.807,60.278L141.832,60.278L142.863,60.278L143.888,60.278L144.918,60.278L145.943,60.278L146.974,60.278L148.004,60.278L149.035,60.278L150.06,60.278L151.09,60.278L152.115,60.278L153.146,60.278L154.171,60.278L155.201,60.278L156.232,60.278L157.262,60.278L158.287,60.278L159.318,60.278L160.343,60.278L161.373,60.278L162.398,60.278L163.429,60.278L164.459,60.278L165.49,60.278L166.515,60.278L167.545,60.278L168.57,60.278L169.601,60.278L170.625,60.278L171.656,60.278L172.687,60.278L173.717,60.278L174.742,60.278L175.772,60.278L176.797,60.278L177.828,60.278L178.853,60.278L179.883,60.278L180.914,60.278L181.944,56.25L182.969,56.25L184,56.25L185.025,56.25L186.055,56.25L187.08,56.25L188.111,56.25L189.141,56.25L190.172,56.25L191.197,56.25L192.227,56.25L193.252,56.25L194.282,56.25L195.308,56.25L196.338,56.25L197.369,56.25L198.399,56.25L199.424,56.25L200.454,56.25L201.48,56.25L202.51,56.25L203.535,56.25L204.565,56.25L205.596,56.25L206.626,56.25L207.652,56.25L208.682,56.25L209.707,56.25L210.737,56.25L211.762,56.25L212.793,56.25L213.824,56.25L214.854,56.25L215.879,56.25L216.909,56.25L217.934,56.25L218.965,56.25L219.99,56.25L221.02,56.25L222.051,56.25L223.081,56.25L224.106,56.25L225.137,56.25L226.162,56.25L227.192,56.25L228.217,56.25L229.248,56.25L230.278,56.25L231.309,56.25L232.334,56.25L233.364,52.222L234.389,52.222L235.419,52.222L236.445,52.222L237.475,52.222L238.506,52.222L239.536,52.222L240.561,52.222L241.591,52.222L242.617,52.222L243.647,52.222L244.672,52.222L245.702,52.222L246.733,52.222L247.763,52.222L248.789,52.222L249.819,52.222L250.844,52.222L251.874,52.222L252.899,52.222L253.93,52.222L254.961,52.222L255.991,52.222L257.016,52.222L258.046,48.194L259.071,48.194L260.102,48.194L261.127,48.194L262.157,48.194L263.188,48.194L264.218,48.194L265.243,48.194L266.274,48.194L267.299,48.194L268.329,48.194L269.354,48.194L270.385,48.194L271.415,48.194L272.446,44.167L273.471,44.167L274.501,44.167L275.526,44.167L276.556,44.167L277.582,44.167L278.612,44.167L279.643,44.167L280.673,44.167L281.698,44.167L282.728,44.167L283.754,44.167L284.784,44.167L285.809,44.167L286.839,40.139L287.87,40.139L288.9,40.139L289.925,40.139L290.956,40.139L291.981,40.139L293.011,40.139L294.036,40.139L295.067,40.139L296.098,40.139L297.128,40.139L298.153,40.139L299.183,40.139L300.208,40.139L301.239,40.139L302.264,40.139L303.294,40.139L304.325,40.139L305.355,40.139L306.38,40.139L307.411,40.139L308.436,40.139L309.466,40.139L310.491,40.139L311.522,40.139L312.552,40.139L313.583,40.139L314.608,40.139L315.638,40.139L316.663,40.139L317.693,40.139L318.719,40.139L319.749,40.139L320.78,40.139L321.81,40.139L322.835,40.139L323.865,40.139L324.891,40.139L325.921,40.139L326.946,40.139L327.976,40.139L329.007,40.139L330.037,40.139L331.063,40.139L332.093,40.139L333.118,40.139L334.148,44.167L335.173,44.167L336.204,48.194L337.235,48.194L338.265,48.194L339.29,48.194L340.32,48.194L341.345,48.194L342.376,48.194L343.401,48.194L344.431,48.194L345.462,48.194L346.492,48.194L347.517,48.194L348.548,48.194L349.573,48.194L350.603,52.222L351.628,52.222L352.659,52.222L353.689,52.222L354.72,52.222L355.745,52.222L356.775,52.222L357.8,52.222L358.83,56.25L359.856,56.25L360.886,56.25L361.917,56.25L362.947,56.25L363.972,56.25L365.002,56.25L366.028,56.25L367.058,56.25L368.083,56.25L369.113,56.25L370.144,56.25L371.174,56.25L372.2,56.25L373.23,56.25L374.255,56.25L375.285,56.25L376.31,56.25L377.341,56.25L378.371,56.25L379.402,60.278L380.427,60.278L381.457,60.278L382.482,64.306L383.513,64.306L384.538,64.306L385.568,64.306L386.599,64.306L387.629,64.306L388.654,64.306L389.685,64.306L390.71,64.306L391.74,64.306L392.765,64.306L393.796,64.306L394.826,64.306L395.857,64.306L395.857,64.306L394.826,64.306L393.796,64.306L392.765,64.306L391.74,64.306L390.71,64.306L389.685,64.306L388.654,64.306L387.629,64.306L386.599,64.306L385.568,64.306L384.538,64.306L383.513,64.306L382.482,64.306L381.457,64.306L380.427,64.306L379.402,64.306L378.371,64.306L377.341,64.306L376.31,64.306L375.285,64.306L374.255,64.306L373.23,64.306L372.2,64.306L371.174,64.306L370.144,64.306L369.113,64.306L368.083,64.306L367.058,64.306L366.028,64.306L365.002,64.306L363.972,64.306L362.947,64.306L361.917,64.306L360.886,64.306L359.856,64.306L358.83,64.306L357.8,64.306L356.775,64.306L355.745,60.278L354.72,60.278L353.689,60.278L352.659,60.278L351.628,60.278L350.603,64.306L349.573,60.278L348.548,60.278L347.517,60.278L346.492,60.278L345.462,60.278L344.431,60.278L343.401,60.278L342.376,60.278L341.345,60.278L340.32,60.278L339.29,60.278L338.265,60.278L337.235,60.278L336.204,60.278L335.173,60.278L334.148,56.25L333.118,52.222L332.093,52.222L331.063,52.222L330.037,52.222L329.007,52.222L327.976,52.222L326.946,52.222L325.921,52.222L324.891,52.222L323.865,52.222L322.835,52.222L321.81,52.222L320.78,52.222L319.749,52.222L318.719,52.222L317.693,52.222L316.663,52.222L315.638,52.222L314.608,52.222L313.583,52.222L312.552,52.222L311.522,52.222L310.491,52.222L309.466,52.222L308.436,52.222L307.411,52.222L306.38,52.222L305.355,52.222L304.325,52.222L303.294,52.222L302.264,52.222L301.239,52.222L300.208,52.222L299.183,52.222L298.153,52.222L297.128,52.222L296.098,52.222L295.067,52.222L294.036,52.222L293.011,52.222L291.981,56.25L290.956,56.25L289.925,56.25L288.9,60.278L287.87,60.278L286.839,60.278L285.809,60.278L284.784,60.278L283.754,60.278L282.728,60.278L281.698,60.278L280.673,60.278L279.643,60.278L278.612,60.278L277.582,60.278L276.556,60.278L275.526,60.278L274.501,64.306L273.471,64.306L272.446,64.306L271.415,68.333L270.385,68.333L269.354,64.306L268.329,64.306L267.299,68.333L266.274,68.333L265.243,68.333L264.218,68.333L263.188,68.333L262.157,68.333L261.127,68.333L260.102,68.333L259.071,68.333L258.046,68.333L257.016,68.333L255.991,68.333L254.961,68.333L253.93,68.333L252.899,68.333L251.874,68.333L250.844,68.333L249.819,68.333L248.789,68.333L247.763,68.333L246.733,68.333L245.702,68.333L244.672,68.333L243.647,68.333L242.617,68.333L241.591,68.333L240.561,68.333L239.536,68.333L238.506,68.333L237.475,68.333L236.445,68.333L235.419,68.333L234.389,68.333L233.364,68.333L232.334,68.333L231.309,68.333L230.278,68.333L229.248,68.333L228.217,68.333L227.192,68.333L226.162,68.333L225.137,68.333L224.106,68.333L223.081,68.333L222.051,68.333L221.02,68.333L219.99,68.333L218.965,68.333L217.934,68.333L216.909,68.333L215.879,68.333L214.854,68.333L213.824,68.333L212.793,68.333L211.762,68.333L210.737,68.333L209.707,68.333L208.682,68.333L207.652,68.333L206.626,68.333L205.596,68.333L204.565,68.333L203.535,68.333L202.51,68.333L201.48,68.333L200.454,68.333L199.424,68.333L198.399,68.333L197.369,68.333L196.338,68.333L195.308,68.333L194.282,68.333L193.252,68.333L192.227,68.333L191.197,68.333L190.172,68.333L189.141,68.333L188.111,68.333L187.08,68.333L186.055,68.333L185.025,68.333L184,68.333L182.969,68.333L181.944,68.333L180.914,68.333L179.883,68.333L178.853,68.333L177.828,68.333L176.797,68.333L175.772,68.333L174.742,68.333L173.717,68.333L172.687,68.333L171.656,68.333L170.625,68.333L169.601,68.333L168.57,68.333L167.545,68.333L166.515,68.333L165.49,68.333L164.459,68.333L163.429,68.333L162.398,68.333L161.373,68.333L160.343,68.333L159.318,68.333L158.287,68.333L157.262,68.333L156.232,68.333L155.201,68.333L154.171,68.333L153.146,68.333L152.115,68.333L151.09,68.333L150.06,68.333L149.035,68.333L148.004,68.333L146.974,68.333L145.943,68.333L144.918,68.333L143.888,68.333L142.863,68.333L141.832,68.333L140.807,68.333L139.777,68.333L138.752,68.333L137.721,68.333L136.697,68.333L135.666,68.333L134.641,68.333L133.611,68.333L132.586,68.333L131.555,68.333L130.525,68.333L129.494,68.333L128.469,68.333L127.439,68.333L126.414,68.333L125.383,68.333L124.358,68.333L123.328,68.333L122.297,68.333L121.267,68.333L120.242,68.333L119.211,68.333L118.186,68.333L117.156,68.333L116.131,68.333L115.1,68.333L114.07,68.333L113.039,68.333L112.014,68.333Z"></path></g><g aria-label="line" fill="none" stroke="currentColor" stroke-width="1.5" stroke-linejoin="round" stroke-linecap="round"><path d="M112.014,64.306L113.039,64.306L114.07,64.306L115.1,64.306L116.131,64.306L117.156,64.306L118.186,64.306L119.211,64.306L120.242,64.306L121.267,64.306L122.297,64.306L123.328,64.306L124.358,64.306L125.383,64.306L126.414,64.306L127.439,64.306L128.469,64.306L129.494,64.306L130.525,64.306L131.555,64.306L132.586,64.306L133.611,64.306L134.641,64.306L135.666,64.306L136.697,64.306L137.721,64.306L138.752,64.306L139.777,64.306L140.807,64.306L141.832,64.306L142.863,64.306L143.888,64.306L144.918,64.306L145.943,64.306L146.974,64.306L148.004,64.306L149.035,64.306L150.06,64.306L151.09,64.306L152.115,64.306L153.146,64.306L154.171,64.306L155.201,64.306L156.232,64.306L157.262,64.306L158.287,64.306L159.318,64.306L160.343,64.306L161.373,64.306L162.398,64.306L163.429,64.306L164.459,64.306L165.49,64.306L166.515,64.306L167.545,64.306L168.57,64.306L169.601,64.306L170.625,64.306L171.656,64.306L172.687,64.306L173.717,64.306L174.742,64.306L175.772,64.306L176.797,64.306L177.828,64.306L178.853,64.306L179.883,64.306L180.914,64.306L181.944,64.306L182.969,64.306L184,64.306L185.025,64.306L186.055,64.306L187.08,64.306L188.111,64.306L189.141,64.306L190.172,64.306L191.197,64.306L192.227,64.306L193.252,64.306L194.282,64.306L195.308,64.306L196.338,64.306L197.369,64.306L198.399,64.306L199.424,64.306L200.454,64.306L201.48,64.306L202.51,64.306L203.535,64.306L204.565,64.306L205.596,64.306L206.626,64.306L207.652,64.306L208.682,64.306L209.707,64.306L210.737,64.306L211.762,60.278L212.793,60.278L213.824,60.278L214.854,60.278L215.879,60.278L216.909,60.278L217.934,60.278L218.965,60.278L219.99,60.278L221.02,60.278L222.051,60.278L223.081,60.278L224.106,60.278L225.137,60.278L226.162,60.278L227.192,56.25L228.217,56.25L229.248,56.25L230.278,56.25L231.309,56.25L232.334,56.25L233.364,56.25L234.389,56.25L235.419,56.25L236.445,56.25L237.475,56.25L238.506,56.25L239.536,56.25L240.561,56.25L241.591,56.25L242.617,56.25L243.647,56.25L244.672,56.25L245.702,56.25L246.733,56.25L247.763,56.25L248.789,56.25L249.819,56.25L250.844,56.25L251.874,56.25L252.899,56.25L253.93,56.25L254.961,52.222L255.991,52.222L257.016,48.194L258.046,48.194L259.071,48.194L260.102,48.194L261.127,48.194L262.157,48.194L263.188,48.194L264.218,48.194L265.243,48.194L266.274,48.194L267.299,48.194L268.329,48.194L269.354,48.194L270.385,48.194L271.415,48.194L272.446,48.194L273.471,48.194L274.501,48.194L275.526,48.194L276.556,48.194L277.582,48.194L278.612,48.194L279.643,48.194L280.673,48.194L281.698,48.194L282.728,44.167L283.754,44.167L284.784,44.167L285.809,44.167L286.839,40.139L287.87,40.139L288.9,40.139L289.925,36.111L290.956,36.111L291.981,36.111L293.011,36.111L294.036,36.111L295.067,36.111L296.098,36.111L297.128,40.139L298.153,40.139L299.183,40.139L300.208,40.139L301.239,40.139L302.264,40.139L303.294,40.139L304.325,40.139L305.355,40.139L306.38,40.139L307.411,40.139L308.436,40.139L309.466,40.139L310.491,40.139L311.522,36.111L312.552,36.111L313.583,36.111L314.608,36.111L315.638,36.111L316.663,36.111L317.693,36.111L318.719,36.111L319.749,36.111L320.78,32.083L321.81,32.083L322.835,32.083L323.865,32.083L324.891,32.083L325.921,32.083L326.946,28.056L327.976,28.056L329.007,28.056L330.037,28.056L331.063,28.056L332.093,28.056L333.118,32.083L334.148,36.111L335.173,32.083L336.204,36.111L337.235,40.139L338.265,40.139L339.29,40.139L340.32,40.139L341.345,40.139L342.376,40.139L343.401,40.139L344.431,40.139L345.462,40.139L346.492,36.111L347.517,36.111L348.548,40.139L349.573,40.139L350.603,40.139L351.628,44.167L352.659,44.167L353.689,44.167L354.72,44.167L355.745,44.167L356.775,40.139L357.8,40.139L358.83,36.111L359.856,40.139L360.886,40.139L361.917,44.167L362.947,44.167L363.972,44.167L365.002,44.167L366.028,44.167L367.058,40.139L368.083,40.139L369.113,40.139L370.144,40.139L371.174,40.139L372.2,40.139L373.23,40.139L374.255,44.167L375.285,44.167L376.31,44.167L377.341,44.167L378.371,44.167L379.402,48.194L380.427,44.167L381.457,48.194L382.482,52.222L383.513,52.222L384.538,52.222L385.568,60.278L386.599,60.278L387.629,60.278L388.654,60.278L389.685,64.306L390.71,64.306L391.74,64.306L392.765,64.306L393.796,64.306L394.826,64.306L395.857,64.306"></path></g><g aria-label="line" fill="none" stroke="#071455" stroke-width="1.5" stroke-linejoin="round" stroke-linecap="round"><path d="M112.014,68.333L113.039,68.333L114.07,68.333L115.1,68.333L116.131,68.333L117.156,68.333L118.186,68.333L119.211,68.333L120.242,68.333L121.267,68.333L122.297,68.333L123.328,68.333L124.358,68.333L125.383,68.333L126.414,68.333L127.439,68.333L128.469,68.333L129.494,68.333L130.525,68.333L131.555,68.333L132.586,68.333L133.611,68.333L134.641,68.333L135.666,68.333L136.697,68.333L137.721,68.333L138.752,68.333L139.777,68.333L140.807,68.333L141.832,68.333L142.863,68.333L143.888,68.333L144.918,68.333L145.943,68.333L146.974,68.333L148.004,68.333L149.035,68.333L150.06,68.333L151.09,68.333L152.115,68.333L153.146,68.333L154.171,68.333L155.201,68.333L156.232,68.333L157.262,68.333L158.287,68.333L159.318,68.333L160.343,68.333L161.373,68.333L162.398,68.333L163.429,68.333L164.459,68.333L165.49,68.333L166.515,68.333L167.545,68.333L168.57,68.333L169.601,68.333L170.625,68.333L171.656,68.333L172.687,68.333L173.717,68.333L174.742,68.333L175.772,68.333L176.797,68.333L177.828,68.333L178.853,68.333L179.883,68.333L180.914,68.333L181.944,68.333L182.969,68.333L184,68.333L185.025,68.333L186.055,68.333L187.08,68.333L188.111,68.333L189.141,68.333L190.172,68.333L191.197,68.333L192.227,68.333L193.252,68.333L194.282,68.333L195.308,68.333L196.338,68.333L197.369,68.333L198.399,68.333L199.424,68.333L200.454,68.333L201.48,68.333L202.51,68.333L203.535,68.333L204.565,68.333L205.596,68.333L206.626,68.333L207.652,68.333L208.682,68.333L209.707,68.333L210.737,68.333L211.762,68.333L212.793,68.333L213.824,68.333L214.854,68.333L215.879,68.333L216.909,68.333L217.934,68.333L218.965,64.306L219.99,64.306L221.02,64.306L222.051,64.306L223.081,64.306L224.106,64.306L225.137,64.306L226.162,64.306L227.192,64.306L228.217,64.306L229.248,64.306L230.278,64.306L231.309,64.306L232.334,64.306L233.364,64.306L234.389,60.278L235.419,60.278L236.445,60.278L237.475,60.278L238.506,60.278L239.536,60.278L240.561,60.278L241.591,60.278L242.617,60.278L243.647,60.278L244.672,60.278L245.702,60.278L246.733,60.278L247.763,60.278L248.789,60.278L249.819,60.278L250.844,60.278L251.874,60.278L252.899,60.278L253.93,60.278L254.961,60.278L255.991,60.278L257.016,60.278L258.046,60.278L259.071,60.278L260.102,60.278L261.127,60.278L262.157,60.278L263.188,60.278L264.218,60.278L265.243,60.278L266.274,56.25L267.299,56.25L268.329,56.25L269.354,56.25L270.385,56.25L271.415,56.25L272.446,56.25L273.471,56.25L274.501,56.25L275.526,56.25L276.556,56.25L277.582,56.25L278.612,56.25L279.643,56.25L280.673,56.25L281.698,56.25L282.728,56.25L283.754,56.25L284.784,52.222L285.809,52.222L286.839,52.222L287.87,52.222L288.9,48.194L289.925,48.194L290.956,48.194L291.981,48.194L293.011,48.194L294.036,48.194L295.067,48.194L296.098,44.167L297.128,44.167L298.153,44.167L299.183,44.167L300.208,44.167L301.239,44.167L302.264,44.167L303.294,44.167L304.325,44.167L305.355,44.167L306.38,44.167L307.411,44.167L308.436,44.167L309.466,44.167L310.491,44.167L311.522,48.194L312.552,48.194L313.583,48.194L314.608,48.194L315.638,48.194L316.663,48.194L317.693,48.194L318.719,48.194L319.749,48.194L320.78,48.194L321.81,48.194L322.835,48.194L323.865,48.194L324.891,48.194L325.921,48.194L326.946,48.194L327.976,48.194L329.007,48.194L330.037,48.194L331.063,48.194L332.093,48.194L333.118,48.194L334.148,52.222L335.173,52.222L336.204,56.25L337.235,56.25L338.265,56.25L339.29,56.25L340.32,56.25L341.345,56.25L342.376,56.25L343.401,56.25L344.431,56.25L345.462,56.25L346.492,56.25L347.517,56.25L348.548,56.25L349.573,56.25L350.603,56.25L351.628,56.25L352.659,60.278L353.689,60.278L354.72,60.278L355.745,60.278L356.775,60.278L357.8,60.278L358.83,64.306L359.856,64.306L360.886,64.306L361.917,64.306L362.947,64.306L363.972,64.306L365.002,64.306L366.028,64.306L367.058,64.306L368.083,64.306L369.113,64.306L370.144,64.306L371.174,64.306L372.2,64.306L373.23,64.306L374.255,64.306L375.285,64.306L376.31,64.306L377.341,64.306L378.371,64.306L379.402,64.306L380.427,64.306L381.457,64.306L382.482,64.306L383.513,64.306L384.538,64.306L385.568,64.306L386.599,64.306L387.629,64.306L388.654,64.306L389.685,64.306L390.71,64.306L391.74,64.306L392.765,64.306L393.796,64.306L394.826,64.306L395.857,64.306"></path></g><g aria-label="x-axis tick" aria-hidden="true" fill="none" stroke="currentColor"><path transform="translate(55.3897411439394,68.33333333333333)" d="M0,0L0,6"></path><path transform="translate(96.52674052895269,68.33333333333333)" d="M0,0L0,6"></path><path transform="translate(137.66373991396597,68.33333333333333)" d="M0,0L0,6"></path><path transform="translate(178.79510795067196,68.33333333333333)" d="M0,0L0,6"></path><path transform="translate(219.93210733568526,68.33333333333333)" d="M0,0L0,6"></path><path transform="translate(261.0691067206985,68.33333333333333)" d="M0,0L0,6"></path><path transform="translate(302.20610610571185,68.33333333333333)" d="M0,0L0,6"></path><path transform="translate(343.3431054907251,68.33333333333333)" d="M0,0L0,6"></path><path transform="translate(384.4801048757384,68.33333333333333)" d="M0,0L0,6"></path></g><g aria-label="x-axis tick label" font-family="HelveticaNeue-Light" font-size="8" font-variant="tabular-nums" transform="translate(0,9)"><text y="0.71em" transform="translate(55.3897411439394,68.33333333333333)">1860</text><text y="0.71em" transform="translate(96.52674052895269,68.33333333333333)">1880</text><text y="0.71em" transform="translate(137.66373991396597,68.33333333333333)">1900</text><text y="0.71em" transform="translate(178.79510795067196,68.33333333333333)">1920</text><text y="0.71em" transform="translate(219.93210733568526,68.33333333333333)">1940</text><text y="0.71em" transform="translate(261.0691067206985,68.33333333333333)">1960</text><text y="0.71em" transform="translate(302.20610610571185,68.33333333333333)">1980</text><text y="0.71em" transform="translate(343.3431054907251,68.33333333333333)">2000</text><text y="0.71em" transform="translate(384.4801048757384,68.33333333333333)">2020</text></g><g aria-label="x-axis label" text-anchor="start" font-family="HelveticaNeue-Light" font-size="8" transform="translate(-32,17)"><text transform="translate(35,68.33333333333333)"></text></g><g aria-label="y-axis tick" aria-hidden="true" fill="none" stroke="currentColor"><path transform="translate(35,68.33333333333333)" d="M0,0L-6,0"></path><path transform="translate(35,48.194444444444436)" d="M0,0L-6,0"></path><path transform="translate(35,28.055555555555554)" d="M0,0L-6,0"></path></g><g aria-label="y-axis tick label" text-anchor="end" font-family="HelveticaNeue-Light" font-size="8" font-variant="tabular-nums" transform="translate(-9,0)"><text y="0.32em" transform="translate(35,68.33333333333333)">0</text><text y="0.32em" transform="translate(35,48.194444444444436)">5</text><text y="0.32em" transform="translate(35,28.055555555555554)">10</text></g><g aria-label="y-axis label" font-family="HelveticaNeue-Light" font-size="8" transform="translate(-32,0)"><text y="0.71em" transform="translate(35,44.166666666666664) rotate(-90)"></text></g><g aria-label="text" font-family="HelveticaNeue-Light" font-size="8" transform="translate(0,-53.33333333333333)"><text y="0.32em" transform="translate(35,68.33333333333333)">↑ Lineages</text></g><g aria-label="rect"><rect x="36.88087033464674" y="32.08333333333333" width="10.282842009176498" height="4.027777777777786" fill="grey"></rect><rect x="36.88087033464674" y="44.166666666666664" width="10.282842009176498" height="4.0277777777777715" fill="#071455"></rect></g><g aria-label="text" font-family="HelveticaNeue-Light" font-size="8" transform="translate(2,0)"><text y="0.32em" transform="translate(47.163712343823235,34.097222222222214)">Total number of lineages</text><text y="0.32em" transform="translate(47.163712343823235,46.18055555555556)">Lineages with latency</text></g></g><text x="5" y="14" font-size="18" font-family="HelveticaNeue-Light">B</text></g></svg>